Cascade-MediumItalic.ufo
<glyph name="exclam" format="2">
  <advance width="290"/>
  <unicode hex="0021"/>
  <outline>
    <contour>
      <point x="176.333" y="700" type="line" name="n00"/>
      <point x="105.667" y="186.667" type="line"/>
      <point x="199" y="186.667" type="line"/>
      <point x="309.667" y="700" type="line"/>
    </contour>
    <contour>
      <point x="93.3333" y="80" type="curve" smooth="yes" name="n04"/>
      <point x="75.3333" y="56.6667"/>
      <point x="76.6667" y="28.3333"/>
      <point x="97.3333" y="15" type="curve" smooth="yes"/>
      <point x="118.333" y="1.66667"/>
      <point x="146.667" y="6.66667" name="n09"/>
      <point x="164.667" y="30" type="curve" smooth="yes" name="n10"/>
      <point x="182.667" y="53.3333"/>
      <point x="182" y="81.6667"/>
      <point x="161.333" y="95" type="curve" smooth="yes"/>
      <point x="140.333" y="108.333"/>
      <point x="111.333" y="103.333"/>
    </contour>
  </outline>
</glyph>
<glyph name="quotedbl" format="2">
  <advance width="353"/>
  <unicode hex="0022"/>
  <outline>
    <contour>
      <point x="136.333" y="700" type="line" name="n00"/>
      <point x="115.667" y="458.333" type="line" name="n01"/>
      <point x="187.333" y="458.333" type="line"/>
      <point x="251.333" y="700" type="line"/>
    </contour>
    <contour>
      <point x="298" y="700" type="line"/>
      <point x="277.333" y="458.333" type="line"/>
      <point x="349" y="458.333" type="line"/>
      <point x="413" y="700" type="line" name="n07"/>
    </contour>
  </outline>
</glyph>
<glyph name="numbersign" format="2">
  <advance width="662"/>
  <unicode hex="0023"/>
  <outline>
    <contour>
      <point x="375" y="523.333" type="line"/>
      <point x="448.667" y="700" type="line" name="n01"/>
      <point x="338.667" y="700" type="line"/>
      <point x="265" y="523.333" type="line"/>
      <point x="144" y="523.333" type="line" name="n04"/>
      <point x="130.667" y="446.667" type="line" name="n05"/>
      <point x="234.333" y="446.667" type="line"/>
      <point x="154.667" y="253.333" type="line"/>
      <point x="37.6667" y="253.333" type="line" name="n08"/>
      <point x="23.6667" y="176.667" type="line" name="n09"/>
      <point x="121.667" y="176.667" type="line"/>
      <point x="49" y="0" type="line" name="n11"/>
      <point x="159" y="0" type="line"/>
      <point x="231.667" y="176.667" type="line"/>
      <point x="358.333" y="176.667" type="line"/>
      <point x="285.667" y="0" type="line"/>
      <point x="395.667" y="0" type="line"/>
      <point x="468.333" y="176.667" type="line"/>
      <point x="590.333" y="176.667" type="line"/>
      <point x="604.333" y="253.333" type="line"/>
      <point x="501.333" y="253.333" type="line"/>
      <point x="581" y="446.667" type="line"/>
      <point x="697.333" y="446.667" type="line"/>
      <point x="710.667" y="523.333" type="line" name="n23"/>
      <point x="611.667" y="523.333" type="line"/>
      <point x="685.333" y="700" type="line"/>
      <point x="575.333" y="700" type="line"/>
      <point x="501.667" y="523.333" type="line"/>
    </contour>
    <contour>
      <point x="264.667" y="253.333" type="line"/>
      <point x="344.333" y="446.667" type="line"/>
      <point x="471" y="446.667" type="line"/>
      <point x="391.333" y="253.333" type="line"/>
    </contour>
  </outline>
</glyph>
<glyph name="dollar" format="2">
  <advance width="508"/>
  <unicode hex="0024"/>
  <outline>
    <contour>
      <point x="153.667" y="-70" type="line" name="hr04"/>
      <point x="268.667" y="-70" type="line" name="n01"/>
      <point x="281" y="-3.33333" type="line"/>
      <point x="396" y="17.6667"/>
      <point x="466.333" y="88.6667"/>
      <point x="484.667" y="190" type="curve" smooth="yes"/>
      <point x="524.667" y="411.667"/>
      <point x="194.667" y="377"/>
      <point x="221.333" y="530" type="curve" smooth="yes"/>
      <point x="231.333" y="584.333"/>
      <point x="287.667" y="633.333"/>
      <point x="357.667" y="633.333" type="curve" smooth="yes" name="n11"/>
      <point x="403.333" y="633.333"/>
      <point x="436" y="621.333"/>
      <point x="458.333" y="610.333" type="curve"/>
      <point x="471" y="603.333"/>
      <point x="481" y="596.333"/>
      <point x="489.667" y="588.333" type="curve"/>
      <point x="499.667" y="588.333" type="line"/>
      <point x="550" y="655" type="line"/>
      <point x="541" y="662.667"/>
      <point x="529" y="670.333"/>
      <point x="515.333" y="677.333" type="curve" smooth="yes"/>
      <point x="491.667" y="689"/>
      <point x="456" y="702"/>
      <point x="405.667" y="707" type="curve" name="n25"/>
      <point x="416.667" y="770" type="line" name="hr02"/>
      <point x="301.667" y="770" type="line" name="n27"/>
      <point x="289.667" y="702" type="line"/>
      <point x="189" y="678.333"/>
      <point x="121.667" y="609.333"/>
      <point x="106" y="520" type="curve" smooth="yes"/>
      <point x="66.6667" y="298.333"/>
      <point x="396.333" y="333"/>
      <point x="369.333" y="180" type="curve" smooth="yes"/>
      <point x="357.667" y="112.667"/>
      <point x="303.667" y="66.6667"/>
      <point x="216.333" y="66.6667" type="curve" smooth="yes" name="n37"/>
      <point x="168.667" y="66.6667"/>
      <point x="133.333" y="77.6667"/>
      <point x="109.667" y="88.6667" type="curve"/>
      <point x="96" y="95.6667"/>
      <point x="84.6667" y="102.667"/>
      <point x="74.3333" y="111.667" type="curve"/>
      <point x="64.3333" y="111.667" type="line"/>
      <point x="13.6667" y="45" type="line"/>
      <point x="24" y="38"/>
      <point x="36" y="30.3333"/>
      <point x="50.6667" y="23.3333" type="curve" smooth="yes"/>
      <point x="75.3333" y="11.6667"/>
      <point x="112.333" y="-1.33333"/>
      <point x="165" y="-6.33333" type="curve" name="n51"/>
    </contour>
  </outline>
</glyph>
<glyph name="percent" format="2">
  <advance width="817"/>
  <unicode hex="0025"/>
  <outline>
    <contour>
      <point x="227.667" y="350" type="curve" smooth="yes" name="n00"/>
      <point x="325" y="350"/>
      <point x="405" y="418"/>
      <point x="424.667" y="530" type="curve" smooth="yes"/>
      <point x="444.333" y="642"/>
      <point x="389" y="710"/>
      <point x="291.667" y="710" type="curve" smooth="yes" name="n06"/>
      <point x="194" y="710"/>
      <point x="114.333" y="642"/>
      <point x="94.6667" y="530" type="curve" smooth="yes"/>
      <point x="75" y="418"/>
      <point x="130.333" y="350"/>
    </contour>
    <contour>
      <point x="86.6667" y="0" type="line" name="n12"/>
      <point x="210" y="0" type="line"/>
      <point x="803" y="700" type="line" name="n14"/>
      <point x="679.667" y="700" type="line" name="hr01"/>
    </contour>
    <contour>
      <point x="239.667" y="416.667" type="curve" smooth="yes" name="n16"/>
      <point x="202.667" y="416.667"/>
      <point x="179.667" y="444.333"/>
      <point x="194.667" y="530" type="curve" smooth="yes"/>
      <point x="209.667" y="615.667"/>
      <point x="242.667" y="643.333"/>
      <point x="279.667" y="643.333" type="curve" smooth="yes" name="n22"/>
      <point x="316" y="643.333"/>
      <point x="339.667" y="614.333"/>
      <point x="324.667" y="530" type="curve" smooth="yes"/>
      <point x="309.667" y="444.333"/>
      <point x="276" y="416.667"/>
    </contour>
    <contour>
      <point x="598" y="-10" type="curve" smooth="yes" name="n28"/>
      <point x="695.333" y="-10"/>
      <point x="774.333" y="58"/>
      <point x="794" y="170" type="curve" smooth="yes"/>
      <point x="814.333" y="281.333"/>
      <point x="757.667" y="350"/>
      <point x="661" y="350" type="curve" smooth="yes" name="n34"/>
      <point x="563.667" y="350"/>
      <point x="484.333" y="282"/>
      <point x="464" y="170" type="curve" smooth="yes"/>
      <point x="444.333" y="58"/>
      <point x="500.667" y="-10"/>
    </contour>
    <contour>
      <point x="609.333" y="56.6667" type="curve" smooth="yes" name="n40"/>
      <point x="573" y="56.6667"/>
      <point x="549" y="84.3333"/>
      <point x="564" y="170" type="curve" smooth="yes"/>
      <point x="579.667" y="256"/>
      <point x="612.667" y="283.333"/>
      <point x="649.667" y="283.333" type="curve" smooth="yes" name="n46"/>
      <point x="686.667" y="283.333"/>
      <point x="709" y="254.333" name="hr03"/>
      <point x="694" y="170" type="curve" smooth="yes"/>
      <point x="679" y="84"/>
      <point x="647" y="56.6667"/>
    </contour>
  </outline>
</glyph>
<glyph name="ampersand" format="2">
  <advance width="625"/>
  <unicode hex="0026"/>
  <outline>
    <contour>
      <point x="216.543" y="-10" type="curve" smooth="yes" name="n00"/>
      <point x="290.208" y="-10"/>
      <point x="362.153" y="14.0404"/>
      <point x="424.333" y="56.6667" type="curve"/>
      <point x="461.667" y="0" type="line" name="n04"/>
      <point x="595" y="0" type="line" name="n05"/>
      <point x="510.667" y="128.333" type="line" name="n06"/>
      <point x="554.333" y="180.667"/>
      <point x="587.333" y="241"/>
      <point x="601" y="320" type="curve" name="n09"/>
      <point x="497.667" y="320" type="line"/>
      <point x="489.807" y="273.65"/>
      <point x="479.527" y="237.35"/>
      <point x="461.667" y="201.667" type="curve"/>
      <point x="350" y="371.667" type="line"/>
      <point x="425.111" y="413.711"/>
      <point x="520.438" y="491.932"/>
      <point x="520.438" y="586.386" type="curve" smooth="yes"/>
      <point x="520.438" y="656.908"/>
      <point x="465.932" y="710"/>
      <point x="369.033" y="710" type="curve" smooth="yes" name="n20"/>
      <point x="257.918" y="710"/>
      <point x="155.256" y="639.82"/>
      <point x="155.256" y="526.312" type="curve" smooth="yes"/>
      <point x="155.256" y="469.632"/>
      <point x="180.802" y="418.757"/>
      <point x="215.333" y="380" type="curve"/>
      <point x="124.977" y="330.119"/>
      <point x="29.491" y="257.749"/>
      <point x="29.491" y="146.826" type="curve" smooth="yes"/>
      <point x="29.491" y="54.4356"/>
      <point x="95.8173" y="-10" name="hr04"/>
    </contour>
    <contour>
      <point x="307" y="440" type="curve"/>
      <point x="288.422" y="465.985"/>
      <point x="269.786" y="503.74"/>
      <point x="269.786" y="538.397" type="curve" smooth="yes"/>
      <point x="269.786" y="584.593"/>
      <point x="302.324" y="638.333"/>
      <point x="354.122" y="638.333" type="curve" smooth="yes" name="n38"/>
      <point x="385.023" y="638.333"/>
      <point x="406.827" y="618.367"/>
      <point x="406.827" y="580.497" type="curve" smooth="yes"/>
      <point x="406.827" y="521.373"/>
      <point x="354.595" y="470.138"/>
    </contour>
    <contour>
      <point x="256.313" y="66.6667" type="curve" smooth="yes" name="n44"/>
      <point x="182.959" y="66.6667"/>
      <point x="144.182" y="104.141"/>
      <point x="144.182" y="158.828" type="curve" smooth="yes"/>
      <point x="144.182" y="227.033"/>
      <point x="202.163" y="276.563"/>
      <point x="255.667" y="310" type="curve"/>
      <point x="386" y="111.667" type="line"/>
      <point x="347.953" y="80"/>
      <point x="300.132" y="66.6667"/>
    </contour>
  </outline>
</glyph>
<glyph name="quotesingle" format="2">
  <advance width="192"/>
  <unicode hex="0027"/>
  <outline>
    <contour>
      <point x="136.333" y="700" type="line" name="n00"/>
      <point x="115.667" y="458.333" type="line" name="n01"/>
      <point x="187.333" y="458.333" type="line"/>
      <point x="251.333" y="700" type="line" name="n03"/>
    </contour>
  </outline>
</glyph>
<glyph name="parenleft" format="2">
  <advance width="297"/>
  <unicode hex="0028"/>
  <outline>
    <contour>
      <point x="125.667" y="280" type="curve" smooth="yes"/>
      <point x="117" y="226"/>
      <point x="161.667" y="155"/>
      <point x="264.667" y="113.333" type="curve"/>
      <point x="281" y="158.333" type="line" name="n04"/>
      <point x="192.667" y="200"/>
      <point x="137" y="230.333"/>
      <point x="145.667" y="280" type="curve" smooth="yes"/>
      <point x="154.667" y="331"/>
      <point x="221.333" y="359"/>
      <point x="323.667" y="401.667" type="curve" name="n10"/>
      <point x="323.333" y="446.667" type="line"/>
      <point x="206.333" y="405"/>
      <point x="134.333" y="334"/>
    </contour>
  </outline>
</glyph>
<glyph name="parenright" format="2">
  <advance width="297"/>
  <unicode hex="0029"/>
  <outline>
    <contour>
      <point x="219" y="280" type="curve" smooth="yes"/>
      <point x="227.667" y="334"/>
      <point x="182.667" y="405"/>
      <point x="80.3333" y="446.667" type="curve"/>
      <point x="63.6667" y="401.667" type="line" name="n04"/>
      <point x="151.667" y="359.667"/>
      <point x="206.667" y="329.667"/>
      <point x="199" y="280" type="curve"/>
      <point x="189" y="229"/>
      <point x="124" y="201"/>
      <point x="21.6667" y="158.333" type="curve" name="n10"/>
      <point x="21.3333" y="113.333" type="line"/>
      <point x="138" y="155"/>
      <point x="210.333" y="226"/>
    </contour>
  </outline>
</glyph>
<glyph name="asterisk" format="2">
  <advance width="420"/>
  <unicode hex="002A"/>
  <outline>
    <contour>
      <point x="222.333" y="660" type="line" name="n00"/>
      <point x="162.333" y="620" type="line"/>
      <point x="218.667" y="544" type="line"/>
      <point x="112" y="523.333" type="line"/>
      <point x="108.333" y="456.667" type="line"/>
      <point x="214.333" y="478.333" type="line"/>
      <point x="164.667" y="380" type="line" name="n06"/>
      <point x="221.667" y="353.333" type="line"/>
      <point x="273" y="452.333" type="line"/>
      <point x="329.333" y="376.667" type="line"/>
      <point x="390" y="416.667" type="line"/>
      <point x="333" y="492.333" type="line"/>
      <point x="440.333" y="513.333" type="line"/>
      <point x="443.333" y="580" type="line"/>
      <point x="337.667" y="558.333" type="line"/>
      <point x="387" y="656.667" type="line" name="n15"/>
      <point x="330" y="683.333" type="line"/>
      <point x="279.333" y="584" type="line"/>
    </contour>
  </outline>
</glyph>
<glyph name="plus" format="2">
  <advance width="477"/>
  <unicode hex="002B"/>
  <outline>
    <contour>
      <point x="191.333" y="121.667" type="line"/>
      <point x="278" y="121.667" type="line"/>
      <point x="307" y="286.667" type="line" name="n02"/>
      <point x="472" y="286.667" type="line"/>
      <point x="487.333" y="373.333" type="line" name="n04"/>
      <point x="322.333" y="373.333" type="line" name="n05"/>
      <point x="351.333" y="538.333" type="line"/>
      <point x="264.667" y="538.333" type="line"/>
      <point x="235.667" y="373.333" type="line"/>
      <point x="70.6667" y="373.333" type="line"/>
      <point x="55.3333" y="286.667" type="line" name="n10"/>
      <point x="220.333" y="286.667" type="line"/>
    </contour>
  </outline>
</glyph>
<glyph name="comma" format="2">
  <advance width="207"/>
  <unicode hex="002C"/>
  <outline>
    <contour>
      <point x="22.3333" y="55" type="curve" smooth="yes"/>
      <point x="15.3333" y="18.3333"/>
      <point x="39" y="-10" name="n02"/>
      <point x="73" y="-10" type="curve"/>
      <point x="68.6667" y="-33.6667"/>
      <point x="50.3333" y="-54"/>
      <point x="33.3333" y="-69.6667" type="curve"/>
      <point x="23" y="-78.6667"/>
      <point x="11.3333" y="-87.3333"/>
      <point x="-0.333333" y="-95" type="curve"/>
      <point x="23.3333" y="-131.667" type="line"/>
      <point x="43.3333" y="-121"/>
      <point x="61.6667" y="-107"/>
      <point x="78.6667" y="-90" type="curve" smooth="yes"/>
      <point x="107.667" y="-61.6667"/>
      <point x="139.333" y="-18.6667"/>
      <point x="151" y="45" type="curve" smooth="yes"/>
      <point x="158.667" y="92"/>
      <point x="135.667" y="120"/>
      <point x="94" y="120" type="curve" smooth="yes"/>
      <point x="61.6667" y="120"/>
      <point x="29.6667" y="91.6667"/>
    </contour>
  </outline>
</glyph>
<glyph name="hyphen" format="2">
  <advance width="443"/>
  <unicode hex="002D"/>
  <outline>
    <contour>
      <point x="55.3333" y="286.667" type="line" name="n00"/>
      <point x="438.667" y="286.667" type="line"/>
      <point x="454" y="373.333" type="line" name="n02"/>
      <point x="70.6667" y="373.333" type="line" name="n03"/>
    </contour>
  </outline>
</glyph>
<glyph name="period" format="2">
  <advance width="207"/>
  <unicode hex="002E"/>
  <outline>
    <contour>
      <point x="51.6667" y="80" type="curve" smooth="yes" name="n00"/>
      <point x="33.6667" y="56.6667"/>
      <point x="35" y="28.3333"/>
      <point x="55.6667" y="15" type="curve" smooth="yes"/>
      <point x="76.6667" y="1.66667"/>
      <point x="105" y="6.66667"/>
      <point x="123" y="30" type="curve" smooth="yes" name="n06"/>
      <point x="141" y="53.3333"/>
      <point x="140.333" y="81.6667"/>
      <point x="119.667" y="95" type="curve" smooth="yes"/>
      <point x="98.6667" y="108.333"/>
      <point x="69.6667" y="103.333"/>
    </contour>
  </outline>
</glyph>
<glyph name="slash" format="2">
  <advance width="423"/>
  <unicode hex="002F"/>
  <outline>
    <contour>
      <point x="408" y="700" type="line" name="n00"/>
      <point x="-25" y="0" type="line" name="n01"/>
      <point x="88.3333" y="0" type="line"/>
      <point x="521.333" y="700" type="line" name="n03"/>
    </contour>
  </outline>
</glyph>
<glyph name="zero" format="2">
  <advance width="590"/>
  <unicode hex="0030"/>
  <outline>
    <contour>
      <point x="268" y="-10" type="curve" smooth="yes" name="n00"/>
      <point x="407.333" y="-10"/>
      <point x="527.667" y="91.6667"/>
      <point x="572.667" y="350" type="curve" smooth="yes"/>
      <point x="617.667" y="608.333"/>
      <point x="535.667" y="710"/>
      <point x="395" y="710" type="curve" smooth="yes" name="n06"/>
      <point x="255.333" y="710"/>
      <point x="134.333" y="608.333"/>
      <point x="89.3333" y="350" type="curve" smooth="yes"/>
      <point x="44.3333" y="91.6667"/>
      <point x="127.333" y="-10"/>
    </contour>
    <contour>
      <point x="281.333" y="66.6667" type="curve" smooth="yes" name="n12"/>
      <point x="210.333" y="66.6667"/>
      <point x="163.667" y="125.667"/>
      <point x="202.667" y="350" type="curve" smooth="yes"/>
      <point x="241.667" y="574.333"/>
      <point x="311.333" y="633.333"/>
      <point x="381" y="633.333" type="curve" smooth="yes" name="n18"/>
      <point x="452" y="633.333"/>
      <point x="498.333" y="574.333"/>
      <point x="459.333" y="350" type="curve" smooth="yes"/>
      <point x="420.333" y="125.667"/>
      <point x="351" y="66.6667"/>
    </contour>
  </outline>
</glyph>
<glyph name="one" format="2">
  <advance width="397"/>
  <unicode hex="0031"/>
  <outline>
    <contour>
      <point x="25" y="0" type="line" name="n00"/>
      <point x="351.667" y="0" type="line"/>
      <point x="364.667" y="76.6667" type="line"/>
      <point x="258" y="76.6667" type="line"/>
      <point x="368" y="700" type="line" name="n04"/>
      <point x="264.667" y="700" type="line"/>
      <point x="95.3333" y="580" type="line"/>
      <point x="129.333" y="518.333" type="line"/>
      <point x="233.667" y="580" type="line"/>
      <point x="144.667" y="76.6667" type="line"/>
      <point x="38" y="76.6667" type="line" name="n10"/>
    </contour>
  </outline>
</glyph>
<glyph name="two" format="2">
  <advance width="505"/>
  <unicode hex="0032"/>
  <outline>
    <contour>
      <point x="1.66667" y="0" type="line"/>
      <point x="438.333" y="0" type="line" name="n01"/>
      <point x="451.333" y="76.6667" type="line" name="n02"/>
      <point x="128" y="76.6667" type="line"/>
      <point x="152" y="216.667"/>
      <point x="492.667" y="313.667"/>
      <point x="528.667" y="516.667" type="curve" smooth="yes"/>
      <point x="548.333" y="630"/>
      <point x="483.333" y="710"/>
      <point x="331.667" y="710" type="curve" smooth="yes" name="n09"/>
      <point x="265.667" y="710"/>
      <point x="214" y="697"/>
      <point x="178.333" y="682" type="curve"/>
      <point x="157" y="674"/>
      <point x="138.667" y="665"/>
      <point x="123.333" y="655" type="curve"/>
      <point x="149.667" y="588.333" type="line"/>
      <point x="159.667" y="588.333" type="line"/>
      <point x="170.667" y="596.333"/>
      <point x="184" y="603.333"/>
      <point x="199" y="610.333" type="curve"/>
      <point x="225.333" y="621.333"/>
      <point x="261.667" y="633.333"/>
      <point x="307.667" y="633.333" type="curve" smooth="yes" name="n23"/>
      <point x="389.667" y="633.333"/>
      <point x="428.333" y="586.667"/>
      <point x="417.333" y="526.667" type="curve" smooth="yes"/>
      <point x="386.667" y="360"/>
      <point x="51" y="280"/>
      <point x="13.6667" y="70" type="curve" smooth="yes"/>
    </contour>
  </outline>
</glyph>
<glyph name="three" format="2">
  <advance width="507"/>
  <unicode hex="0033"/>
  <outline>
    <contour>
      <point x="183" y="-10" type="curve" smooth="yes" name="n00"/>
      <point x="360" y="-10"/>
      <point x="456" y="71"/>
      <point x="478.333" y="200" type="curve" smooth="yes"/>
      <point x="500.667" y="327.333"/>
      <point x="434.333" y="413.333"/>
      <point x="269.333" y="413.333" type="curve"/>
      <point x="529.667" y="623.333" type="line" name="n07"/>
      <point x="543" y="700" type="line" name="n08"/>
      <point x="124.667" y="700" type="line"/>
      <point x="111.333" y="623.333" type="line"/>
      <point x="396.333" y="623.333" type="line"/>
      <point x="139.333" y="413.333" type="line" name="n12"/>
      <point x="125.333" y="336.667" type="line" name="n13"/>
      <point x="233.667" y="336.667" type="line" smooth="yes"/>
      <point x="341" y="336.667"/>
      <point x="380.667" y="289"/>
      <point x="365" y="200" type="curve" smooth="yes"/>
      <point x="350" y="114"/>
      <point x="293.667" y="66.6667"/>
      <point x="186.333" y="66.6667" type="curve" smooth="yes" name="n20"/>
      <point x="140.333" y="66.6667"/>
      <point x="108" y="77.6667"/>
      <point x="85.6667" y="88.6667" type="curve"/>
      <point x="73" y="95.6667"/>
      <point x="63" y="102.667"/>
      <point x="54.3333" y="111.667" type="curve"/>
      <point x="44.3333" y="111.667" type="line"/>
      <point x="-6.33333" y="45" type="line"/>
      <point x="6" y="34"/>
      <point x="21" y="25"/>
      <point x="38.6667" y="17" type="curve" smooth="yes"/>
      <point x="70" y="2"/>
      <point x="117" y="-10"/>
    </contour>
  </outline>
</glyph>
<glyph name="four" format="2">
  <advance width="547"/>
  <unicode hex="0034"/>
  <outline>
    <contour>
      <point x="311.667" y="0" type="line" name="n00"/>
      <point x="425" y="0" type="line"/>
      <point x="453.667" y="166.667" type="line" name="n02"/>
      <point x="530.333" y="166.667" type="line"/>
      <point x="544.333" y="243.333" type="line"/>
      <point x="467.667" y="243.333" type="line" name="n05"/>
      <point x="548" y="700" type="line" name="n06"/>
      <point x="438" y="700" type="line"/>
      <point x="27.6667" y="243.333" type="line"/>
      <point x="13.6667" y="166.667" type="line" name="n09"/>
      <point x="340.333" y="166.667" type="line"/>
    </contour>
    <contour>
      <point x="147.667" y="243.333" type="line"/>
      <point x="365.667" y="486.667" type="line" smooth="yes"/>
      <point x="377" y="499"/>
      <point x="387.667" y="515.333"/>
      <point x="397.333" y="529.333" type="curve" smooth="yes"/>
      <point x="413.333" y="553.333" type="line"/>
      <point x="417.333" y="553.333" type="line"/>
      <point x="408.667" y="529.667" type="line" smooth="yes"/>
      <point x="404" y="516"/>
      <point x="400.333" y="499.667"/>
      <point x="397.333" y="486.667" type="curve"/>
      <point x="354.333" y="243.333" type="line"/>
    </contour>
  </outline>
</glyph>
<glyph name="five" format="2">
  <advance width="517"/>
  <unicode hex="0035"/>
  <outline>
    <contour>
      <point x="199.667" y="-10" type="curve" smooth="yes" name="n00"/>
      <point x="371" y="-10"/>
      <point x="465.667" y="71"/>
      <point x="490.333" y="211.667" type="curve" smooth="yes"/>
      <point x="514.667" y="352.333"/>
      <point x="448" y="433.333"/>
      <point x="282.333" y="433.333" type="curve" smooth="yes"/>
      <point x="225.667" y="433.333" type="line" name="n07"/>
      <point x="260.333" y="626.667" type="line"/>
      <point x="534.333" y="626.667" type="line" name="n09"/>
      <point x="547" y="700" type="line" name="n10"/>
      <point x="159.667" y="700" type="line"/>
      <point x="104.667" y="390.333" type="line"/>
      <point x="132" y="356.667" type="line"/>
      <point x="254" y="356.667" type="line" smooth="yes" name="n14"/>
      <point x="354" y="356.667"/>
      <point x="393.667" y="308.333"/>
      <point x="377" y="211.667" type="curve" smooth="yes"/>
      <point x="360" y="115"/>
      <point x="301.667" y="66.6667"/>
      <point x="203" y="66.6667" type="curve" smooth="yes" name="n20"/>
      <point x="157" y="66.6667"/>
      <point x="124.667" y="77.6667"/>
      <point x="102.333" y="88.6667" type="curve"/>
      <point x="89.6667" y="95.6667"/>
      <point x="79.6667" y="102.667"/>
      <point x="71" y="111.667" type="curve"/>
      <point x="61" y="111.667" type="line"/>
      <point x="10.3333" y="45" type="line"/>
      <point x="22.6667" y="34"/>
      <point x="37.6667" y="25"/>
      <point x="55.3333" y="17" type="curve" smooth="yes"/>
      <point x="86.6667" y="2"/>
      <point x="133.667" y="-10"/>
    </contour>
  </outline>
</glyph>
<glyph name="six" format="2">
  <advance width="543"/>
  <unicode hex="0036"/>
  <outline>
    <contour>
      <point x="257.333" y="-10" type="curve" smooth="yes" name="n00"/>
      <point x="397" y="-10"/>
      <point x="492.333" y="70.6667"/>
      <point x="520" y="230" type="curve" smooth="yes"/>
      <point x="545" y="372.333"/>
      <point x="478.667" y="453.333"/>
      <point x="344.667" y="453.333" type="curve" smooth="yes" name="n06"/>
      <point x="306.333" y="453.333"/>
      <point x="272.667" y="444.667"/>
      <point x="249.667" y="435" type="curve" smooth="yes"/>
      <point x="236" y="429.333"/>
      <point x="223.667" y="423"/>
      <point x="213" y="416.667" type="curve"/>
      <point x="240.333" y="577.333"/>
      <point x="308.333" y="633.333"/>
      <point x="389.333" y="633.333" type="curve" smooth="yes" name="n15"/>
      <point x="428.333" y="633.333"/>
      <point x="458.333" y="621.333"/>
      <point x="478.333" y="610.333" type="curve" smooth="yes"/>
      <point x="490.333" y="603.333"/>
      <point x="500.333" y="596.333"/>
      <point x="508.333" y="588.333" type="curve"/>
      <point x="518.333" y="588.333" type="line"/>
      <point x="568.667" y="655" type="line"/>
      <point x="557" y="665"/>
      <point x="542.667" y="674"/>
      <point x="525.333" y="682" type="curve"/>
      <point x="496.333" y="697"/>
      <point x="452.333" y="710"/>
      <point x="393.333" y="710" type="curve" smooth="yes" name="n29"/>
      <point x="245" y="710"/>
      <point x="135" y="616"/>
      <point x="99.6667" y="416.667" type="curve" smooth="yes"/>
      <point x="66.6667" y="230" type="line" smooth="yes"/>
      <point x="39" y="70.6667"/>
      <point x="105.667" y="-10"/>
    </contour>
    <contour>
      <point x="269.667" y="66.6667" type="curve" smooth="yes" name="n36"/>
      <point x="199.667" y="66.6667"/>
      <point x="159.667" y="115"/>
      <point x="180" y="230" type="curve" smooth="yes"/>
      <point x="199" y="340" type="line"/>
      <point x="208.667" y="346.333"/>
      <point x="219" y="352.667"/>
      <point x="230.667" y="358.333" type="curve" smooth="yes"/>
      <point x="251" y="368"/>
      <point x="278" y="376.667"/>
      <point x="309.667" y="376.667" type="curve" smooth="yes" name="n46"/>
      <point x="384.667" y="376.667"/>
      <point x="425" y="328.667"/>
      <point x="406.667" y="230" type="curve" smooth="yes"/>
      <point x="386.333" y="115"/>
      <point x="330" y="66.6667"/>
    </contour>
  </outline>
</glyph>
<glyph name="seven" format="2">
  <advance width="453"/>
  <unicode hex="0037"/>
  <outline>
    <contour>
      <point x="118.333" y="0" type="line" name="n00"/>
      <point x="231.667" y="0" type="line"/>
      <point x="246.667" y="90" type="line" smooth="yes"/>
      <point x="286.667" y="319"/>
      <point x="419" y="514.333"/>
      <point x="528" y="623.333" type="curve" name="n05"/>
      <point x="541.333" y="700" type="line" name="n06"/>
      <point x="101.333" y="700" type="line"/>
      <point x="88" y="623.333" type="line" name="n08"/>
      <point x="408" y="623.333" type="line"/>
      <point x="299" y="514.333"/>
      <point x="173.333" y="319"/>
      <point x="133.333" y="90" type="curve" smooth="yes"/>
    </contour>
  </outline>
</glyph>
<glyph name="eight" format="2">
  <advance width="560"/>
  <unicode hex="0038"/>
  <outline>
    <contour>
      <point x="253" y="-10" type="curve" smooth="yes" name="n00"/>
      <point x="409.333" y="-10"/>
      <point x="514" y="78.3333"/>
      <point x="531" y="180" type="curve" smooth="yes"/>
      <point x="544.333" y="257.333"/>
      <point x="514.333" y="304.333"/>
      <point x="480" y="333" type="curve" smooth="yes"/>
      <point x="459.667" y="350"/>
      <point x="435.667" y="362"/>
      <point x="408.333" y="370" type="curve"/>
      <point x="433.333" y="377.667"/>
      <point x="456.667" y="388.667"/>
      <point x="478" y="403.333" type="curve" smooth="yes"/>
      <point x="515" y="428"/>
      <point x="553.667" y="469"/>
      <point x="565.667" y="535" type="curve" smooth="yes"/>
      <point x="581.667" y="628.667"/>
      <point x="516.333" y="710"/>
      <point x="380" y="710" type="curve" smooth="yes" name="n18"/>
      <point x="245.667" y="710"/>
      <point x="148.333" y="628.667"/>
      <point x="132.333" y="535" type="curve" smooth="yes"/>
      <point x="120.333" y="469"/>
      <point x="144.667" y="428"/>
      <point x="173" y="403.333" type="curve" smooth="yes"/>
      <point x="189.333" y="388.667"/>
      <point x="209" y="377.667"/>
      <point x="231.667" y="370" type="curve"/>
      <point x="201.333" y="362"/>
      <point x="173" y="350"/>
      <point x="146.667" y="333" type="curve" smooth="yes"/>
      <point x="102.333" y="305"/>
      <point x="56" y="257"/>
      <point x="41" y="180" type="curve"/>
      <point x="24" y="78.3333"/>
      <point x="96" y="-10"/>
    </contour>
    <contour>
      <point x="327.667" y="415" type="curve"/>
      <point x="273" y="433.667"/>
      <point x="232.667" y="467.667"/>
      <point x="245.667" y="535" type="curve" smooth="yes"/>
      <point x="255.667" y="587.333"/>
      <point x="309" y="633.333"/>
      <point x="366" y="633.333" type="curve" smooth="yes" name="n42"/>
      <point x="423" y="633.333"/>
      <point x="462.333" y="587.333"/>
      <point x="452.333" y="535" type="curve" smooth="yes"/>
      <point x="439.667" y="468"/>
      <point x="389.667" y="433.667"/>
    </contour>
    <contour>
      <point x="266.333" y="66.6667" type="curve" smooth="yes" name="n48"/>
      <point x="180.333" y="66.6667"/>
      <point x="142.667" y="112.667"/>
      <point x="154.333" y="180" type="curve" smooth="yes"/>
      <point x="167.333" y="260"/>
      <point x="235.667" y="297.667"/>
      <point x="312" y="325" type="curve"/>
      <point x="379" y="297"/>
      <point x="430.667" y="260"/>
      <point x="417.667" y="180" type="curve" smooth="yes"/>
      <point x="406" y="112.667"/>
      <point x="352.333" y="66.6667"/>
    </contour>
  </outline>
</glyph>
<glyph name="nine" format="2">
  <advance width="543"/>
  <unicode hex="0039"/>
  <outline>
    <contour>
      <point x="223" y="-10" type="curve" smooth="yes" name="n00"/>
      <point x="371.667" y="-10"/>
      <point x="481" y="83.3333"/>
      <point x="516.333" y="283.333" type="curve" smooth="yes"/>
      <point x="548.667" y="470" type="line" smooth="yes"/>
      <point x="577.333" y="629.333"/>
      <point x="510.667" y="710"/>
      <point x="359" y="710" type="curve" smooth="yes" name="n07"/>
      <point x="219.333" y="710"/>
      <point x="124" y="629.333"/>
      <point x="95.3333" y="470" type="curve"/>
      <point x="71" y="327.667"/>
      <point x="137.333" y="246.667"/>
      <point x="271.667" y="246.667" type="curve" smooth="yes" name="n13"/>
      <point x="310" y="246.667"/>
      <point x="342.667" y="255"/>
      <point x="365.667" y="265" type="curve"/>
      <point x="379" y="270.333"/>
      <point x="391.333" y="276.667"/>
      <point x="403" y="283.333" type="curve"/>
      <point x="375.667" y="122.667"/>
      <point x="307.667" y="66.6667"/>
      <point x="226.333" y="66.6667" type="curve" smooth="yes" name="n22"/>
      <point x="186" y="66.6667"/>
      <point x="157.333" y="77.6667"/>
      <point x="137.333" y="88.6667" type="curve" smooth="yes"/>
      <point x="125.333" y="95.6667"/>
      <point x="115.333" y="102.667"/>
      <point x="107.333" y="111.667" type="curve"/>
      <point x="97.3333" y="111.667" type="line"/>
      <point x="46.6667" y="45" type="line"/>
      <point x="58.3333" y="34"/>
      <point x="73" y="25"/>
      <point x="90.3333" y="17" type="curve"/>
      <point x="119.333" y="2"/>
      <point x="162.333" y="-10"/>
    </contour>
    <contour>
      <point x="306.667" y="323.333" type="curve" smooth="yes" name="n36"/>
      <point x="231.667" y="323.333"/>
      <point x="192" y="371.333"/>
      <point x="208.667" y="470" type="curve" smooth="yes"/>
      <point x="229" y="585"/>
      <point x="286" y="633.333"/>
      <point x="346" y="633.333" type="curve" smooth="yes" name="n42"/>
      <point x="416.667" y="633.333"/>
      <point x="455.667" y="585"/>
      <point x="435.333" y="470" type="curve" smooth="yes"/>
      <point x="416.333" y="360" type="line"/>
      <point x="407.333" y="353.333"/>
      <point x="396.667" y="347"/>
      <point x="385.333" y="341.667" type="curve" smooth="yes"/>
      <point x="365" y="331.667"/>
      <point x="338.333" y="323.333"/>
    </contour>
  </outline>
</glyph>
<glyph name="colon" format="2">
  <advance width="207"/>
  <unicode hex="003A"/>
  <outline>
    <contour>
      <point x="120.667" y="470" type="curve" smooth="yes" name="n00"/>
      <point x="102.667" y="446.667"/>
      <point x="103.333" y="418.333"/>
      <point x="124" y="405" type="curve" smooth="yes"/>
      <point x="145" y="391.667"/>
      <point x="174" y="396.667"/>
      <point x="192" y="420" type="curve" smooth="yes" name="n06"/>
      <point x="210" y="443.333"/>
      <point x="208.667" y="471.667"/>
      <point x="188" y="485" type="curve" smooth="yes"/>
      <point x="167" y="498.333"/>
      <point x="138.667" y="493.333"/>
    </contour>
    <contour>
      <point x="51.6667" y="80" type="curve" smooth="yes" name="n12"/>
      <point x="33.6667" y="56.6667"/>
      <point x="35" y="28.3333"/>
      <point x="55.6667" y="15" type="curve" smooth="yes"/>
      <point x="76.6667" y="1.66667"/>
      <point x="105" y="6.66667" name="n17"/>
      <point x="123" y="30" type="curve" smooth="yes" name="n18"/>
      <point x="141" y="53.3333"/>
      <point x="140.333" y="81.6667"/>
      <point x="119.667" y="95" type="curve" smooth="yes"/>
      <point x="98.6667" y="108.333"/>
      <point x="69.6667" y="103.333"/>
    </contour>
  </outline>
</glyph>
<glyph name="semicolon" format="2">
  <advance width="207"/>
  <unicode hex="003B"/>
  <outline>
    <contour>
      <point x="120.667" y="470" type="curve" smooth="yes" name="n00"/>
      <point x="102.667" y="446.667"/>
      <point x="103.333" y="418.333"/>
      <point x="124" y="405" type="curve" smooth="yes"/>
      <point x="145" y="391.667"/>
      <point x="174" y="396.667"/>
      <point x="192" y="420" type="curve" smooth="yes" name="n06"/>
      <point x="210" y="443.333"/>
      <point x="208.667" y="471.667"/>
      <point x="188" y="485" type="curve" smooth="yes"/>
      <point x="167" y="498.333"/>
      <point x="138.667" y="493.333"/>
    </contour>
    <contour>
      <point x="22.3333" y="55" type="curve" smooth="yes"/>
      <point x="15.3333" y="18.3333"/>
      <point x="39" y="-10" name="n14"/>
      <point x="73" y="-10" type="curve"/>
      <point x="68.6667" y="-33.6667"/>
      <point x="50.3333" y="-54"/>
      <point x="33.3333" y="-69.6667" type="curve"/>
      <point x="23" y="-78.6667"/>
      <point x="11.3333" y="-87.3333"/>
      <point x="-0.333333" y="-95" type="curve"/>
      <point x="23.3333" y="-131.667" type="line"/>
      <point x="43.3333" y="-121"/>
      <point x="61.6667" y="-107"/>
      <point x="78.6667" y="-90" type="curve" smooth="yes"/>
      <point x="107.667" y="-61.6667"/>
      <point x="139.333" y="-18.6667"/>
      <point x="151" y="45" type="curve" smooth="yes"/>
      <point x="158.667" y="92"/>
      <point x="135.667" y="120"/>
      <point x="94" y="120" type="curve" smooth="yes"/>
      <point x="61.6667" y="120"/>
      <point x="29.6667" y="91.6667"/>
    </contour>
  </outline>
</glyph>
<glyph name="less" format="2">
  <advance width="465"/>
  <unicode hex="003C"/>
  <outline>
    <contour>
      <point x="401.667" y="0" type="line" name="n00"/>
      <point x="419.333" y="103.333" type="line"/>
      <point x="175.667" y="250" type="line"/>
      <point x="471.333" y="396.667" type="line"/>
      <point x="489.667" y="500" type="line" name="n04"/>
      <point x="58.6667" y="286.667" type="line"/>
      <point x="45.3333" y="213.333" type="line" name="n06"/>
    </contour>
  </outline>
</glyph>
<glyph name="equal" format="2">
  <advance width="483"/>
  <unicode hex="003D"/>
  <outline>
    <contour>
      <point x="76.6667" y="378.667" type="line" name="n00"/>
      <point x="490" y="378.667" type="line"/>
      <point x="505" y="465.333" type="line" name="n02"/>
      <point x="91.6667" y="465.333" type="line" name="n03"/>
    </contour>
    <contour>
      <point x="44" y="195" type="line" name="n04"/>
      <point x="457.333" y="195" type="line"/>
      <point x="472.667" y="281.667" type="line"/>
      <point x="59.3333" y="281.667" type="line" name="n07"/>
    </contour>
  </outline>
</glyph>
<glyph name="greater" format="2">
  <advance width="448"/>
  <unicode hex="003E"/>
  <outline>
    <contour>
      <point x="10" y="0" type="line" name="n00"/>
      <point x="440.333" y="213.333" type="line"/>
      <point x="453.667" y="286.667" type="line" name="n02"/>
      <point x="98" y="500" type="line" name="n03"/>
      <point x="79.6667" y="396.667" type="line"/>
      <point x="324" y="250" type="line"/>
      <point x="27.6667" y="103.333" type="line"/>
    </contour>
  </outline>
</glyph>
<glyph name="question" format="2">
  <advance width="470"/>
  <unicode hex="003F"/>
  <outline>
    <contour>
      <point x="141.333" y="186.667" type="line"/>
      <point x="244.667" y="186.667" type="line"/>
      <point x="251" y="223.333" type="line" smooth="yes"/>
      <point x="261.344" y="279.605"/>
      <point x="307.358" y="310.042"/>
      <point x="357.125" y="342.945" type="curve" smooth="yes"/>
      <point x="439.035" y="397.036"/>
      <point x="500.895" y="450.797"/>
      <point x="500.895" y="547.226" type="curve" smooth="yes" name="n08"/>
      <point x="500.895" y="647.079"/>
      <point x="434.618" y="710"/>
      <point x="297.758" y="710" type="curve" smooth="yes" name="n11"/>
      <point x="228.495" y="710"/>
      <point x="149.621" y="693.883"/>
      <point x="90" y="655" type="curve" name="n14"/>
      <point x="116.333" y="588.333" type="line"/>
      <point x="126.333" y="588.333" type="line"/>
      <point x="166.642" y="617.649"/>
      <point x="225.531" y="633.333"/>
      <point x="273.608" y="633.333" type="curve" smooth="yes" name="n19"/>
      <point x="348.888" y="633.333"/>
      <point x="387.963" y="596.242"/>
      <point x="387.963" y="542.553" type="curve" smooth="yes"/>
      <point x="387.963" y="477.113"/>
      <point x="329.834" y="432.627"/>
      <point x="278.093" y="395.298" type="curve" smooth="yes"/>
      <point x="222.62" y="355.321"/>
      <point x="163.821" y="312.954"/>
      <point x="147.667" y="223.333" type="curve" smooth="yes"/>
    </contour>
    <contour>
      <point x="103.454" y="43.6295" type="curve" smooth="yes"/>
      <point x="103.454" y="12.1947"/>
      <point x="126.26" y="-10" name="n31"/>
      <point x="158.667" y="-10" type="curve" smooth="yes" name="n32"/>
      <point x="199.64" y="-10"/>
      <point x="235.909" y="26.8727"/>
      <point x="235.909" y="66.5607" type="curve" smooth="yes"/>
      <point x="235.909" y="97.9266"/>
      <point x="213.643" y="120" name="hr01"/>
      <point x="181.333" y="120" type="curve" smooth="yes" name="n38"/>
      <point x="140.634" y="120"/>
      <point x="103.454" y="83.4342"/>
    </contour>
  </outline>
</glyph>
<glyph name="at" format="2">
  <advance width="940"/>
  <unicode hex="0040"/>
  <outline>
    <contour>
      <point x="413" y="-120" type="curve" smooth="yes" name="n00"/>
      <point x="485.667" y="-120"/>
      <point x="541.667" y="-108"/>
      <point x="581" y="-93" type="curve"/>
      <point x="604" y="-85"/>
      <point x="624.333" y="-76"/>
      <point x="641.333" y="-65" type="curve"/>
      <point x="615" y="1.66667" type="line"/>
      <point x="605" y="1.66667" type="line"/>
      <point x="591.667" y="-7.33333"/>
      <point x="576.333" y="-14.3333"/>
      <point x="559.333" y="-21.3333" type="curve"/>
      <point x="529.333" y="-32.3333"/>
      <point x="489.667" y="-43.3333"/>
      <point x="437" y="-43.3333" type="curve" smooth="yes" name="n14"/>
      <point x="250" y="-43.3333"/>
      <point x="135" y="96.3333"/>
      <point x="170.333" y="300" type="curve" smooth="yes"/>
      <point x="206.667" y="503.667"/>
      <point x="371.333" y="643.333"/>
      <point x="558" y="643.333" type="curve" smooth="yes" name="n20"/>
      <point x="743.667" y="643.333"/>
      <point x="860" y="503.667"/>
      <point x="823.667" y="300" type="curve" smooth="yes"/>
      <point x="800.667" y="169.333"/>
      <point x="744" y="126.667"/>
      <point x="698.667" y="126.667" type="curve" smooth="yes" name="n26"/>
      <point x="686" y="126.667"/>
      <point x="676.333" y="130.667"/>
      <point x="669.333" y="135.667" type="curve" name="hr01"/>
      <point x="666.187" y="138.093"/>
      <point x="661.543" y="141.851"/>
      <point x="658.333" y="145" type="curve"/>
      <point x="725.333" y="525" type="line"/>
      <point x="648.667" y="525" type="line"/>
      <point x="629.333" y="473.333" type="line"/>
      <point x="624.333" y="473.333" type="line"/>
      <point x="617.333" y="484.667"/>
      <point x="608.333" y="495"/>
      <point x="597.333" y="503.667" type="curve" smooth="yes"/>
      <point x="578.333" y="519.333"/>
      <point x="550" y="535"/>
      <point x="509" y="535" type="curve" smooth="yes" name="n42"/>
      <point x="407.333" y="535"/>
      <point x="317" y="457.667"/>
      <point x="288.667" y="295" type="curve" smooth="yes"/>
      <point x="259.667" y="132.333"/>
      <point x="321.667" y="55"/>
      <point x="424" y="55" type="curve" smooth="yes" name="n48"/>
      <point x="465" y="55"/>
      <point x="498.667" y="67"/>
      <point x="523" y="82" type="curve"/>
      <point x="537.333" y="90"/>
      <point x="549.667" y="99"/>
      <point x="560.667" y="110" type="curve"/>
      <point x="565.667" y="110" type="line"/>
      <point x="571" y="99"/>
      <point x="580" y="90"/>
      <point x="591" y="82" type="curve"/>
      <point x="610" y="67"/>
      <point x="640" y="55"/>
      <point x="689" y="55" type="curve" smooth="yes" name="n61"/>
      <point x="797.333" y="55"/>
      <point x="895.333" y="138.333"/>
      <point x="923.667" y="300" type="curve" smooth="yes"/>
      <point x="966.667" y="540"/>
      <point x="818.333" y="720"/>
      <point x="571" y="720" type="curve" smooth="yes" name="n67"/>
      <point x="324.667" y="720"/>
      <point x="113.333" y="540"/>
      <point x="70.3333" y="300" type="curve" smooth="yes"/>
      <point x="27.3333" y="60"/>
      <point x="176.333" y="-120"/>
    </contour>
    <contour>
      <point x="463" y="135" type="curve" smooth="yes" name="n73"/>
      <point x="412.333" y="135"/>
      <point x="377.667" y="176.667"/>
      <point x="398.667" y="295" type="curve" smooth="yes"/>
      <point x="419" y="413.333"/>
      <point x="468.333" y="455"/>
      <point x="520" y="455" type="curve" smooth="yes" name="n79"/>
      <point x="543.333" y="455"/>
      <point x="561" y="442.333"/>
      <point x="574.667" y="428.667" type="curve" smooth="yes"/>
      <point x="582" y="421"/>
      <point x="588.333" y="412.667"/>
      <point x="594" y="403.333" type="curve"/>
      <point x="553" y="173.333" type="line"/>
      <point x="545" y="165.667"/>
      <point x="536" y="159.333"/>
      <point x="526.333" y="153.667" type="curve" smooth="yes"/>
      <point x="509.333" y="144"/>
      <point x="487.333" y="135"/>
    </contour>
  </outline>
</glyph>
<glyph name="B" format="2">
  <advance width="587"/>
  <unicode hex="0042"/>
  <outline>
    <contour>
      <point x="63.3333" y="0" type="line"/>
      <point x="260" y="0" type="line" smooth="yes" name="n01"/>
      <point x="436" y="0"/>
      <point x="524.667" y="75"/>
      <point x="545" y="191.667" type="curve" smooth="yes"/>
      <point x="558" y="268.667"/>
      <point x="529.333" y="313"/>
      <point x="499.333" y="339" type="curve" smooth="yes"/>
      <point x="481.667" y="353.667"/>
      <point x="459" y="364.333"/>
      <point x="433.333" y="370" type="curve"/>
      <point x="456" y="375.667"/>
      <point x="477.333" y="385.333"/>
      <point x="497" y="398" type="curve" smooth="yes"/>
      <point x="530.667" y="420.333"/>
      <point x="566.333" y="458.333"/>
      <point x="578.333" y="523.333" type="curve" smooth="yes"/>
      <point x="597.333" y="624.667"/>
      <point x="534" y="700"/>
      <point x="383" y="700" type="curve" smooth="yes" name="n19"/>
      <point x="186.333" y="700" type="line"/>
    </contour>
    <contour>
      <point x="247.333" y="403.333" type="line" name="n21"/>
      <point x="286.333" y="623.333" type="line"/>
      <point x="369.667" y="623.333" type="line" smooth="yes" name="n23"/>
      <point x="440.333" y="623.333"/>
      <point x="475.333" y="580.667"/>
      <point x="463" y="513.333" type="curve" smooth="yes"/>
      <point x="451.333" y="446"/>
      <point x="401.333" y="403.333"/>
      <point x="330.667" y="403.333" type="curve" smooth="yes"/>
    </contour>
    <contour>
      <point x="189.667" y="76.6667" type="line"/>
      <point x="234" y="326.667" type="line" name="n31"/>
      <point x="317.333" y="326.667" type="line" smooth="yes"/>
      <point x="411.667" y="326.667"/>
      <point x="448" y="284"/>
      <point x="433.667" y="201.667" type="curve" smooth="yes"/>
      <point x="419" y="119.333"/>
      <point x="367.333" y="76.6667"/>
      <point x="273" y="76.6667" type="curve" smooth="yes" name="n38"/>
    </contour>
  </outline>
</glyph>
<glyph name="D" format="2">
  <advance width="595"/>
  <unicode hex="0044"/>
  <outline>
    <contour>
      <point x="63.3333" y="0" type="line"/>
      <point x="220" y="0" type="line" smooth="yes" name="n01"/>
      <point x="413.333" y="0"/>
      <point x="533.333" y="102.667"/>
      <point x="577.667" y="350" type="curve"/>
      <point x="620.667" y="597.333"/>
      <point x="537" y="700"/>
      <point x="343" y="700" type="curve" smooth="yes" name="n07"/>
      <point x="186.333" y="700" type="line"/>
    </contour>
    <contour>
      <point x="189.667" y="76.6667" type="line" name="n09"/>
      <point x="286.333" y="623.333" type="line"/>
      <point x="329.667" y="623.333" type="line" smooth="yes" name="n11"/>
      <point x="445.667" y="623.333"/>
      <point x="500.667" y="557.333"/>
      <point x="464.333" y="350" type="curve" smooth="yes"/>
      <point x="428" y="142.667"/>
      <point x="350" y="76.6667"/>
      <point x="233" y="76.6667" type="curve" smooth="yes"/>
    </contour>
  </outline>
</glyph>
<glyph name="F" format="2">
  <advance width="508"/>
  <unicode hex="0046"/>
  <outline>
    <contour>
      <point x="63.3333" y="0" type="line" name="n00"/>
      <point x="176.667" y="0" type="line"/>
      <point x="232" y="316.667" type="line" name="n02"/>
      <point x="458.667" y="316.667" type="line"/>
      <point x="472" y="393.333" type="line"/>
      <point x="245.333" y="393.333" type="line" name="n05"/>
      <point x="286.333" y="623.333" type="line"/>
      <point x="573" y="623.333" type="line" name="n07"/>
      <point x="586.333" y="700" type="line" name="n08"/>
      <point x="186.333" y="700" type="line"/>
    </contour>
  </outline>
</glyph>
<glyph name="G" format="2">
  <advance width="573"/>
  <unicode hex="0047"/>
  <outline>
    <contour>
      <point x="295.452" y="-10" type="curve" smooth="yes" name="n00"/>
      <point x="358.908" y="-10"/>
      <point x="436.479" y="6.8294"/>
      <point x="492" y="45" type="curve"/>
      <point x="546" y="350" type="line"/>
      <point x="519" y="383.333" type="line"/>
      <point x="327.333" y="383.333" type="line" name="n06"/>
      <point x="313.333" y="306.667" type="line" name="n07"/>
      <point x="425" y="306.667" type="line"/>
      <point x="386" y="83.3333" type="line"/>
      <point x="381.583" y="81.2999"/>
      <point x="347.754" y="66.6667"/>
      <point x="308.882" y="66.6667" type="curve" smooth="yes" name="n12"/>
      <point x="240.84" y="66.6667"/>
      <point x="190.136" y="107.143"/>
      <point x="190.136" y="235.243" type="curve" smooth="yes" name="n15"/>
      <point x="190.136" y="363.447"/>
      <point x="240.951" y="633.333"/>
      <point x="405.662" y="633.333" type="curve" smooth="yes" name="n18"/>
      <point x="446.193" y="633.333"/>
      <point x="488.934" y="616.324"/>
      <point x="518" y="588.333" type="curve"/>
      <point x="528" y="588.333" type="line"/>
      <point x="578.333" y="655" type="line"/>
      <point x="534.076" y="694.05"/>
      <point x="467.278" y="710"/>
      <point x="409.351" y="710" type="curve" smooth="yes" name="n26"/>
      <point x="171.402" y="710"/>
      <point x="77.8523" y="433.723"/>
      <point x="77.8523" y="238.045" type="curve" smooth="yes" name="n29"/>
      <point x="77.8523" y="63.6923"/>
      <point x="162.881" y="-10"/>
    </contour>
  </outline>
</glyph>
<glyph name="H" format="2">
  <advance width="640"/>
  <unicode hex="0048"/>
  <outline>
    <contour>
      <point x="63.3333" y="0" type="line" name="n00"/>
      <point x="176.667" y="0" type="line"/>
      <point x="232" y="316.667" type="line" name="n02"/>
      <point x="468.667" y="316.667" type="line"/>
      <point x="413.333" y="0" type="line"/>
      <point x="526.667" y="0" type="line"/>
      <point x="649.667" y="700" type="line" name="n06"/>
      <point x="536.333" y="700" type="line"/>
      <point x="482" y="393.333" type="line"/>
      <point x="245.333" y="393.333" type="line" name="n09"/>
      <point x="299.667" y="700" type="line"/>
      <point x="186.333" y="700" type="line"/>
    </contour>
  </outline>
</glyph>
<glyph name="L" format="2">
  <advance width="495"/>
  <unicode hex="004C"/>
  <outline>
    <contour>
      <point x="63.3333" y="0" type="line" name="n00"/>
      <point x="460" y="0" type="line" name="n01"/>
      <point x="473" y="76.6667" type="line" name="n02"/>
      <point x="189.667" y="76.6667" type="line"/>
      <point x="299.667" y="700" type="line" name="n04"/>
      <point x="186.333" y="700" type="line"/>
    </contour>
  </outline>
</glyph>
<glyph name="M" format="2">
  <advance width="850"/>
  <unicode hex="004D"/>
  <outline>
    <contour>
      <point x="63.3333" y="0" type="line" name="n00"/>
      <point x="176.667" y="0" type="line"/>
      <point x="247.333" y="401.667" type="line" smooth="yes"/>
      <point x="250.333" y="416.667"/>
      <point x="251.333" y="435.333"/>
      <point x="253.667" y="452.333" type="curve" smooth="yes"/>
      <point x="254.428" y="457.981"/>
      <point x="256.243" y="474.719"/>
      <point x="256.667" y="480.333" type="curve"/>
      <point x="260.667" y="480.333" type="line"/>
      <point x="261.667" y="470.667"/>
      <point x="262.667" y="461.333"/>
      <point x="264.667" y="452.333" type="curve"/>
      <point x="267.333" y="435.333"/>
      <point x="270.667" y="417"/>
      <point x="275.667" y="401.667" type="curve" smooth="yes"/>
      <point x="368" y="121.667" type="line"/>
      <point x="474.667" y="121.667" type="line" name="n17"/>
      <point x="665.667" y="401.667" type="line"/>
      <point x="676.667" y="416.667"/>
      <point x="686" y="435.333"/>
      <point x="694.333" y="452.333" type="curve" smooth="yes"/>
      <point x="708" y="480.333" type="line"/>
      <point x="712" y="480.333" type="line"/>
      <point x="704.667" y="452.333" type="line"/>
      <point x="694" y="401.667" type="line"/>
      <point x="623.333" y="0" type="line"/>
      <point x="736.667" y="0" type="line"/>
      <point x="859.667" y="700" type="line" name="n28"/>
      <point x="748" y="700" type="line"/>
      <point x="469.667" y="285" type="line"/>
      <point x="462.667" y="276"/>
      <point x="456.667" y="264.333"/>
      <point x="451.667" y="253.333" type="curve"/>
      <point x="442.667" y="235" type="line" name="n34"/>
      <point x="438.667" y="235" type="line"/>
      <point x="436.667" y="253.333" type="line" smooth="yes"/>
      <point x="435.667" y="264.333"/>
      <point x="432.667" y="275.333"/>
      <point x="429.667" y="285" type="curve" smooth="yes"/>
      <point x="298" y="700" type="line"/>
      <point x="186.333" y="700" type="line"/>
    </contour>
  </outline>
</glyph>
<glyph name="O" format="2">
  <advance width="610"/>
  <unicode hex="004F"/>
  <outline>
    <contour>
      <point x="275.552" y="-10" type="curve" smooth="yes" name="n00"/>
      <point x="521.07" y="-10"/>
      <point x="604.895" y="274.15"/>
      <point x="604.895" y="477.035" type="curve" smooth="yes" name="n03"/>
      <point x="604.895" y="642.286"/>
      <point x="527.157" y="710"/>
      <point x="406.956" y="710" type="curve" smooth="yes" name="n06"/>
      <point x="161.465" y="710"/>
      <point x="77.1675" y="426.985"/>
      <point x="77.1675" y="223.526" type="curve" smooth="yes" name="n09"/>
      <point x="77.1675" y="57.8651"/>
      <point x="155.434" y="-10"/>
    </contour>
    <contour>
      <point x="291.333" y="66.6667" type="curve" smooth="yes" name="n12"/>
      <point x="236.122" y="66.6667"/>
      <point x="189.9" y="106.409"/>
      <point x="189.9" y="224.89" type="curve" smooth="yes" name="n15"/>
      <point x="189.9" y="349.268"/>
      <point x="241.85" y="633.333"/>
      <point x="389.834" y="633.333" type="curve" smooth="yes" name="n18"/>
      <point x="445.505" y="633.333"/>
      <point x="492.038" y="593.469"/>
      <point x="492.038" y="475.461" type="curve" smooth="yes" name="n21"/>
      <point x="492.038" y="350.689"/>
      <point x="439.798" y="66.6667"/>
    </contour>
  </outline>
</glyph>
<glyph name="P" format="2">
  <advance width="575"/>
  <unicode hex="0050"/>
  <outline>
    <contour>
      <point x="63.3333" y="0" type="line" name="n00"/>
      <point x="176.667" y="0" type="line"/>
      <point x="218" y="236.667" type="line" name="n02"/>
      <point x="291.333" y="236.667" type="line" smooth="yes"/>
      <point x="469" y="236.667"/>
      <point x="561.333" y="315.667"/>
      <point x="588.333" y="468.333" type="curve" smooth="yes"/>
      <point x="615.667" y="621"/>
      <point x="550.667" y="700"/>
      <point x="373" y="700" type="curve" smooth="yes" name="n09"/>
      <point x="186.333" y="700" type="line"/>
    </contour>
    <contour>
      <point x="231.333" y="313.333" type="line" name="n11"/>
      <point x="286.333" y="623.333" type="line"/>
      <point x="359.667" y="623.333" type="line" smooth="yes" name="n13"/>
      <point x="456.667" y="623.333"/>
      <point x="494.667" y="577.333"/>
      <point x="475" y="468.333" type="curve" smooth="yes"/>
      <point x="456" y="359.333"/>
      <point x="401.667" y="313.333"/>
      <point x="304.667" y="313.333" type="curve" smooth="yes"/>
    </contour>
  </outline>
</glyph>
<glyph name="R" format="2">
  <advance width="583"/>
  <unicode hex="0052"/>
  <outline>
    <contour>
      <point x="63.3333" y="0" type="line" name="n00"/>
      <point x="176.667" y="0" type="line"/>
      <point x="221.333" y="256.667" type="line"/>
      <point x="293" y="256.667" type="line" name="n03"/>
      <point x="400" y="0" type="line"/>
      <point x="530" y="0" type="line"/>
      <point x="410" y="275" type="line"/>
      <point x="526.549" y="310.988"/>
      <point x="585.672" y="416.577"/>
      <point x="585.672" y="531.495" type="curve" smooth="yes" name="n09"/>
      <point x="585.672" y="640.8"/>
      <point x="515.572" y="700"/>
      <point x="363" y="700" type="curve" smooth="yes" name="n12"/>
      <point x="186.333" y="700" type="line"/>
    </contour>
    <contour>
      <point x="235" y="333.333" type="line"/>
      <point x="286.333" y="623.333" type="line"/>
      <point x="349.667" y="623.333" type="line" smooth="yes" name="n16"/>
      <point x="431.325" y="623.333"/>
      <point x="471.203" y="590.449"/>
      <point x="471.203" y="521.256" type="curve" smooth="yes" name="n19"/>
      <point x="471.203" y="411.307"/>
      <point x="416.334" y="333.333"/>
      <point x="298.333" y="333.333" type="curve" smooth="yes" name="n22"/>
    </contour>
  </outline>
</glyph>
<glyph name="T" format="2">
  <advance width="490"/>
  <unicode hex="0054"/>
  <outline>
    <contour>
      <point x="163.333" y="0" type="line" name="n00"/>
      <point x="276.667" y="0" type="line"/>
      <point x="386.333" y="623.333" type="line"/>
      <point x="564.667" y="623.333" type="line" name="n03"/>
      <point x="578" y="700" type="line" name="n04"/>
      <point x="108" y="700" type="line"/>
      <point x="94.6667" y="623.333" type="line" name="n06"/>
      <point x="273" y="623.333" type="line"/>
    </contour>
  </outline>
</glyph>
<glyph name="U" format="2">
  <advance width="627"/>
  <unicode hex="0055"/>
  <outline>
    <contour>
      <point x="286.333" y="-10" type="curve" smooth="yes" name="n00"/>
      <point x="435" y="-10"/>
      <point x="531.667" y="72.3333"/>
      <point x="558.667" y="223.333" type="curve" smooth="yes"/>
      <point x="643" y="700" type="line" name="n04"/>
      <point x="529.667" y="700" type="line"/>
      <point x="445.333" y="223.333" type="line" smooth="yes"/>
      <point x="426.333" y="114.333"/>
      <point x="370.333" y="66.6667"/>
      <point x="299.667" y="66.6667" type="curve" smooth="yes" name="n09"/>
      <point x="229" y="66.6667"/>
      <point x="189.667" y="114.333"/>
      <point x="208.667" y="223.333" type="curve" smooth="yes"/>
      <point x="293" y="700" type="line"/>
      <point x="179.667" y="700" type="line"/>
      <point x="95.3333" y="223.333" type="line" smooth="yes"/>
      <point x="68.3333" y="72.3333"/>
      <point x="137.667" y="-10"/>
    </contour>
  </outline>
</glyph>
<glyph name="V" format="2">
  <advance width="563"/>
  <unicode hex="0056"/>
  <outline>
    <contour>
      <point x="186.667" y="0" type="line" name="n00"/>
      <point x="326.667" y="0" type="line" name="n01"/>
      <point x="646.333" y="700" type="line" name="n02"/>
      <point x="533" y="700" type="line"/>
      <point x="305.667" y="196.667" type="line" smooth="yes"/>
      <point x="298.333" y="181.333"/>
      <point x="293" y="164.333"/>
      <point x="288" y="149.333" type="curve" smooth="yes"/>
      <point x="280.333" y="125" type="line" name="n08"/>
      <point x="276.333" y="125" type="line"/>
      <point x="277.333" y="133.333"/>
      <point x="277.333" y="141.333"/>
      <point x="277.333" y="149.667" type="curve" smooth="yes"/>
      <point x="277.333" y="164.667"/>
      <point x="276.667" y="181.333"/>
      <point x="275.667" y="196.667" type="curve"/>
      <point x="226.333" y="700" type="line"/>
      <point x="113" y="700" type="line" name="n17"/>
    </contour>
  </outline>
</glyph>
<glyph name="X" format="2">
  <advance width="540"/>
  <unicode hex="0058"/>
  <outline>
    <contour>
      <point x="-11.6667" y="0" type="line" name="n00"/>
      <point x="111.667" y="0" type="line"/>
      <point x="267" y="231.667" type="line"/>
      <point x="274" y="240.667"/>
      <point x="278.667" y="252"/>
      <point x="283.333" y="261" type="curve"/>
      <point x="285.411" y="264.582"/>
      <point x="290.058" y="273.325"/>
      <point x="291.333" y="276.667" type="curve"/>
      <point x="295.333" y="276.667" type="line"/>
      <point x="295.665" y="273.23"/>
      <point x="296.995" y="264.472"/>
      <point x="297.667" y="261" type="curve"/>
      <point x="300" y="252"/>
      <point x="300.667" y="240.667"/>
      <point x="303.667" y="231.667" type="curve" smooth="yes"/>
      <point x="378.333" y="0" type="line"/>
      <point x="501.667" y="0" type="line"/>
      <point x="382" y="355" type="line"/>
      <point x="619.667" y="700" type="line" name="n19"/>
      <point x="496.333" y="700" type="line"/>
      <point x="347" y="478.333" type="line"/>
      <point x="340" y="468.667"/>
      <point x="334.667" y="458"/>
      <point x="330" y="449" type="curve" smooth="yes"/>
      <point x="328.042" y="445.418"/>
      <point x="323.838" y="436.675"/>
      <point x="322.667" y="433.333" type="curve"/>
      <point x="318.667" y="433.333" type="line"/>
      <point x="318.335" y="436.77"/>
      <point x="317.005" y="445.528"/>
      <point x="316.333" y="449" type="curve"/>
      <point x="314" y="458"/>
      <point x="313.333" y="468.667"/>
      <point x="310.333" y="478.333" type="curve" smooth="yes"/>
      <point x="239.667" y="700" type="line"/>
      <point x="116.333" y="700" type="line"/>
      <point x="232" y="355" type="line"/>
    </contour>
  </outline>
</glyph>
<glyph name="Z" format="2">
  <advance width="498"/>
  <unicode hex="005A"/>
  <outline>
    <contour>
      <point x="3.33333" y="0" type="line" name="n00"/>
      <point x="445" y="0" type="line" name="n01"/>
      <point x="458" y="76.6667" type="line" name="n02"/>
      <point x="149.667" y="76.6667" type="line"/>
      <point x="548.667" y="618.333" type="line"/>
      <point x="563" y="700" type="line" name="n05"/>
      <point x="126.333" y="700" type="line" name="n06"/>
      <point x="113" y="623.333" type="line" name="n07"/>
      <point x="416.333" y="623.333" type="line"/>
      <point x="17.3333" y="81.6667" type="line"/>
    </contour>
  </outline>
</glyph>
<glyph name="bracketleft" format="2">
  <advance width="318"/>
  <unicode hex="005B"/>
  <outline>
    <contour>
      <point x="246.667" y="-170" type="line" name="n00"/>
      <point x="259.667" y="-93.3333" type="line" name="n01"/>
      <point x="159.667" y="-93.3333" type="line"/>
      <point x="291.333" y="653.333" type="line"/>
      <point x="391.333" y="653.333" type="line" name="n04"/>
      <point x="404.667" y="730" type="line" name="n05"/>
      <point x="191.333" y="730" type="line"/>
      <point x="33.3333" y="-170" type="line" name="n07"/>
    </contour>
  </outline>
</glyph>
<glyph name="bracketright" format="2">
  <advance width="318"/>
  <unicode hex="005D"/>
  <outline>
    <contour>
      <point x="-25" y="-93.3333" type="line" name="n00"/>
      <point x="-37.3333" y="-170" type="line" name="n01"/>
      <point x="175" y="-170" type="line"/>
      <point x="333" y="730" type="line" name="n03"/>
      <point x="119.667" y="730" type="line" name="n04"/>
      <point x="106.333" y="653.333" type="line" name="n05"/>
      <point x="206.333" y="653.333" type="line"/>
      <point x="74.6667" y="-93.3333" type="line"/>
    </contour>
  </outline>
</glyph>
<glyph name="asciicircum" format="2">
  <advance width="443"/>
  <unicode hex="005E"/>
  <outline>
    <contour>
      <point x="52" y="440" type="line" name="n00"/>
      <point x="162" y="440" type="line"/>
      <point x="304.333" y="613.333" type="line"/>
      <point x="385.333" y="440" type="line" name="n03"/>
      <point x="495.333" y="440" type="line" name="n04"/>
      <point x="362.667" y="720" type="line" name="n05"/>
      <point x="282.667" y="720" type="line"/>
    </contour>
  </outline>
</glyph>
<glyph name="underscore" format="2">
  <advance width="383"/>
  <unicode hex="005F"/>
  <outline>
    <contour>
      <point x="-47.6667" y="-133.333" type="line" name="n00"/>
      <point x="334.667" y="-133.333" type="line"/>
      <point x="349.667" y="-46.6667" type="line" name="n02"/>
      <point x="-32.6667" y="-46.6667" type="line" name="n03"/>
    </contour>
  </outline>
</glyph>
<glyph name="grave" format="2">
  <advance width="183"/>
  <unicode hex="0060"/>
  <outline>
    <contour>
      <point x="174.333" y="550" type="line"/>
      <point x="244.333" y="550" type="line" name="n01"/>
      <point x="226.333" y="700" type="line" name="n02"/>
      <point x="108" y="700" type="line" name="n03"/>
    </contour>
  </outline>
</glyph>
<glyph name="a" format="2">
  <advance width="520"/>
  <unicode hex="0061"/>
  <outline>
    <contour>
      <point x="184.093" y="-10" type="curve" smooth="yes" name="n00"/>
      <point x="246.263" y="-10"/>
      <point x="303.439" y="16.0891"/>
      <point x="341.667" y="60" type="curve"/>
      <point x="346.667" y="60" type="line"/>
      <point x="346.667" y="0" type="line" name="n05"/>
      <point x="426.667" y="0" type="line"/>
      <point x="482.667" y="320" type="line" smooth="yes"/>
      <point x="484.828" y="332.514"/>
      <point x="485.89" y="344.64"/>
      <point x="485.89" y="356.304" type="curve" smooth="yes" name="n10"/>
      <point x="485.89" y="447.167"/>
      <point x="421.462" y="510"/>
      <point x="310.963" y="510" type="curve" smooth="yes" name="n13"/>
      <point x="248.825" y="510"/>
      <point x="187.143" y="490.046"/>
      <point x="135.333" y="456.667" type="curve"/>
      <point x="161.667" y="390" type="line"/>
      <point x="171.667" y="390" type="line"/>
      <point x="203.554" y="413.728"/>
      <point x="247.947" y="433.333"/>
      <point x="291.915" y="433.333" type="curve" smooth="yes" name="n21"/>
      <point x="342.266" y="433.333"/>
      <point x="372.667" y="407.667"/>
      <point x="372.667" y="353.811" type="curve" smooth="yes" name="n24"/>
      <point x="372.667" y="343.57"/>
      <point x="371.569" y="332.306"/>
      <point x="369.333" y="320" type="curve" smooth="yes"/>
      <point x="365.667" y="298.333" type="line"/>
      <point x="289" y="298.333" type="line" smooth="yes" name="n29"/>
      <point x="164.493" y="298.333"/>
      <point x="40.2437" y="254.137"/>
      <point x="40.2437" y="118.054" type="curve" smooth="yes"/>
      <point x="40.2437" y="36.6067"/>
      <point x="91.5703" y="-10" name="hr02"/>
    </contour>
    <contour>
      <point x="219.565" y="71.6667" type="curve" smooth="yes" name="n35"/>
      <point x="179.176" y="71.6667"/>
      <point x="155.037" y="92.5933"/>
      <point x="155.037" y="133.072" type="curve" smooth="yes"/>
      <point x="155.037" y="196.368"/>
      <point x="214.143" y="221.667"/>
      <point x="275" y="221.667" type="curve" smooth="yes" name="n41"/>
      <point x="351.667" y="221.667" type="line"/>
      <point x="336.333" y="131.667" type="line"/>
      <point x="307.914" y="103.331"/>
      <point x="269.066" y="71.6667"/>
    </contour>
  </outline>
</glyph>
<glyph name="b" format="2">
  <advance width="543"/>
  <unicode hex="0062"/>
  <outline>
    <contour>
      <point x="283" y="-10" type="curve" smooth="yes" name="n00"/>
      <point x="385.333" y="-10"/>
      <point x="483.667" y="75"/>
      <point x="515.667" y="250" type="curve"/>
      <point x="544.667" y="425"/>
      <point x="476.333" y="510"/>
      <point x="357.333" y="510" type="curve" smooth="yes" name="n06"/>
      <point x="326.333" y="510"/>
      <point x="299.333" y="502"/>
      <point x="279" y="495" type="curve"/>
      <point x="245.667" y="480" type="line"/>
      <point x="284.667" y="700" type="line" name="n11"/>
      <point x="204.667" y="700" type="line"/>
      <point x="165.667" y="666.667" type="line"/>
      <point x="48.3333" y="0" type="line" name="n14"/>
      <point x="128.333" y="0" type="line"/>
      <point x="148.333" y="60" type="line"/>
      <point x="153.333" y="60" type="line"/>
      <point x="160.333" y="47"/>
      <point x="170" y="35"/>
      <point x="182" y="25" type="curve"/>
      <point x="202.333" y="6"/>
      <point x="234" y="-10" name="hr02"/>
    </contour>
    <contour>
      <point x="272" y="71.6667" type="curve" smooth="yes" name="n23"/>
      <point x="242" y="71.6667"/>
      <point x="220.667" y="86.6667"/>
      <point x="206" y="101.667" type="curve"/>
      <point x="197.667" y="110.667"/>
      <point x="190.333" y="120.667"/>
      <point x="184.667" y="131.667" type="curve"/>
      <point x="233.667" y="410" type="line"/>
      <point x="241.333" y="414.333"/>
      <point x="250" y="418"/>
      <point x="260.333" y="421.667" type="curve"/>
      <point x="278" y="427.333"/>
      <point x="299.667" y="433.333"/>
      <point x="326" y="433.333" type="curve" smooth="yes" name="n36"/>
      <point x="387.667" y="433.333"/>
      <point x="426.333" y="386.667"/>
      <point x="402.333" y="250" type="curve" smooth="yes"/>
      <point x="379.333" y="118.333"/>
      <point x="323.333" y="71.6667"/>
    </contour>
  </outline>
</glyph>
<glyph name="d" format="2">
  <advance width="543"/>
  <unicode hex="0064"/>
  <outline>
    <contour>
      <point x="206.333" y="-10" type="curve" smooth="yes" name="n00"/>
      <point x="255.333" y="-10"/>
      <point x="292.333" y="6"/>
      <point x="319.333" y="25" type="curve"/>
      <point x="335" y="35"/>
      <point x="348.667" y="47"/>
      <point x="360" y="60" type="curve"/>
      <point x="365" y="60" type="line"/>
      <point x="365" y="0" type="line" name="n08"/>
      <point x="445" y="0" type="line"/>
      <point x="568" y="700" type="line" name="n10"/>
      <point x="488" y="700" type="line"/>
      <point x="449" y="666.667" type="line"/>
      <point x="415.667" y="480" type="line"/>
      <point x="410.385" y="483.141"/>
      <point x="393.862" y="491.569"/>
      <point x="387.333" y="495" type="curve"/>
      <point x="369.333" y="502"/>
      <point x="345" y="510"/>
      <point x="314" y="510" type="curve" smooth="yes" name="n19"/>
      <point x="195.667" y="510"/>
      <point x="95.3333" y="425.333"/>
      <point x="65.6667" y="250" type="curve"/>
      <point x="33.6667" y="75"/>
      <point x="105.333" y="-10" name="hr02"/>
    </contour>
    <contour>
      <point x="245.333" y="71.6667" type="curve" smooth="yes" name="n25"/>
      <point x="193.667" y="71.6667"/>
      <point x="156" y="118.333"/>
      <point x="179" y="250" type="curve" smooth="yes"/>
      <point x="203" y="386.667"/>
      <point x="257.333" y="433.333"/>
      <point x="319.333" y="433.333" type="curve" smooth="yes" name="n31"/>
      <point x="345" y="433.333"/>
      <point x="366.333" y="427.333"/>
      <point x="381" y="421.667" type="curve"/>
      <point x="389.333" y="418"/>
      <point x="397.333" y="414.333"/>
      <point x="403.667" y="410" type="curve"/>
      <point x="354.667" y="131.667" type="line"/>
      <point x="344" y="120.667"/>
      <point x="333" y="110.667"/>
      <point x="321.667" y="101.667" type="curve"/>
      <point x="300.667" y="86.6667"/>
      <point x="275" y="71.6667"/>
    </contour>
  </outline>
</glyph>
<glyph name="e" format="2">
  <advance width="510"/>
  <unicode hex="0065"/>
  <outline>
    <contour>
      <point x="249.667" y="-10" type="curve" smooth="yes" name="n00"/>
      <point x="300.667" y="-10"/>
      <point x="343.333" y="2"/>
      <point x="374.667" y="16.3333" type="curve"/>
      <point x="393" y="24"/>
      <point x="410" y="33"/>
      <point x="425.333" y="43.3333" type="curve"/>
      <point x="399" y="110" type="line"/>
      <point x="389" y="110" type="line"/>
      <point x="378" y="101.667"/>
      <point x="366.333" y="94.6667"/>
      <point x="353.667" y="88" type="curve" smooth="yes"/>
      <point x="331.667" y="77"/>
      <point x="304.333" y="66.6667"/>
      <point x="273" y="66.6667" type="curve" smooth="yes" name="n14"/>
      <point x="193" y="66.6667"/>
      <point x="154" y="114"/>
      <point x="171.667" y="211.667" type="curve" name="n17"/>
      <point x="455" y="211.667" type="line"/>
      <point x="482.667" y="235" type="line"/>
      <point x="486" y="253.333" type="line" smooth="yes"/>
      <point x="515" y="425"/>
      <point x="446.333" y="510"/>
      <point x="320.667" y="510" type="curve" smooth="yes" name="n23"/>
      <point x="195.333" y="510"/>
      <point x="95.3333" y="425.333"/>
      <point x="65.6667" y="250" type="curve"/>
      <point x="34.6667" y="75"/>
      <point x="103.333" y="-10"/>
    </contour>
    <contour>
      <point x="185.667" y="288.333" type="line" name="n29"/>
      <point x="203.667" y="389.333"/>
      <point x="254.333" y="433.333"/>
      <point x="307.667" y="433.333" type="curve" smooth="yes" name="n32"/>
      <point x="361" y="433.333"/>
      <point x="396.667" y="390.667"/>
      <point x="379" y="288.333" type="curve"/>
    </contour>
  </outline>
</glyph>
<glyph name="f" format="2">
  <advance width="348"/>
  <unicode hex="0066"/>
  <outline>
    <contour>
      <point x="56.6667" y="0" type="line" name="n00"/>
      <point x="170" y="0" type="line"/>
      <point x="244" y="423.333" type="line" name="n02"/>
      <point x="375.667" y="423.333" type="line"/>
      <point x="389.667" y="500" type="line"/>
      <point x="258" y="500" type="line" name="n05"/>
      <point x="265.667" y="546.667" type="line" smooth="yes"/>
      <point x="276" y="603.667"/>
      <point x="311" y="633.333"/>
      <point x="352.667" y="633.333" type="curve" smooth="yes" name="n09"/>
      <point x="375.667" y="633.333"/>
      <point x="395" y="622.333"/>
      <point x="410" y="611.333" type="curve" smooth="yes"/>
      <point x="418.667" y="604.667"/>
      <point x="426.333" y="597.667"/>
      <point x="433.333" y="590" type="curve"/>
      <point x="443.333" y="590" type="line"/>
      <point x="493.667" y="656.667" type="line" name="n17"/>
      <point x="482" y="666.333"/>
      <point x="469.667" y="675.333"/>
      <point x="456" y="683" type="curve" smooth="yes"/>
      <point x="432.333" y="697"/>
      <point x="398.667" y="710"/>
      <point x="356.667" y="710" type="curve" smooth="yes" name="n23"/>
      <point x="248.333" y="710"/>
      <point x="168.667" y="644"/>
      <point x="152.333" y="546.667" type="curve" smooth="yes"/>
      <point x="144.667" y="500" type="line"/>
      <point x="83" y="500" type="line"/>
      <point x="69" y="423.333" type="line"/>
      <point x="130.667" y="423.333" type="line"/>
    </contour>
  </outline>
</glyph>
<glyph name="h" format="2">
  <advance width="555"/>
  <unicode hex="0068"/>
  <outline>
    <contour>
      <point x="48.3333" y="0" type="line" name="n00"/>
      <point x="161.667" y="0" type="line"/>
      <point x="226.333" y="368.333" type="line"/>
      <point x="236.333" y="379.333"/>
      <point x="247.333" y="389.333"/>
      <point x="258.667" y="398.333" type="curve" smooth="yes"/>
      <point x="278.333" y="413.333"/>
      <point x="305" y="428.333"/>
      <point x="335" y="428.333" type="curve" smooth="yes" name="n08"/>
      <point x="387.333" y="428.333"/>
      <point x="417.333" y="392.333"/>
      <point x="406.333" y="333.333" type="curve"/>
      <point x="348.333" y="0" type="line"/>
      <point x="461.667" y="0" type="line"/>
      <point x="519.667" y="333.333" type="line"/>
      <point x="539.333" y="440.333"/>
      <point x="481" y="510"/>
      <point x="374" y="510" type="curve" smooth="yes" name="n17"/>
      <point x="333.667" y="510"/>
      <point x="301.333" y="497.333"/>
      <point x="278.333" y="485.667" type="curve" smooth="yes"/>
      <point x="265" y="478.667"/>
      <point x="253.333" y="470.333"/>
      <point x="242.667" y="461.667" type="curve"/>
      <point x="284.667" y="700" type="line" name="n24"/>
      <point x="204.667" y="700" type="line"/>
      <point x="165.667" y="666.667" type="line"/>
    </contour>
  </outline>
</glyph>
<glyph name="i" format="2">
  <advance width="260"/>
  <unicode hex="0069"/>
  <outline>
    <contour>
      <point x="206" y="575" type="curve" smooth="yes" name="n00"/>
      <point x="242.667" y="575"/>
      <point x="274.667" y="603.333"/>
      <point x="282" y="640" type="curve" smooth="yes"/>
      <point x="289" y="676.667"/>
      <point x="265.667" y="705"/>
      <point x="229" y="705" type="curve" smooth="yes" name="n06"/>
      <point x="192" y="705"/>
      <point x="159.333" y="676.667"/>
      <point x="152" y="640" type="curve" smooth="yes"/>
      <point x="145" y="603.333"/>
      <point x="169.333" y="575"/>
    </contour>
    <contour>
      <point x="48.3333" y="0" type="line" name="n12"/>
      <point x="161.667" y="0" type="line"/>
      <point x="249.667" y="500" type="line" name="n14"/>
      <point x="136.333" y="500" type="line"/>
    </contour>
  </outline>
</glyph>
<glyph name="k" format="2">
  <advance width="490"/>
  <unicode hex="006B"/>
  <outline>
    <contour>
      <point x="48.3333" y="0" type="line" name="n00"/>
      <point x="161.667" y="0" type="line"/>
      <point x="204.667" y="245" type="line"/>
      <point x="328.333" y="0" type="line"/>
      <point x="456.667" y="0" type="line"/>
      <point x="318.333" y="260" type="line"/>
      <point x="534.667" y="500" type="line" name="n06"/>
      <point x="406.333" y="500" type="line"/>
      <point x="209.667" y="275" type="line"/>
      <point x="284.667" y="700" type="line" name="n09"/>
      <point x="204.667" y="700" type="line"/>
      <point x="165.667" y="666.667" type="line"/>
    </contour>
  </outline>
</glyph>
<glyph name="l" format="2">
  <advance width="260"/>
  <unicode hex="006C"/>
  <outline>
    <contour>
      <point x="48.3333" y="0" type="line" name="n00"/>
      <point x="161.667" y="0" type="line"/>
      <point x="284.667" y="700" type="line" name="n02"/>
      <point x="204.667" y="700" type="line"/>
      <point x="165.667" y="666.667" type="line"/>
    </contour>
  </outline>
</glyph>
<glyph name="m" format="2">
  <advance width="815"/>
  <unicode hex="006D"/>
  <outline>
    <contour>
      <point x="48.3333" y="0" type="line" name="n00"/>
      <point x="161.667" y="0" type="line"/>
      <point x="226.333" y="368.333" type="line"/>
      <point x="236" y="379.333"/>
      <point x="246" y="389.333"/>
      <point x="257" y="398.333" type="curve" smooth="yes"/>
      <point x="275.333" y="413.333"/>
      <point x="300" y="428.333"/>
      <point x="325" y="428.333" type="curve" smooth="yes" name="n08"/>
      <point x="366.667" y="428.333"/>
      <point x="396" y="391.667"/>
      <point x="386.333" y="333.333" type="curve" smooth="yes"/>
      <point x="328.333" y="0" type="line"/>
      <point x="441.667" y="0" type="line"/>
      <point x="507.667" y="378.333" type="line"/>
      <point x="517" y="387.333"/>
      <point x="527" y="396.333"/>
      <point x="538" y="403.333" type="curve" smooth="yes"/>
      <point x="556.333" y="415.333"/>
      <point x="580.667" y="428.333"/>
      <point x="605" y="428.333" type="curve" smooth="yes"/>
      <point x="646.667" y="428.333"/>
      <point x="676" y="391.667"/>
      <point x="666.333" y="333.333" type="curve" smooth="yes"/>
      <point x="608.333" y="0" type="line"/>
      <point x="721.667" y="0" type="line"/>
      <point x="779.667" y="333.333" type="line"/>
      <point x="799.333" y="440.333" name="hr01"/>
      <point x="741" y="510" name="hr02"/>
      <point x="644" y="510" type="curve" smooth="yes"/>
      <point x="598" y="510"/>
      <point x="557.333" y="492"/>
      <point x="528.333" y="475" type="curve"/>
      <point x="511.333" y="464"/>
      <point x="495.667" y="453"/>
      <point x="482" y="440" type="curve" name="hr03"/>
      <point x="477" y="453"/>
      <point x="470" y="464"/>
      <point x="459.333" y="475" type="curve"/>
      <point x="441" y="492"/>
      <point x="412.333" y="510" name="hr04"/>
      <point x="364" y="510" type="curve" smooth="yes" name="n41"/>
      <point x="322" y="510"/>
      <point x="287" y="492"/>
      <point x="261" y="475" type="curve"/>
      <point x="246.333" y="464"/>
      <point x="232.667" y="453"/>
      <point x="220.333" y="440" type="curve" name="hr05"/>
      <point x="215.333" y="440" type="line" name="n48"/>
      <point x="216.333" y="500" type="line" name="n49"/>
      <point x="136.333" y="500" type="line"/>
    </contour>
  </outline>
</glyph>
<glyph name="n" format="2">
  <advance width="555"/>
  <unicode hex="006E"/>
  <outline>
    <contour>
      <point x="48.3333" y="0" type="line" name="n00"/>
      <point x="161.667" y="0" type="line"/>
      <point x="226.333" y="368.333" type="line"/>
      <point x="253.597" y="398.356"/>
      <point x="292.715" y="428.333"/>
      <point x="337.694" y="428.333" type="curve" smooth="yes" name="n05"/>
      <point x="380.397" y="428.333"/>
      <point x="408.383" y="401.327"/>
      <point x="408.383" y="355.998" type="curve" smooth="yes" name="n08"/>
      <point x="408.383" y="348.932"/>
      <point x="407.713" y="341.371"/>
      <point x="406.333" y="333.333" type="curve" smooth="yes"/>
      <point x="348.333" y="0" type="line"/>
      <point x="461.667" y="0" type="line"/>
      <point x="519.667" y="333.333" type="line" smooth="yes"/>
      <point x="522.211" y="347.199"/>
      <point x="523.452" y="360.427"/>
      <point x="523.452" y="372.952" type="curve" smooth="yes" name="n17"/>
      <point x="523.452" y="457.156"/>
      <point x="467.134" y="510"/>
      <point x="376.018" y="510" type="curve" smooth="yes" name="n20"/>
      <point x="318.749" y="510"/>
      <point x="256.544" y="482.794"/>
      <point x="220.333" y="440" type="curve" name="hr01"/>
      <point x="215.333" y="440" type="line" name="n24"/>
      <point x="216.333" y="500" type="line" name="n25"/>
      <point x="136.333" y="500" type="line"/>
    </contour>
  </outline>
</glyph>
<glyph name="o" format="2">
  <advance width="533"/>
  <unicode hex="006F"/>
  <outline>
    <contour>
      <point x="239.667" y="-10" type="curve" smooth="yes" name="n00"/>
      <point x="375.333" y="-10"/>
      <point x="474" y="74.6667"/>
      <point x="505.667" y="250" type="curve"/>
      <point x="534.667" y="425"/>
      <point x="465.667" y="510"/>
      <point x="330.667" y="510" type="curve" smooth="yes" name="n06"/>
      <point x="195" y="510"/>
      <point x="96.6667" y="426"/>
      <point x="65.6667" y="250" type="curve" smooth="yes"/>
      <point x="34.6667" y="74.6667"/>
      <point x="104" y="-10"/>
    </contour>
    <contour>
      <point x="253" y="66.6667" type="curve" smooth="yes" name="n12"/>
      <point x="192.333" y="66.6667"/>
      <point x="155" y="113.333"/>
      <point x="179" y="250" type="curve" smooth="yes"/>
      <point x="203" y="386.667"/>
      <point x="257.667" y="433.333"/>
      <point x="317.667" y="433.333" type="curve" smooth="yes" name="n18"/>
      <point x="377.667" y="433.333"/>
      <point x="416.333" y="386.667"/>
      <point x="392.333" y="250" type="curve" smooth="yes"/>
      <point x="368.333" y="113.333"/>
      <point x="312.333" y="66.6667"/>
    </contour>
  </outline>
</glyph>
<glyph name="q" format="2">
  <advance width="543"/>
  <unicode hex="0071"/>
  <outline>
    <contour>
      <point x="329" y="-200" type="line"/>
      <point x="409" y="-200" type="line"/>
      <point x="533" y="500" type="line" name="n02"/>
      <point x="453" y="500" type="line"/>
      <point x="432" y="440" type="line"/>
      <point x="427" y="440" type="line"/>
      <point x="420" y="453"/>
      <point x="410" y="464"/>
      <point x="398.333" y="475" type="curve"/>
      <point x="377.667" y="492"/>
      <point x="346.333" y="510" name="hr01"/>
      <point x="297.333" y="510" type="curve" smooth="yes" name="n11"/>
      <point x="196.333" y="510"/>
      <point x="94.6667" y="425"/>
      <point x="65.6667" y="250" type="curve"/>
      <point x="34" y="75"/>
      <point x="104.667" y="-10"/>
      <point x="223" y="-10" type="curve" smooth="yes" name="n17"/>
      <point x="254" y="-10"/>
      <point x="281" y="-3"/>
      <point x="301.333" y="5" type="curve"/>
      <point x="313" y="9"/>
      <point x="324.333" y="14"/>
      <point x="334.667" y="20" type="curve"/>
      <point x="302" y="-166.667" type="line"/>
    </contour>
    <contour>
      <point x="254.667" y="66.6667" type="curve" smooth="yes" name="n25"/>
      <point x="192.333" y="66.6667"/>
      <point x="155" y="113.333"/>
      <point x="179" y="250" type="curve" smooth="yes"/>
      <point x="202" y="381.667"/>
      <point x="256" y="428.333"/>
      <point x="308.333" y="428.333" type="curve" smooth="yes" name="n31"/>
      <point x="338" y="428.333"/>
      <point x="359.667" y="413.333"/>
      <point x="374.333" y="398.333" type="curve"/>
      <point x="382.667" y="389.333"/>
      <point x="390.667" y="379.333"/>
      <point x="396.333" y="368.333" type="curve"/>
      <point x="347.333" y="90" type="line"/>
      <point x="339" y="85.3333"/>
      <point x="330.333" y="81.6667"/>
      <point x="320.333" y="78.3333" type="curve" smooth="yes"/>
      <point x="302.667" y="72.3333"/>
      <point x="280.333" y="66.6667"/>
    </contour>
  </outline>
</glyph>
<glyph name="r" format="2">
  <advance width="375"/>
  <unicode hex="0072"/>
  <outline>
    <contour>
      <point x="48.3333" y="0" type="line" name="n00"/>
      <point x="161.667" y="0" type="line"/>
      <point x="225.333" y="363.333" type="line"/>
      <point x="235.333" y="374.333"/>
      <point x="245.667" y="384.333"/>
      <point x="257" y="393.333" type="curve" smooth="yes"/>
      <point x="276.667" y="408.333"/>
      <point x="302.667" y="423.333"/>
      <point x="330.667" y="423.333" type="curve" smooth="yes" name="n08"/>
      <point x="346.333" y="423.333"/>
      <point x="362.667" y="421.333"/>
      <point x="375" y="418.333" type="curve"/>
      <point x="382" y="416.333"/>
      <point x="389" y="414.333"/>
      <point x="396" y="413.333" type="curve"/>
      <point x="406" y="413.333" type="line"/>
      <point x="438" y="500" type="line" name="n16"/>
      <point x="433.252" y="500.881"/>
      <point x="422.129" y="503.773"/>
      <point x="417.333" y="505" type="curve" smooth="yes"/>
      <point x="404.333" y="508"/>
      <point x="387.667" y="510" name="hr02"/>
      <point x="370.667" y="510" type="curve" smooth="yes" name="n22"/>
      <point x="323.667" y="510"/>
      <point x="286.667" y="492"/>
      <point x="260.333" y="475" type="curve"/>
      <point x="245.333" y="464"/>
      <point x="231.333" y="453"/>
      <point x="220.333" y="440" type="curve" name="hr03"/>
      <point x="215.333" y="440" type="line" name="n29"/>
      <point x="216.333" y="500" type="line" name="n30"/>
      <point x="136.333" y="500" type="line"/>
    </contour>
  </outline>
</glyph>
<glyph name="s" format="2">
  <advance width="468"/>
  <unicode hex="0073"/>
  <outline>
    <contour>
      <point x="198" y="-10" type="curve" smooth="yes" name="n00"/>
      <point x="346.333" y="-10"/>
      <point x="418.333" y="51"/>
      <point x="434.333" y="142" type="curve" smooth="yes"/>
      <point x="463" y="311.333"/>
      <point x="179" y="272.667"/>
      <point x="197.333" y="373.333" type="curve" smooth="yes"/>
      <point x="203.333" y="405"/>
      <point x="235" y="433.333"/>
      <point x="301" y="433.333" type="curve" smooth="yes" name="n09"/>
      <point x="336.667" y="433.333"/>
      <point x="365.333" y="422.333"/>
      <point x="384.667" y="411.333" type="curve" smooth="yes"/>
      <point x="396" y="404.667"/>
      <point x="406" y="397.667"/>
      <point x="415" y="390" type="curve"/>
      <point x="425" y="390" type="line"/>
      <point x="475.333" y="456.667" type="line" name="n17"/>
      <point x="463" y="466.333"/>
      <point x="448.333" y="475.333"/>
      <point x="430.667" y="483" type="curve"/>
      <point x="401.333" y="497"/>
      <point x="360" y="510"/>
      <point x="304" y="510" type="curve" smooth="yes" name="n23"/>
      <point x="168" y="510"/>
      <point x="97.3333" y="448.333"/>
      <point x="82" y="363.333" type="curve" smooth="yes"/>
      <point x="51.3333" y="193.333"/>
      <point x="337.667" y="233.667"/>
      <point x="319" y="132" type="curve" smooth="yes"/>
      <point x="312.667" y="95"/>
      <point x="280" y="66.6667"/>
      <point x="199.667" y="66.6667" type="curve" smooth="yes" name="n32"/>
      <point x="158.667" y="66.6667"/>
      <point x="127.333" y="77"/>
      <point x="107" y="88" type="curve" smooth="yes"/>
      <point x="95" y="94.6667"/>
      <point x="84.6667" y="101.667"/>
      <point x="75.6667" y="110" type="curve"/>
      <point x="65.6667" y="110" type="line"/>
      <point x="15.3333" y="43.3333" type="line" name="n40"/>
      <point x="27.6667" y="33"/>
      <point x="43.6667" y="24"/>
      <point x="61.6667" y="16.3333" type="curve"/>
      <point x="92.6667" y="2"/>
      <point x="138" y="-10"/>
    </contour>
  </outline>
</glyph>
<glyph name="t" format="2">
  <advance width="405"/>
  <unicode hex="0074"/>
  <outline>
    <contour>
      <point x="234.667" y="-10" type="curve" smooth="yes" name="n00"/>
      <point x="274.667" y="-10"/>
      <point x="312" y="2"/>
      <point x="340.333" y="15" type="curve" smooth="yes"/>
      <point x="356.667" y="22"/>
      <point x="372.333" y="31"/>
      <point x="387" y="40" type="curve"/>
      <point x="360" y="106.667" type="line"/>
      <point x="350" y="106.667" type="line"/>
      <point x="341" y="99.6667"/>
      <point x="331" y="92.6667"/>
      <point x="321" y="86.6667" type="curve"/>
      <point x="304" y="75.6667"/>
      <point x="281" y="66.6667"/>
      <point x="258" y="66.6667" type="curve" smooth="yes" name="n14"/>
      <point x="217.667" y="66.6667"/>
      <point x="194" y="94.6667"/>
      <point x="205" y="153.333" type="curve" smooth="yes"/>
      <point x="252.333" y="423.333" type="line" name="n18"/>
      <point x="374" y="423.333" type="line"/>
      <point x="388" y="500" type="line"/>
      <point x="266.333" y="500" type="line" name="n21"/>
      <point x="287.333" y="620" type="line"/>
      <point x="239" y="620" type="line"/>
      <point x="78" y="483.333" type="line"/>
      <point x="67.3333" y="423.333" type="line"/>
      <point x="139" y="423.333" type="line"/>
      <point x="91.6667" y="153.333" type="line" smooth="yes"/>
      <point x="75" y="56"/>
      <point x="130" y="-10"/>
    </contour>
  </outline>
</glyph>
<glyph name="v" format="2">
  <advance width="480"/>
  <unicode hex="0076"/>
  <outline>
    <contour>
      <point x="150" y="0" type="line" name="n00"/>
      <point x="280" y="0" type="line" name="n01"/>
      <point x="529.667" y="500" type="line" name="n02"/>
      <point x="416.333" y="500" type="line"/>
      <point x="258.667" y="176.667" type="line" smooth="yes"/>
      <point x="251.667" y="163"/>
      <point x="246" y="148"/>
      <point x="242.333" y="134.333" type="curve"/>
      <point x="239.667" y="126.667"/>
      <point x="237.667" y="119.333"/>
      <point x="236" y="111.667" type="curve" name="n10"/>
      <point x="232" y="111.667" type="line"/>
      <point x="232.778" y="118.118"/>
      <point x="233.222" y="127.891"/>
      <point x="233.333" y="134.333" type="curve" smooth="yes"/>
      <point x="233.667" y="148.333"/>
      <point x="234.333" y="163"/>
      <point x="232" y="176.667" type="curve"/>
      <point x="189.667" y="500" type="line"/>
      <point x="76.3333" y="500" type="line" name="n19"/>
    </contour>
  </outline>
</glyph>
<glyph name="w" format="2">
  <advance width="723"/>
  <unicode hex="0077"/>
  <outline>
    <contour>
      <point x="120" y="0" type="line"/>
      <point x="240" y="0" type="line" name="n01"/>
      <point x="377.333" y="308.333" type="line"/>
      <point x="382" y="320"/>
      <point x="388" y="335.667"/>
      <point x="392.333" y="349.333" type="curve"/>
      <point x="394.647" y="355.713"/>
      <point x="397.318" y="366.172"/>
      <point x="399.667" y="373.333" type="curve" name="n08"/>
      <point x="403.667" y="373.333" type="line"/>
      <point x="402.667" y="365"/>
      <point x="402.667" y="357"/>
      <point x="402.667" y="349.333" type="curve"/>
      <point x="402.333" y="335.333"/>
      <point x="401.667" y="320"/>
      <point x="404" y="308.333" type="curve"/>
      <point x="433.333" y="0" type="line"/>
      <point x="553.333" y="0" type="line"/>
      <point x="773" y="500" type="line" name="n18"/>
      <point x="663" y="500" type="line"/>
      <point x="534" y="205" type="line" smooth="yes"/>
      <point x="528" y="191.333"/>
      <point x="523" y="175.667"/>
      <point x="519.333" y="164" type="curve"/>
      <point x="516.333" y="157"/>
      <point x="514.333" y="150.333"/>
      <point x="513.333" y="143.333" type="curve"/>
      <point x="509.333" y="143.333" type="line"/>
      <point x="511.333" y="164" type="line" smooth="yes"/>
      <point x="512.333" y="176"/>
      <point x="511.667" y="191.333"/>
      <point x="510.667" y="205" type="curve" smooth="yes"/>
      <point x="488" y="500" type="line"/>
      <point x="361.333" y="500" type="line" name="n33"/>
      <point x="234" y="205" type="line" smooth="yes"/>
      <point x="228" y="191.333"/>
      <point x="223" y="175.667"/>
      <point x="219.333" y="164" type="curve"/>
      <point x="216.333" y="157"/>
      <point x="214.333" y="150.333"/>
      <point x="212.667" y="143.333" type="curve" name="n40"/>
      <point x="208.667" y="143.333" type="line"/>
      <point x="210.667" y="164" type="line" smooth="yes"/>
      <point x="211.667" y="176.667"/>
      <point x="211.667" y="190.667"/>
      <point x="210.667" y="205" type="curve" smooth="yes"/>
      <point x="186.333" y="500" type="line"/>
      <point x="76.3333" y="500" type="line"/>
    </contour>
  </outline>
</glyph>
<glyph name="y" format="2">
  <advance width="485"/>
  <unicode hex="0079"/>
  <outline>
    <contour>
      <point x="75.3333" y="-210" type="curve" smooth="yes" name="n00"/>
      <point x="164" y="-210"/>
      <point x="233.333" y="-150"/>
      <point x="273.333" y="-63.3333" type="curve" smooth="yes"/>
      <point x="534.667" y="500" type="line" name="n04"/>
      <point x="421.333" y="500" type="line"/>
      <point x="273.667" y="171.667" type="line" smooth="yes"/>
      <point x="267.667" y="158"/>
      <point x="261.333" y="140.333"/>
      <point x="255.667" y="126" type="curve"/>
      <point x="253.59" y="120.258"/>
      <point x="247.703" y="105.644"/>
      <point x="246" y="100" type="curve"/>
      <point x="242" y="100" type="line"/>
      <point x="241.333" y="126" type="line" smooth="yes"/>
      <point x="241" y="140.333"/>
      <point x="240" y="158"/>
      <point x="237.667" y="171.667" type="curve" smooth="yes"/>
      <point x="189.667" y="500" type="line"/>
      <point x="76.3333" y="500" type="line"/>
      <point x="153.333" y="0" type="line" name="n20"/>
      <point x="193.333" y="0" type="line"/>
      <point x="163.667" y="-63.3333" type="line" smooth="yes"/>
      <point x="144.333" y="-105"/>
      <point x="113" y="-133.333"/>
      <point x="79.3333" y="-133.333" type="curve" smooth="yes" name="n25"/>
      <point x="64.3333" y="-133.333"/>
      <point x="51.6667" y="-128.333"/>
      <point x="42.6667" y="-121.333" type="curve"/>
      <point x="37.6667" y="-118.333"/>
      <point x="32.6667" y="-113.333"/>
      <point x="28.6667" y="-108.333" type="curve"/>
      <point x="18.6667" y="-108.333" type="line"/>
      <point x="-22" y="-180" type="line" name="n33"/>
      <point x="-14.6667" y="-186"/>
      <point x="-6" y="-191"/>
      <point x="3.66667" y="-195" type="curve"/>
      <point x="20.6667" y="-203"/>
      <point x="44.3333" y="-210"/>
    </contour>
  </outline>
</glyph>
<glyph name="z" format="2">
  <advance width="450"/>
  <unicode hex="007A"/>
  <outline>
    <contour>
      <point x="10" y="0" type="line" name="n00"/>
      <point x="390" y="0" type="line" name="n01"/>
      <point x="403" y="76.6667" type="line" name="n02"/>
      <point x="156.333" y="76.6667" type="line"/>
      <point x="458" y="418.333" type="line"/>
      <point x="473" y="500" type="line" name="n05"/>
      <point x="98" y="500" type="line" name="n06"/>
      <point x="84" y="423.333" type="line" name="n07"/>
      <point x="325.667" y="423.333" type="line"/>
      <point x="24" y="81.6667" type="line"/>
    </contour>
  </outline>
</glyph>
<glyph name="braceleft" format="2">
  <advance width="328"/>
  <unicode hex="007B"/>
  <outline>
    <contour>
      <point x="64" y="318.333" type="curve" name="n00"/>
      <point x="50.6667" y="241.667" type="line" name="n01"/>
      <point x="93.0398" y="241.667"/>
      <point x="112.771" y="226.979"/>
      <point x="112.771" y="185.276" type="curve" smooth="yes" name="n04"/>
      <point x="112.771" y="175.166"/>
      <point x="111.61" y="163.466"/>
      <point x="109.333" y="150" type="curve" smooth="yes"/>
      <point x="78" y="-26.6667" type="line" smooth="yes"/>
      <point x="76.4512" y="-35.9015" name="hr01"/>
      <point x="75.6737" y="-44.8368"/>
      <point x="75.6737" y="-53.4261" type="curve" smooth="yes" name="n11"/>
      <point x="75.6737" y="-122.727"/>
      <point x="126.072" y="-170"/>
      <point x="228.333" y="-170" type="curve" smooth="yes" name="n14"/>
      <point x="263.333" y="-170" type="line"/>
      <point x="276.333" y="-93.3333" type="line"/>
      <point x="241.333" y="-93.3333" type="line" smooth="yes" name="n17"/>
      <point x="209.499" y="-93.3333"/>
      <point x="189.746" y="-74.8114"/>
      <point x="189.746" y="-43.1132" type="curve" smooth="yes"/>
      <point x="189.746" y="-37.9728"/>
      <point x="190.3" y="-32.4901"/>
      <point x="191.333" y="-26.6667" type="curve" smooth="yes" name="n23"/>
      <point x="222.667" y="150" type="line" smooth="yes"/>
      <point x="225.155" y="163.732"/>
      <point x="226.29" y="175.932" name="hr02"/>
      <point x="226.29" y="186.82" type="curve" smooth="yes" name="n27"/>
      <point x="226.29" y="229.211"/>
      <point x="206.659" y="270.921"/>
      <point x="162.333" y="280" type="curve"/>
      <point x="225.705" y="291.638"/>
      <point x="258.16" y="350.746"/>
      <point x="268.667" y="410" type="curve" smooth="yes"/>
      <point x="300" y="586.667" type="line" smooth="yes"/>
      <point x="307.382" y="628.275"/>
      <point x="336" y="653.333"/>
      <point x="373" y="653.333" type="curve" smooth="yes" name="n37"/>
      <point x="408" y="653.333" type="line"/>
      <point x="421.333" y="730" type="line"/>
      <point x="386.333" y="730" type="line" smooth="yes" name="n40"/>
      <point x="271" y="730"/>
      <point x="202" y="670.333"/>
      <point x="186.667" y="586.667" type="curve" smooth="yes"/>
      <point x="155.333" y="410" type="line" smooth="yes"/>
      <point x="142.667" y="341"/>
      <point x="116.333" y="318.333"/>
    </contour>
  </outline>
</glyph>
<glyph name="bar" format="2">
  <advance width="290"/>
  <unicode hex="007C"/>
  <outline>
    <contour>
      <point x="27.3333" y="-200" type="line" name="n00"/>
      <point x="140.667" y="-200" type="line"/>
      <point x="299.667" y="700" type="line" name="n02"/>
      <point x="186.333" y="700" type="line"/>
    </contour>
  </outline>
</glyph>
<glyph name="braceright" format="2">
  <advance width="328"/>
  <unicode hex="007D"/>
  <outline>
    <contour>
      <point x="273.333" y="256.667" type="curve"/>
      <point x="268.962" y="263.224"/>
      <point x="268.647" y="292.108"/>
      <point x="265" y="296.667" type="curve"/>
      <point x="222" y="290.333"/>
      <point x="200" y="296"/>
      <point x="205" y="323.333" type="curve" smooth="yes"/>
      <point x="216.333" y="386.667" type="line"/>
      <point x="222.667" y="428.333"/>
      <point x="180.667" y="460"/>
      <point x="100.333" y="460" type="curve" smooth="yes"/>
      <point x="65.6667" y="460" type="line" name="n11"/>
      <point x="52.6667" y="383.333" type="line" name="n12"/>
      <point x="87.3333" y="383.333" type="line" smooth="yes"/>
      <point x="159.333" y="383.333"/>
      <point x="195.667" y="386.333"/>
      <point x="196.333" y="386.667" type="curve"/>
      <point x="185" y="323.333" type="line" smooth="yes"/>
      <point x="181.333" y="305"/>
      <point x="199" y="289.667"/>
      <point x="229" y="278.333" type="curve" name="n20"/>
      <point x="236.613" y="276.323"/>
      <point x="248.089" y="291.873"/>
      <point x="258.333" y="295" type="curve" name="n23"/>
      <point x="229" y="293"/>
      <point x="213.667" y="295"/>
      <point x="209" y="310" type="curve"/>
      <point x="194.834" y="303.95"/>
      <point x="184.612" y="319.803"/>
      <point x="179.667" y="293.333" type="curve"/>
      <point x="181.326" y="302.669"/>
      <point x="152.799" y="254.077"/>
      <point x="102" y="223.333" type="curve"/>
      <point x="94.3285" y="193.333"/>
      <point x="67.7129" y="176.667"/>
      <point x="39" y="176.667" type="curve" name="n35"/>
      <point x="11" y="146.667" type="line" name="n36"/>
      <point x="14.6667" y="100" type="line"/>
      <point x="29.0304" y="100"/>
      <point x="50.0261" y="91.6667"/>
      <point x="52.3333" y="80" type="curve"/>
      <point x="120.287" y="68.4024"/>
      <point x="159.92" y="72.3236"/>
      <point x="168.333" y="116.667" type="curve" smooth="yes"/>
      <point x="170.155" y="127.538"/>
      <point x="189.706" y="192.764"/>
      <point x="198.333" y="200" type="curve"/>
      <point x="210" y="243.667"/>
      <point x="234" y="257.667"/>
    </contour>
  </outline>
</glyph>
<glyph name="asciitilde" format="2">
  <advance width="493"/>
  <unicode hex="007E"/>
  <outline>
    <contour>
      <point x="351.333" y="238.333" type="curve" smooth="yes" name="n00"/>
      <point x="418" y="238.333"/>
      <point x="479.667" y="291.333"/>
      <point x="503.333" y="340" type="curve" name="n03"/>
      <point x="451.333" y="395" type="line"/>
      <point x="442.333" y="395" type="line"/>
      <point x="442.667" y="395"/>
      <point x="405.667" y="338.333"/>
      <point x="362.333" y="338.333" type="curve" smooth="yes" name="n08"/>
      <point x="303.667" y="338.333"/>
      <point x="287.667" y="405" name="hr01"/>
      <point x="204" y="405" type="curve" smooth="yes" name="n11"/>
      <point x="137.667" y="405"/>
      <point x="76.6667" y="352"/>
      <point x="51" y="303.333" type="curve" name="n14"/>
      <point x="103.333" y="248.333" type="line"/>
      <point x="112.333" y="248.333" type="line"/>
      <point x="111.333" y="248.333"/>
      <point x="149" y="305"/>
      <point x="193" y="305" type="curve" smooth="yes" name="n19"/>
      <point x="251" y="305"/>
      <point x="268.333" y="238.333" name="hr02"/>
    </contour>
  </outline>
</glyph>
<glyph name="exclamdown" format="2">
  <advance width="290"/>
  <unicode hex="00A1"/>
  <outline>
    <contour>
      <point x="153.667" y="420" type="curve" smooth="yes" name="n00"/>
      <point x="162.333" y="396.667"/>
      <point x="189.667" y="391.667"/>
      <point x="215.667" y="405" type="curve" smooth="yes"/>
      <point x="241.333" y="418.333"/>
      <point x="251" y="446.667"/>
      <point x="242.333" y="470" type="curve" smooth="yes" name="n06"/>
      <point x="233.667" y="493.333"/>
      <point x="205.667" y="498.333"/>
      <point x="179.667" y="485" type="curve" smooth="yes"/>
      <point x="154" y="471.667"/>
      <point x="145" y="443.333"/>
    </contour>
    <contour>
      <point x="128" y="313.333" type="line"/>
      <point x="17.3333" y="-200" type="line"/>
      <point x="150.667" y="-200" type="line"/>
      <point x="221.333" y="313.333" type="line"/>
    </contour>
  </outline>
</glyph>
<glyph name="cent" format="2">
  <advance width="462"/>
  <unicode hex="00A2"/>
  <outline>
    <contour>
      <point x="170.333" y="-70" type="line" name="hr04"/>
      <point x="280.333" y="-70" type="line" name="n01"/>
      <point x="291.333" y="-6.66667" type="line" name="n02"/>
      <point x="329.333" y="-1.66667"/>
      <point x="362" y="10.6667"/>
      <point x="385.667" y="22.3333" type="curve" smooth="yes"/>
      <point x="399.333" y="29"/>
      <point x="412.333" y="36.3333"/>
      <point x="423.667" y="43.3333" type="curve"/>
      <point x="397.333" y="110" type="line"/>
      <point x="387.333" y="110" type="line"/>
      <point x="376.333" y="101.667"/>
      <point x="364.667" y="94.6667"/>
      <point x="352" y="88" type="curve" smooth="yes"/>
      <point x="330" y="77"/>
      <point x="302.667" y="66.6667" name="hr02"/>
      <point x="271.333" y="66.6667" type="curve" smooth="yes" name="n16"/>
      <point x="192.667" y="66.6667"/>
      <point x="155" y="113.333"/>
      <point x="179" y="250" type="curve" smooth="yes"/>
      <point x="203" y="386.667"/>
      <point x="257.667" y="433.333"/>
      <point x="326" y="433.333" type="curve" smooth="yes" name="n22"/>
      <point x="357.333" y="433.333"/>
      <point x="381" y="422.333"/>
      <point x="399" y="411.333" type="curve" smooth="yes"/>
      <point x="409.333" y="404.667"/>
      <point x="418.333" y="397.667"/>
      <point x="426.667" y="390" type="curve"/>
      <point x="436.667" y="390" type="line"/>
      <point x="487" y="456.667" type="line"/>
      <point x="479" y="463.333"/>
      <point x="470" y="469.333"/>
      <point x="459" y="475.667" type="curve" smooth="yes"/>
      <point x="440" y="486"/>
      <point x="416" y="497.667"/>
      <point x="382.333" y="505" type="curve"/>
      <point x="391.333" y="560" type="line"/>
      <point x="281.333" y="560" type="line" name="n38"/>
      <point x="272" y="503.333" type="line"/>
      <point x="167.667" y="481"/>
      <point x="92" y="399"/>
      <point x="65.6667" y="250" type="curve" smooth="yes"/>
      <point x="38.6667" y="102.333"/>
      <point x="83" y="21.6667"/>
      <point x="182.667" y="-2" type="curve" name="n45"/>
    </contour>
  </outline>
</glyph>
<glyph name="sterling" format="2">
  <advance width="485"/>
  <unicode hex="00A3"/>
  <outline>
    <contour>
      <point x="3.33333" y="0" type="line" name="n00"/>
      <point x="450" y="0" type="line"/>
      <point x="463" y="76.6667" type="line"/>
      <point x="133" y="76.6667" type="line"/>
      <point x="148" y="84.3333"/>
      <point x="161.667" y="96"/>
      <point x="174.667" y="110.667" type="curve" smooth="yes"/>
      <point x="197.667" y="136.667"/>
      <point x="221.333" y="177.333"/>
      <point x="235" y="246.667" type="curve"/>
      <point x="249" y="326.667" type="line" name="n10"/>
      <point x="380.667" y="326.667" type="line"/>
      <point x="394" y="403.333" type="line"/>
      <point x="262.333" y="403.333" type="line" name="n13"/>
      <point x="286.667" y="540" type="line" smooth="yes"/>
      <point x="297" y="597"/>
      <point x="337.667" y="633.333"/>
      <point x="381" y="633.333" type="curve" smooth="yes" name="n17"/>
      <point x="415" y="633.333"/>
      <point x="440.333" y="621.333"/>
      <point x="457.333" y="610.333" type="curve"/>
      <point x="467.333" y="603.333"/>
      <point x="475.667" y="596.333"/>
      <point x="483" y="588.333" type="curve"/>
      <point x="493" y="588.333" type="line"/>
      <point x="543.333" y="655" type="line" name="n25"/>
      <point x="533.333" y="665"/>
      <point x="520.667" y="674"/>
      <point x="505" y="682" type="curve"/>
      <point x="479" y="697"/>
      <point x="439.667" y="710"/>
      <point x="385" y="710" type="curve" smooth="yes" name="n31"/>
      <point x="278.333" y="710"/>
      <point x="189.333" y="636"/>
      <point x="173.333" y="540" type="curve"/>
      <point x="149" y="403.333" type="line"/>
      <point x="87.3333" y="403.333" type="line"/>
      <point x="74" y="326.667" type="line"/>
      <point x="135.667" y="326.667" type="line"/>
      <point x="121.667" y="246.667" type="line" smooth="yes"/>
      <point x="108" y="174.667"/>
      <point x="82.3333" y="132.667"/>
      <point x="59.3333" y="108" type="curve" smooth="yes"/>
      <point x="46.3333" y="93.3333"/>
      <point x="31.3333" y="83"/>
      <point x="16.3333" y="76.6667" type="curve" name="n45"/>
    </contour>
  </outline>
</glyph>
<glyph name="currency" format="2">
  <advance width="583"/>
  <unicode hex="00A4"/>
  <outline>
    <contour>
      <point x="71.6667" y="0" type="line" name="n00"/>
      <point x="185" y="0" type="line"/>
      <point x="213.333" y="165" type="line" name="n02"/>
      <point x="460" y="165" type="line"/>
      <point x="471.667" y="230" type="line"/>
      <point x="225" y="230" type="line" name="n05"/>
      <point x="232.333" y="271.667" type="line" name="n06"/>
      <point x="305.667" y="271.667" type="line" smooth="yes"/>
      <point x="482.333" y="271.667"/>
      <point x="576.667" y="351"/>
      <point x="599" y="480" type="curve" smooth="yes"/>
      <point x="623.667" y="617.667"/>
      <point x="555" y="700"/>
      <point x="381.333" y="700" type="curve" smooth="yes" name="n13"/>
      <point x="194.667" y="700" type="line"/>
      <point x="130.667" y="336.667" type="line"/>
      <point x="54" y="336.667" type="line"/>
      <point x="42.3333" y="271.667" type="line"/>
      <point x="119" y="271.667" type="line"/>
      <point x="111.667" y="230" type="line"/>
      <point x="35" y="230" type="line"/>
      <point x="23.3333" y="165" type="line"/>
      <point x="100" y="165" type="line"/>
    </contour>
    <contour>
      <point x="244" y="336.667" type="line" name="n23"/>
      <point x="294.667" y="623.333" type="line"/>
      <point x="368" y="623.333" type="line" smooth="yes" name="n25"/>
      <point x="463.667" y="623.333"/>
      <point x="502.667" y="575.667"/>
      <point x="485.667" y="480" type="curve" smooth="yes"/>
      <point x="469.333" y="384.333"/>
      <point x="413" y="336.667"/>
      <point x="317.333" y="336.667" type="curve" smooth="yes"/>
    </contour>
  </outline>
</glyph>
<glyph name="yen" format="2">
  <advance width="543"/>
  <unicode hex="00A5"/>
  <outline>
    <contour>
      <point x="190" y="0" type="line" name="n00"/>
      <point x="303.333" y="0" type="line"/>
      <point x="333.667" y="176.667" type="line"/>
      <point x="480.333" y="176.667" type="line"/>
      <point x="494" y="251.667" type="line"/>
      <point x="358.333" y="251.667" type="line"/>
      <point x="390.333" y="303.333" type="line"/>
      <point x="502.667" y="303.333" type="line" name="n07"/>
      <point x="516.333" y="378.333" type="line" name="n08"/>
      <point x="437" y="378.333" type="line"/>
      <point x="641.333" y="700" type="line" name="n10"/>
      <point x="523" y="700" type="line"/>
      <point x="334.667" y="398.333" type="line" smooth="yes"/>
      <point x="327" y="386"/>
      <point x="321" y="374"/>
      <point x="316.333" y="362.333" type="curve"/>
      <point x="314.376" y="358.153"/>
      <point x="310.171" y="347.198"/>
      <point x="309" y="343.333" type="curve"/>
      <point x="305" y="343.333" type="line"/>
      <point x="305" y="349.667"/>
      <point x="305" y="356"/>
      <point x="304" y="362.333" type="curve"/>
      <point x="303" y="373.333"/>
      <point x="301" y="386"/>
      <point x="298" y="398.333" type="curve" smooth="yes"/>
      <point x="216.333" y="700" type="line"/>
      <point x="98" y="700" type="line"/>
      <point x="189" y="378.333" type="line"/>
      <point x="109.667" y="378.333" type="line"/>
      <point x="96" y="303.333" type="line"/>
      <point x="208.333" y="303.333" type="line"/>
      <point x="223" y="251.667" type="line" name="n32"/>
      <point x="87.3333" y="251.667" type="line"/>
      <point x="73.6667" y="176.667" type="line" name="n34"/>
      <point x="220.333" y="176.667" type="line" name="n35"/>
    </contour>
  </outline>
</glyph>
<glyph name="brokenbar" format="2">
  <advance width="290"/>
  <unicode hex="00A6"/>
  <outline>
    <contour>
      <point x="118.667" y="316.667" type="line"/>
      <point x="232" y="316.667" type="line"/>
      <point x="299.667" y="700" type="line" name="n02"/>
      <point x="186.333" y="700" type="line"/>
    </contour>
    <contour>
      <point x="27.3333" y="-200" type="line" name="n04"/>
      <point x="140.667" y="-200" type="line"/>
      <point x="208.333" y="183.333" type="line"/>
      <point x="95" y="183.333" type="line"/>
    </contour>
  </outline>
</glyph>
<glyph name="section" format="2">
  <advance width="520"/>
  <unicode hex="00A7"/>
  <outline>
    <contour>
      <point x="181.69" y="-210" type="curve" smooth="yes" name="n00"/>
      <point x="309.402" y="-210"/>
      <point x="438.472" y="-144.861"/>
      <point x="438.472" y="-0.858587" type="curve" smooth="yes"/>
      <point x="438.472" y="39.4013"/>
      <point x="419.537" y="72.168"/>
      <point x="390.667" y="93" type="curve"/>
      <point x="455.303" y="126.44"/>
      <point x="496.537" y="199.774"/>
      <point x="496.537" y="268.132" type="curve" smooth="yes"/>
      <point x="496.537" y="362.536"/>
      <point x="417.607" y="398.775"/>
      <point x="346.751" y="431.308" type="curve" smooth="yes"/>
      <point x="289.007" y="457.82"/>
      <point x="236.591" y="481.886"/>
      <point x="236.591" y="537.728" type="curve" smooth="yes" name="n15"/>
      <point x="236.591" y="599.019"/>
      <point x="299.635" y="633.333"/>
      <point x="361.602" y="633.333" type="curve" smooth="yes" name="n18"/>
      <point x="405.118" y="633.333"/>
      <point x="446.416" y="616.408"/>
      <point x="478" y="588.333" type="curve"/>
      <point x="488" y="588.333" type="line"/>
      <point x="538.333" y="655" type="line"/>
      <point x="492.084" y="693.617"/>
      <point x="425.547" y="710"/>
      <point x="365.237" y="710" type="curve" smooth="yes" name="n26"/>
      <point x="241.778" y="710"/>
      <point x="119.223" y="641.361"/>
      <point x="119.223" y="513.3" type="curve" smooth="yes" name="n29"/>
      <point x="119.223" y="462.486"/>
      <point x="138.492" y="430.101"/>
      <point x="168.333" y="409" type="curve"/>
      <point x="103.405" y="374.538"/>
      <point x="61.0867" y="304.655"/>
      <point x="61.0867" y="235.253" type="curve" smooth="yes"/>
      <point x="61.0867" y="140.441"/>
      <point x="140.062" y="104.171"/>
      <point x="210.81" y="71.6698" type="curve" smooth="yes"/>
      <point x="268.328" y="45.2329"/>
      <point x="320.515" y="21.2408"/>
      <point x="320.515" y="-36.1042" type="curve" smooth="yes"/>
      <point x="320.515" y="-101.713"/>
      <point x="252.223" y="-133.333"/>
      <point x="185.996" y="-133.333" type="curve" smooth="yes" name="n44"/>
      <point x="142.027" y="-133.333"/>
      <point x="94.1801" y="-119.322"/>
      <point x="64" y="-88" type="curve"/>
      <point x="54" y="-88" type="line"/>
      <point x="3.66667" y="-154.667" type="line"/>
      <point x="48.8614" y="-195.283"/>
      <point x="121.889" y="-210"/>
    </contour>
    <contour>
      <point x="306.667" y="145" type="curve"/>
      <point x="245.005" y="164.11"/>
      <point x="176.309" y="197.405"/>
      <point x="176.309" y="260.395" type="curve" smooth="yes"/>
      <point x="176.309" y="305.246"/>
      <point x="211.076" y="345.822"/>
      <point x="254.667" y="360" type="curve"/>
      <point x="315.94" y="340.822"/>
      <point x="385.025" y="307.007"/>
      <point x="385.025" y="244.274" type="curve" smooth="yes"/>
      <point x="385.025" y="199.548"/>
      <point x="350.025" y="159.115"/>
    </contour>
  </outline>
</glyph>
<glyph name="dieresis" format="2">
  <advance width="322"/>
  <unicode hex="00A8"/>
  <outline>
    <contour>
      <point x="144.333" y="566.667" type="curve" smooth="yes" name="n00"/>
      <point x="177.667" y="566.667"/>
      <point x="208.667" y="593"/>
      <point x="215" y="626.667" type="curve" smooth="yes"/>
      <point x="220.667" y="660.333"/>
      <point x="199.667" y="686.667"/>
      <point x="166" y="686.667" type="curve" smooth="yes" name="n06"/>
      <point x="132.333" y="686.667"/>
      <point x="101" y="660.333"/>
      <point x="95" y="626.667" type="curve"/>
      <point x="88" y="593"/>
      <point x="110.667" y="566.667"/>
    </contour>
    <contour>
      <point x="326" y="566.667" type="curve" smooth="yes"/>
      <point x="359.333" y="566.667"/>
      <point x="390.333" y="593"/>
      <point x="396.667" y="626.667" type="curve" smooth="yes"/>
      <point x="402.333" y="660.333"/>
      <point x="381.333" y="686.667"/>
      <point x="347.667" y="686.667" type="curve" smooth="yes"/>
      <point x="314" y="686.667"/>
      <point x="282.667" y="660.333"/>
      <point x="276.667" y="626.667" type="curve"/>
      <point x="269.667" y="593"/>
      <point x="292.333" y="566.667"/>
    </contour>
  </outline>
</glyph>
<glyph name="copyright" format="2">
  <advance width="877"/>
  <unicode hex="00A9"/>
  <outline>
    <contour>
      <point x="406.667" y="-33.3333" type="curve" smooth="yes" name="n00"/>
      <point x="640.333" y="-33.3333"/>
      <point x="833.667" y="131.333"/>
      <point x="872.667" y="350" type="curve" smooth="yes"/>
      <point x="911.667" y="568.667"/>
      <point x="774.667" y="733.333"/>
      <point x="542" y="733.333" type="curve" smooth="yes" name="n06"/>
      <point x="308.333" y="733.333"/>
      <point x="115" y="568.667"/>
      <point x="76" y="350" type="curve" smooth="yes"/>
      <point x="37" y="131.333"/>
      <point x="173.333" y="-33.3333"/>
    </contour>
    <contour>
      <point x="420.667" y="43.3333" type="curve" smooth="yes" name="n12"/>
      <point x="250" y="43.3333"/>
      <point x="144" y="171.667"/>
      <point x="176" y="350" type="curve" smooth="yes"/>
      <point x="208" y="528.333"/>
      <point x="357.667" y="656.667"/>
      <point x="528.667" y="656.667" type="curve" smooth="yes" name="n18"/>
      <point x="698.667" y="656.667"/>
      <point x="804.667" y="528.333"/>
      <point x="772.667" y="350" type="curve" smooth="yes"/>
      <point x="740.667" y="171.667"/>
      <point x="590.333" y="43.3333"/>
    </contour>
    <contour>
      <point x="452" y="125" type="curve" smooth="yes" name="n24"/>
      <point x="495" y="125"/>
      <point x="534.333" y="137"/>
      <point x="562" y="150" type="curve"/>
      <point x="578.333" y="157"/>
      <point x="593.667" y="166"/>
      <point x="606.667" y="175" type="curve"/>
      <point x="583.333" y="230" type="line"/>
      <point x="574.333" y="230" type="line"/>
      <point x="564.667" y="223"/>
      <point x="554" y="217"/>
      <point x="543" y="212" type="curve" smooth="yes"/>
      <point x="524" y="203"/>
      <point x="499" y="195"/>
      <point x="474" y="195" type="curve" smooth="yes" name="n38"/>
      <point x="408.333" y="195"/>
      <point x="372" y="240"/>
      <point x="391" y="350" type="curve" smooth="yes"/>
      <point x="410.667" y="460"/>
      <point x="463.333" y="505"/>
      <point x="518.333" y="505" type="curve" smooth="yes" name="n44"/>
      <point x="543.333" y="505"/>
      <point x="565.667" y="496"/>
      <point x="581.333" y="487" type="curve" smooth="yes"/>
      <point x="590.333" y="482"/>
      <point x="599" y="476"/>
      <point x="606.667" y="470" type="curve"/>
      <point x="615.667" y="470" type="line"/>
      <point x="658.667" y="525" type="line"/>
      <point x="648.333" y="534"/>
      <point x="636" y="543"/>
      <point x="622.667" y="550" type="curve" smooth="yes"/>
      <point x="599.333" y="562"/>
      <point x="564" y="575"/>
      <point x="521" y="575" type="curve" smooth="yes" name="n58"/>
      <point x="410" y="575"/>
      <point x="317" y="496.667"/>
      <point x="291" y="350" type="curve" smooth="yes"/>
      <point x="265" y="202.667"/>
      <point x="330.333" y="125"/>
    </contour>
  </outline>
</glyph>
<glyph name="ordfeminine" format="2">
  <advance width="367"/>
  <unicode hex="00AA"/>
  <outline>
    <contour>
      <point x="188.333" y="350" type="curve" smooth="yes"/>
      <point x="218.333" y="350"/>
      <point x="243.333" y="361.667"/>
      <point x="261" y="374" type="curve" smooth="yes"/>
      <point x="271.333" y="381"/>
      <point x="280.333" y="389.333"/>
      <point x="288" y="398.333" type="curve"/>
      <point x="293" y="398.333" type="line"/>
      <point x="292.333" y="360" type="line" name="n08"/>
      <point x="369.667" y="360" type="line"/>
      <point x="410" y="586.667" type="line" smooth="yes"/>
      <point x="423" y="660.667"/>
      <point x="382.667" y="710"/>
      <point x="285" y="710" type="curve" smooth="yes" name="n13"/>
      <point x="245" y="710"/>
      <point x="210.333" y="698"/>
      <point x="186" y="687" type="curve"/>
      <point x="171.667" y="680"/>
      <point x="159" y="673"/>
      <point x="147.333" y="665" type="curve"/>
      <point x="167.667" y="615" type="line"/>
      <point x="177.667" y="615" type="line"/>
      <point x="182.927" y="619.089"/>
      <point x="193.145" y="625.753"/>
      <point x="200" y="630" type="curve"/>
      <point x="215" y="637"/>
      <point x="233.333" y="645"/>
      <point x="256.333" y="645" type="curve" smooth="yes" name="n27"/>
      <point x="296.333" y="645"/>
      <point x="316.667" y="622.333"/>
      <point x="310" y="586.667" type="curve" smooth="yes"/>
      <point x="305.667" y="565" type="line"/>
      <point x="262.333" y="565" type="line" smooth="yes" name="n32"/>
      <point x="150" y="565"/>
      <point x="97.6667" y="520"/>
      <point x="86.6667" y="455" type="curve" smooth="yes"/>
      <point x="75.6667" y="395"/>
      <point x="112.333" y="350"/>
    </contour>
    <contour>
      <point x="224.667" y="416.667" type="curve" smooth="yes" name="n38"/>
      <point x="195" y="416.667"/>
      <point x="180.667" y="433.333"/>
      <point x="185.333" y="456.667" type="curve"/>
      <point x="189.667" y="484"/>
      <point x="211" y="500"/>
      <point x="251.333" y="500" type="curve" smooth="yes" name="n44"/>
      <point x="294.667" y="500" type="line"/>
      <point x="284.667" y="445" type="line"/>
      <point x="279.667" y="439.333"/>
      <point x="273" y="434.333"/>
      <point x="266.667" y="430.667" type="curve"/>
      <point x="255.667" y="423"/>
      <point x="240" y="416.667"/>
    </contour>
  </outline>
</glyph>
<glyph name="guillemotleft" format="2">
  <advance width="490"/>
  <unicode hex="00AB"/>
  <outline>
    <contour>
      <point x="284.333" y="63.3333" type="line"/>
      <point x="159" y="250" type="line"/>
      <point x="350" y="436.667" type="line"/>
      <point x="291.667" y="501.667" type="line" name="n03"/>
      <point x="29" y="250" type="line" name="n04"/>
      <point x="203" y="-1.66667" type="line" name="n05"/>
    </contour>
    <contour>
      <point x="456" y="463.333" type="line"/>
      <point x="234" y="250" type="line"/>
      <point x="381.333" y="36.6667" type="line"/>
      <point x="462.333" y="101.667" type="line"/>
      <point x="364" y="250" type="line"/>
      <point x="514.667" y="398.333" type="line" name="n11"/>
    </contour>
  </outline>
</glyph>
<glyph name="logicalnot" format="2">
  <advance width="473"/>
  <unicode hex="00AC"/>
  <outline>
    <contour>
      <point x="361.333" y="236.667" type="line"/>
      <point x="458" y="236.667" type="line"/>
      <point x="489.333" y="413.333" type="line" name="n02"/>
      <point x="79.3333" y="413.333" type="line" name="n03"/>
      <point x="64" y="326.667" type="line" name="n04"/>
      <point x="377.333" y="326.667" type="line"/>
    </contour>
  </outline>
</glyph>
<glyph name="uni00AD" format="2">
  <advance width="447"/>
  <unicode hex="00AD"/>
  <outline>
    <contour>
      <point x="57" y="286.667" type="line" name="n00"/>
      <point x="440.333" y="286.667" type="line"/>
      <point x="455.667" y="373.333" type="line" name="n02"/>
      <point x="72.3333" y="373.333" type="line" name="n03"/>
    </contour>
  </outline>
</glyph>
<glyph name="registered" format="2">
  <advance width="877"/>
  <unicode hex="00AE"/>
  <outline>
    <contour>
      <point x="406.667" y="-33.3333" type="curve" smooth="yes" name="n00"/>
      <point x="640.333" y="-33.3333"/>
      <point x="833.667" y="131.333"/>
      <point x="872.667" y="350" type="curve" smooth="yes"/>
      <point x="911.667" y="568.667"/>
      <point x="774.667" y="733.333"/>
      <point x="542" y="733.333" type="curve" smooth="yes" name="n06"/>
      <point x="308.333" y="733.333"/>
      <point x="115" y="568.667"/>
      <point x="76" y="350" type="curve" smooth="yes"/>
      <point x="37" y="131.333"/>
      <point x="173.333" y="-33.3333"/>
    </contour>
    <contour>
      <point x="420.667" y="43.3333" type="curve" smooth="yes" name="n12"/>
      <point x="250" y="43.3333"/>
      <point x="144" y="171.667"/>
      <point x="176" y="350" type="curve" smooth="yes"/>
      <point x="208" y="528.333"/>
      <point x="357.667" y="656.667"/>
      <point x="528.667" y="656.667" type="curve" smooth="yes" name="n18"/>
      <point x="698.667" y="656.667"/>
      <point x="804.667" y="528.333"/>
      <point x="772.667" y="350" type="curve" smooth="yes"/>
      <point x="740.667" y="171.667"/>
      <point x="590.333" y="43.3333"/>
    </contour>
    <contour>
      <point x="281.333" y="135" type="line"/>
      <point x="381.333" y="135" type="line"/>
      <point x="407.667" y="281.667" type="line" name="n26"/>
      <point x="461.333" y="281.667" type="line"/>
      <point x="520.333" y="135" type="line"/>
      <point x="627" y="135" type="line"/>
      <point x="557.667" y="298.333" type="line"/>
      <point x="607.333" y="313.333"/>
      <point x="654.667" y="356.333"/>
      <point x="666.333" y="423.333" type="curve" smooth="yes"/>
      <point x="681.333" y="508.333"/>
      <point x="635" y="565"/>
      <point x="508" y="565" type="curve" smooth="yes" name="n36"/>
      <point x="357.333" y="565" type="line"/>
    </contour>
    <contour>
      <point x="419.667" y="351.667" type="line" name="n38"/>
      <point x="445.333" y="495" type="line"/>
      <point x="496" y="495" type="line" smooth="yes" name="n40"/>
      <point x="556.333" y="495"/>
      <point x="575.333" y="470.667"/>
      <point x="567" y="423.333" type="curve" smooth="yes"/>
      <point x="559.333" y="376"/>
      <point x="530.667" y="351.667"/>
      <point x="470.333" y="351.667" type="curve" smooth="yes"/>
    </contour>
  </outline>
</glyph>
<glyph name="macron" format="2">
  <advance width="310"/>
  <unicode hex="00AF"/>
  <outline>
    <contour>
      <point x="94.3333" y="583.333" type="line" name="n00"/>
      <point x="371" y="583.333" type="line"/>
      <point x="384.333" y="660" type="line" name="n02"/>
      <point x="107.667" y="660" type="line" name="n03"/>
    </contour>
  </outline>
</glyph>
<glyph name="degree" format="2">
  <advance width="400"/>
  <unicode hex="00B0"/>
  <outline>
    <contour>
      <point x="240" y="370" type="curve" smooth="yes" name="n00"/>
      <point x="344.333" y="370"/>
      <point x="427" y="440"/>
      <point x="445" y="540" type="curve"/>
      <point x="461.333" y="640"/>
      <point x="405" y="710"/>
      <point x="300" y="710" type="curve" smooth="yes" name="n06"/>
      <point x="195.333" y="710"/>
      <point x="111" y="640"/>
      <point x="95" y="540" type="curve"/>
      <point x="77" y="440"/>
      <point x="134.667" y="370"/>
    </contour>
    <contour>
      <point x="252" y="440" type="curve" smooth="yes" name="n12"/>
      <point x="208.667" y="440"/>
      <point x="181" y="472.667"/>
      <point x="193.333" y="540" type="curve" smooth="yes"/>
      <point x="205" y="607.333"/>
      <point x="244" y="640"/>
      <point x="287.333" y="640" type="curve" smooth="yes" name="n18"/>
      <point x="330.667" y="640"/>
      <point x="358.333" y="607.333"/>
      <point x="346.667" y="540" type="curve" smooth="yes"/>
      <point x="334.333" y="472.667"/>
      <point x="295.333" y="440"/>
    </contour>
  </outline>
</glyph>
<glyph name="plusminus" format="2">
  <advance width="493"/>
  <unicode hex="00B1"/>
  <outline>
    <contour>
      <point x="28.3333" y="88.3333" type="line" name="n00"/>
      <point x="445" y="88.3333" type="line"/>
      <point x="460" y="175" type="line"/>
      <point x="295" y="175" type="line"/>
      <point x="318.333" y="306.667" type="line" name="n04"/>
      <point x="483.333" y="306.667" type="line"/>
      <point x="498.667" y="393.333" type="line" name="n06"/>
      <point x="333.667" y="393.333" type="line" name="n07"/>
      <point x="362.667" y="558.333" type="line"/>
      <point x="276" y="558.333" type="line"/>
      <point x="247" y="393.333" type="line"/>
      <point x="82" y="393.333" type="line"/>
      <point x="66.6667" y="306.667" type="line"/>
      <point x="231.667" y="306.667" type="line"/>
      <point x="208.333" y="175" type="line"/>
      <point x="43.3333" y="175" type="line" name="n15"/>
    </contour>
  </outline>
</glyph>
<glyph name="uni00B2" format="2">
  <advance width="338"/>
  <unicode hex="00B2"/>
  <outline>
    <contour>
      <point x="73" y="360" type="line"/>
      <point x="341.333" y="360" type="line" name="n01"/>
      <point x="353.333" y="426.667" type="line" name="n02"/>
      <point x="185" y="426.667" type="line"/>
      <point x="193" y="484.333"/>
      <point x="363.667" y="482.333"/>
      <point x="382.333" y="595" type="curve"/>
      <point x="394.333" y="660"/>
      <point x="353.667" y="710"/>
      <point x="268.333" y="710" type="curve" smooth="yes" name="n09"/>
      <point x="228.333" y="710"/>
      <point x="193.667" y="698"/>
      <point x="169.333" y="687" type="curve"/>
      <point x="155" y="680"/>
      <point x="142.333" y="673"/>
      <point x="130.667" y="665" type="curve"/>
      <point x="150.667" y="613.333" type="line"/>
      <point x="160.667" y="613.333" type="line"/>
      <point x="165.927" y="617.423"/>
      <point x="176.145" y="624.087"/>
      <point x="183" y="628.333" type="curve"/>
      <point x="196.667" y="635.333"/>
      <point x="216" y="643.333"/>
      <point x="238.333" y="643.333" type="curve" smooth="yes" name="n23"/>
      <point x="274.667" y="643.333"/>
      <point x="288.333" y="626.333"/>
      <point x="282.333" y="595" type="curve" smooth="yes"/>
      <point x="271.667" y="530.667"/>
      <point x="104" y="535.333"/>
      <point x="81.3333" y="406.667" type="curve" smooth="yes"/>
    </contour>
  </outline>
</glyph>
<glyph name="uni00B3" format="2">
  <advance width="334"/>
  <unicode hex="00B3"/>
  <outline>
    <contour>
      <point x="190.667" y="350" type="curve" smooth="yes" name="n00"/>
      <point x="283.667" y="350"/>
      <point x="344.667" y="401"/>
      <point x="355.333" y="460" type="curve" smooth="yes" name="n03"/>
      <point x="365.667" y="522"/>
      <point x="328.333" y="566.667"/>
      <point x="250" y="568.333" type="curve" name="n06"/>
      <point x="365.333" y="628.333" type="line"/>
      <point x="378.333" y="700" type="line" name="n08"/>
      <point x="139" y="700" type="line" name="n09"/>
      <point x="127" y="633.333" type="line" name="n10"/>
      <point x="268" y="633.333" type="line"/>
      <point x="140" y="560" type="line"/>
      <point x="130.667" y="506.667" type="line"/>
      <point x="196.667" y="506.667" type="line" smooth="yes" name="n14"/>
      <point x="242.333" y="506.667"/>
      <point x="256.667" y="489"/>
      <point x="252" y="461.667" type="curve" name="n17"/>
      <point x="246.333" y="434.333"/>
      <point x="225.667" y="416.667"/>
      <point x="186" y="416.667" type="curve" smooth="yes" name="n20"/>
      <point x="163" y="416.667"/>
      <point x="146" y="423.667"/>
      <point x="134.667" y="431.667" type="curve"/>
      <point x="127.667" y="435.667"/>
      <point x="122" y="440.667"/>
      <point x="117.667" y="446.667" type="curve"/>
      <point x="107.667" y="446.667" type="line"/>
      <point x="69" y="395" type="line" name="n28"/>
      <point x="77" y="386"/>
      <point x="87.3333" y="379"/>
      <point x="99.6667" y="372" type="curve" smooth="yes"/>
      <point x="120" y="361"/>
      <point x="150.667" y="350"/>
    </contour>
  </outline>
</glyph>
<glyph name="acute" format="2">
  <advance width="183"/>
  <unicode hex="00B4"/>
  <outline>
    <contour>
      <point x="81" y="550" type="line" name="n00"/>
      <point x="151" y="550" type="line" name="n01"/>
      <point x="271.333" y="700" type="line" name="n02"/>
      <point x="153" y="700" type="line" name="n03"/>
    </contour>
  </outline>
</glyph>
<glyph name="mu" format="2">
  <advance width="560"/>
  <unicode hex="00B5"/>
  <outline>
    <contour>
      <point x="12.3333" y="-200" type="line" name="n00"/>
      <point x="92.3333" y="-200" type="line"/>
      <point x="132" y="-166.667" type="line"/>
      <point x="164.667" y="20" type="line"/>
      <point x="170.333" y="14"/>
      <point x="176.667" y="9"/>
      <point x="184.333" y="5" type="curve"/>
      <point x="198" y="-3"/>
      <point x="216.333" y="-10"/>
      <point x="239.667" y="-10" type="curve" smooth="yes" name="n09"/>
      <point x="277.667" y="-10"/>
      <point x="310.333" y="5.33333"/>
      <point x="336" y="21.6667" type="curve" smooth="yes"/>
      <point x="350.333" y="31"/>
      <point x="363.333" y="41.6667"/>
      <point x="375.333" y="53.3333" type="curve"/>
      <point x="380.333" y="53.3333" type="line"/>
      <point x="381.667" y="0" type="line" name="n17"/>
      <point x="461.667" y="0" type="line"/>
      <point x="549.667" y="500" type="line" name="n19"/>
      <point x="436.333" y="500" type="line"/>
      <point x="370" y="125" type="line"/>
      <point x="360" y="115.333"/>
      <point x="349" y="106"/>
      <point x="337.667" y="98.3333" type="curve" smooth="yes"/>
      <point x="318" y="84.6667"/>
      <point x="291.667" y="71.6667" name="hr02"/>
      <point x="262" y="71.6667" type="curve" smooth="yes" name="n27"/>
      <point x="209.667" y="71.6667"/>
      <point x="179.667" y="107.667"/>
      <point x="190.667" y="166.667" type="curve" smooth="yes"/>
      <point x="249.667" y="500" type="line"/>
      <point x="136.333" y="500" type="line"/>
    </contour>
  </outline>
</glyph>
<glyph name="paragraph" format="2">
  <advance width="570"/>
  <unicode hex="00B6"/>
  <outline>
    <contour>
      <point x="162.333" y="-200" type="line"/>
      <point x="262.333" y="-200" type="line"/>
      <point x="408" y="623.333" type="line"/>
      <point x="471.333" y="623.333" type="line"/>
      <point x="325.667" y="-200" type="line"/>
      <point x="425.667" y="-200" type="line"/>
      <point x="571.333" y="623.333" type="line"/>
      <point x="644.667" y="623.333" type="line" name="n07"/>
      <point x="658" y="700" type="line" name="n08"/>
      <point x="321.333" y="700" type="line" smooth="yes"/>
      <point x="208.667" y="700"/>
      <point x="101.333" y="610.333"/>
      <point x="80.6667" y="488.333" type="curve"/>
      <point x="58.6667" y="366.333"/>
      <point x="135" y="276.667"/>
      <point x="247" y="276.667" type="curve"/>
    </contour>
  </outline>
</glyph>
<glyph name="periodcentered" format="2">
  <advance width="293"/>
  <unicode hex="00B7"/>
  <outline>
    <contour>
      <point x="147" y="375" type="curve" smooth="yes" name="n00"/>
      <point x="129" y="351.667"/>
      <point x="130.333" y="323.333"/>
      <point x="151" y="310" type="curve" smooth="yes"/>
      <point x="172" y="296.667"/>
      <point x="200.333" y="301.667"/>
      <point x="218.333" y="325" type="curve" smooth="yes" name="n06"/>
      <point x="236.333" y="348.333"/>
      <point x="235.667" y="376.667"/>
      <point x="215" y="390" type="curve" smooth="yes"/>
      <point x="194" y="403.333"/>
      <point x="165" y="398.333"/>
    </contour>
  </outline>
</glyph>
<glyph name="cedilla" format="2">
  <advance width="202"/>
  <unicode hex="00B8"/>
  <outline>
    <contour>
      <point x="32.3333" y="-191.667" type="curve" smooth="yes" name="n00"/>
      <point x="96" y="-191.667"/>
      <point x="138.667" y="-155"/>
      <point x="146.667" y="-110" type="curve" smooth="yes" name="n03"/>
      <point x="154.667" y="-65"/>
      <point x="125.333" y="-28.3333"/>
      <point x="69.3333" y="-28.3333" type="curve"/>
      <point x="78" y="20" type="line"/>
      <point x="13" y="20" type="line" name="n08"/>
      <point x="-4.33333" y="-76.6667" type="line" name="n09"/>
      <point x="39" y="-76.6667" type="line" smooth="yes"/>
      <point x="66.3333" y="-76.6667"/>
      <point x="79" y="-90"/>
      <point x="75" y="-110" type="curve" name="n13"/>
      <point x="72" y="-130"/>
      <point x="54.3333" y="-143.333"/>
      <point x="31" y="-143.333" type="curve" smooth="yes" name="n16"/>
      <point x="6" y="-143.333"/>
      <point x="-12.3333" y="-128.333"/>
      <point x="-11.3333" y="-128.333" type="curve"/>
      <point x="-20.3333" y="-128.333" type="line"/>
      <point x="-44.3333" y="-171.667" type="line"/>
      <point x="-39" y="-175.667"/>
      <point x="-32" y="-178.667"/>
      <point x="-24.6667" y="-181.667" type="curve" smooth="yes"/>
      <point x="-11.6667" y="-186.667"/>
      <point x="7.33333" y="-191.667"/>
    </contour>
  </outline>
</glyph>
<glyph name="uni00B9" format="2">
  <advance width="322"/>
  <unicode hex="00B9"/>
  <outline>
    <contour>
      <point x="83" y="360" type="line" name="n00"/>
      <point x="329.667" y="360" type="line"/>
      <point x="341.667" y="426.667" type="line" name="n02"/>
      <point x="268.333" y="426.667" type="line"/>
      <point x="316.333" y="700" type="line" name="n04"/>
      <point x="223" y="700" type="line"/>
      <point x="114" y="620" type="line"/>
      <point x="137.333" y="573.333" type="line"/>
      <point x="199.333" y="605" type="line"/>
      <point x="168.333" y="426.667" type="line"/>
      <point x="95" y="426.667" type="line" name="n10"/>
    </contour>
  </outline>
</glyph>
<glyph name="ordmasculine" format="2">
  <advance width="400"/>
  <unicode hex="00BA"/>
  <outline>
    <contour>
      <point x="236" y="350" type="curve" smooth="yes" name="n00"/>
      <point x="333.333" y="350"/>
      <point x="413.333" y="418"/>
      <point x="433" y="530" type="curve" smooth="yes"/>
      <point x="452.667" y="642"/>
      <point x="397.333" y="710"/>
      <point x="300" y="710" type="curve" smooth="yes" name="n06"/>
      <point x="202.333" y="710"/>
      <point x="122.667" y="642"/>
      <point x="103" y="530" type="curve" smooth="yes"/>
      <point x="83.3333" y="418"/>
      <point x="138.667" y="350"/>
    </contour>
    <contour>
      <point x="248" y="416.667" type="curve" smooth="yes" name="n12"/>
      <point x="211" y="416.667"/>
      <point x="188" y="444.333"/>
      <point x="203" y="530" type="curve" smooth="yes"/>
      <point x="218" y="615.667"/>
      <point x="251" y="643.333"/>
      <point x="288" y="643.333" type="curve" smooth="yes" name="n18"/>
      <point x="324.333" y="643.333"/>
      <point x="348" y="614.333"/>
      <point x="333" y="530" type="curve" smooth="yes"/>
      <point x="318" y="444.333"/>
      <point x="284.333" y="416.667"/>
    </contour>
  </outline>
</glyph>
<glyph name="guillemotright" format="2">
  <advance width="490"/>
  <unicode hex="00BB"/>
  <outline>
    <contour>
      <point x="369" y="250" type="line"/>
      <point x="177" y="63.3333" type="line"/>
      <point x="236.333" y="-1.66667" type="line" name="n02"/>
      <point x="499" y="250" type="line" name="n03"/>
      <point x="325" y="501.667" type="line" name="n04"/>
      <point x="242.667" y="436.667" type="line"/>
    </contour>
    <contour>
      <point x="294" y="250" type="line"/>
      <point x="146" y="463.333" type="line"/>
      <point x="64.6667" y="398.333" type="line"/>
      <point x="164" y="250" type="line"/>
      <point x="12.3333" y="101.667" type="line" name="n10"/>
      <point x="71.3333" y="36.6667" type="line"/>
    </contour>
  </outline>
</glyph>
<glyph name="onequarter" format="2">
  <advance width="770"/>
  <unicode hex="00BC"/>
  <outline>
    <contour>
      <point x="80" y="0" type="line"/>
      <point x="203.333" y="0" type="line"/>
      <point x="796.333" y="700" type="line" name="n02"/>
      <point x="673" y="700" type="line"/>
    </contour>
    <contour>
      <point x="84.6667" y="360" type="line" name="n04"/>
      <point x="331.333" y="360" type="line"/>
      <point x="343.333" y="426.667" type="line"/>
      <point x="270" y="426.667" type="line"/>
      <point x="318" y="700" type="line"/>
      <point x="228" y="700" type="line"/>
      <point x="115.667" y="620" type="line"/>
      <point x="139" y="573.333" type="line"/>
      <point x="201" y="605" type="line"/>
      <point x="170" y="426.667" type="line"/>
      <point x="96.6667" y="426.667" type="line" name="n14"/>
    </contour>
    <contour>
      <point x="561.667" y="0" type="line" name="n15"/>
      <point x="661.667" y="0" type="line"/>
      <point x="673" y="66.6667" type="line" name="n17"/>
      <point x="721.333" y="66.6667" type="line"/>
      <point x="732.667" y="133.333" type="line"/>
      <point x="684.333" y="133.333" type="line" name="n20"/>
      <point x="720.667" y="340" type="line"/>
      <point x="622.333" y="340" type="line" name="n22"/>
      <point x="416" y="133.333" type="line"/>
      <point x="404.667" y="66.6667" type="line"/>
      <point x="573" y="66.6667" type="line"/>
    </contour>
    <contour>
      <point x="501" y="133.333" type="line"/>
      <point x="582.333" y="214.667" type="line" smooth="yes"/>
      <point x="591.294" y="223.57"/>
      <point x="601.644" y="241.628"/>
      <point x="607.667" y="253.667" type="curve"/>
      <point x="611.667" y="253.667" type="line" name="n31"/>
      <point x="607.082" y="243.716"/>
      <point x="600.969" y="225.957"/>
      <point x="599" y="215" type="curve" smooth="yes"/>
      <point x="584.333" y="133.333" type="line" name="n35"/>
    </contour>
  </outline>
</glyph>
<glyph name="onehalf" format="2">
  <advance width="768"/>
  <unicode hex="00BD"/>
  <outline>
    <contour>
      <point x="80" y="0" type="line"/>
      <point x="203.333" y="0" type="line"/>
      <point x="796.333" y="700" type="line" name="n02"/>
      <point x="673" y="700" type="line"/>
    </contour>
    <contour>
      <point x="84.6667" y="360" type="line" name="n04"/>
      <point x="331.333" y="360" type="line"/>
      <point x="343.333" y="426.667" type="line"/>
      <point x="270" y="426.667" type="line"/>
      <point x="318" y="700" type="line"/>
      <point x="228" y="700" type="line"/>
      <point x="115.667" y="620" type="line"/>
      <point x="139" y="573.333" type="line"/>
      <point x="201" y="605" type="line"/>
      <point x="170" y="426.667" type="line"/>
      <point x="96.6667" y="426.667" type="line" name="n14"/>
    </contour>
    <contour>
      <point x="440" y="0" type="line"/>
      <point x="708.333" y="0" type="line" name="n16"/>
      <point x="719.667" y="66.6667" type="line" name="n17"/>
      <point x="551.333" y="66.6667" type="line"/>
      <point x="555.767" y="90.3469"/>
      <point x="587.222" y="104.017"/>
      <point x="623.92" y="119.958" type="curve" smooth="yes"/>
      <point x="685.468" y="146.694"/>
      <point x="751.098" y="178.268"/>
      <point x="751.098" y="252.096" type="curve" smooth="yes"/>
      <point x="751.098" y="310.148"/>
      <point x="710.516" y="350"/>
      <point x="635.898" y="350" type="curve" smooth="yes" name="n27"/>
      <point x="585.659" y="350"/>
      <point x="536.629" y="332.463"/>
      <point x="496.667" y="305" type="curve"/>
      <point x="517" y="253.333" type="line"/>
      <point x="527" y="253.333" type="line"/>
      <point x="550.046" y="271.344"/>
      <point x="576.311" y="283.333"/>
      <point x="605.233" y="283.333" type="curve" smooth="yes" name="n35"/>
      <point x="635.543" y="283.333"/>
      <point x="650.312" y="270.385"/>
      <point x="650.312" y="246.868" type="curve" smooth="yes"/>
      <point x="650.312" y="207.313"/>
      <point x="606.772" y="188"/>
      <point x="578.34" y="177.216" type="curve" smooth="yes"/>
      <point x="522.555" y="156.28"/>
      <point x="461.442" y="121.967"/>
      <point x="448" y="46.6667" type="curve" smooth="yes"/>
    </contour>
  </outline>
</glyph>
<glyph name="threequarters" format="2">
  <advance width="759"/>
  <unicode hex="00BE"/>
  <outline>
    <contour>
      <point x="68.6667" y="0" type="line" name="n00"/>
      <point x="192" y="0" type="line"/>
      <point x="785" y="700" type="line" name="n02"/>
      <point x="661.667" y="700" type="line"/>
    </contour>
    <contour>
      <point x="197.333" y="350" type="curve" smooth="yes" name="n04"/>
      <point x="290.333" y="350"/>
      <point x="351.333" y="401"/>
      <point x="362" y="460" type="curve" smooth="yes" name="n07"/>
      <point x="372.333" y="522"/>
      <point x="335" y="566.667"/>
      <point x="256.667" y="568.333" type="curve" name="n10"/>
      <point x="372" y="628.333" type="line"/>
      <point x="385" y="700" type="line"/>
      <point x="145.667" y="700" type="line" name="n13"/>
      <point x="133.667" y="633.333" type="line" name="n14"/>
      <point x="274.667" y="633.333" type="line"/>
      <point x="146.667" y="560" type="line"/>
      <point x="137.333" y="506.667" type="line"/>
      <point x="203.333" y="506.667" type="line" smooth="yes" name="n18"/>
      <point x="249" y="506.667"/>
      <point x="263.333" y="489"/>
      <point x="258.667" y="461.667" type="curve" name="n21"/>
      <point x="253" y="434.333"/>
      <point x="232.333" y="416.667"/>
      <point x="192.667" y="416.667" type="curve" smooth="yes" name="n24"/>
      <point x="169.667" y="416.667"/>
      <point x="152.667" y="423.667"/>
      <point x="141.333" y="431.667" type="curve"/>
      <point x="134.333" y="435.667"/>
      <point x="128.667" y="440.667"/>
      <point x="124.333" y="446.667" type="curve"/>
      <point x="114.333" y="446.667" type="line"/>
      <point x="75.6667" y="395" type="line"/>
      <point x="83.6667" y="386"/>
      <point x="94" y="379"/>
      <point x="106.333" y="372" type="curve" smooth="yes"/>
      <point x="126.667" y="361"/>
      <point x="157.333" y="350"/>
    </contour>
    <contour>
      <point x="550.333" y="0" type="line" name="n38"/>
      <point x="650.333" y="0" type="line" name="hr03"/>
      <point x="661.667" y="66.6667" type="line" name="n40"/>
      <point x="710" y="66.6667" type="line" name="hr02"/>
      <point x="721.333" y="133.333" type="line"/>
      <point x="673" y="133.333" type="line" name="n43"/>
      <point x="709.333" y="340" type="line"/>
      <point x="611" y="340" type="line" name="n45"/>
      <point x="404.667" y="133.333" type="line"/>
      <point x="393.333" y="66.6667" type="line"/>
      <point x="561.667" y="66.6667" type="line"/>
    </contour>
    <contour>
      <point x="489.667" y="133.333" type="line"/>
      <point x="571" y="214.667" type="line"/>
      <point x="576.667" y="219.667"/>
      <point x="583.333" y="230.333"/>
      <point x="588" y="238.667" type="curve"/>
      <point x="589.971" y="241.5"/>
      <point x="594.644" y="250.401"/>
      <point x="596.333" y="253.667" type="curve"/>
      <point x="600.333" y="253.667" type="line" name="n57"/>
      <point x="594.667" y="239.333" type="line"/>
      <point x="591.667" y="231"/>
      <point x="588.333" y="221.333"/>
      <point x="587.667" y="215" type="curve"/>
      <point x="573" y="133.333" type="line" name="n62"/>
    </contour>
  </outline>
</glyph>
<glyph name="questiondown" format="2">
  <advance width="470"/>
  <unicode hex="00BF"/>
  <outline>
    <contour>
      <point x="373" y="420" type="curve" smooth="yes" name="n00"/>
      <point x="391" y="443.333"/>
      <point x="389.667" y="471.667"/>
      <point x="369" y="485" type="curve" smooth="yes"/>
      <point x="348" y="498.333"/>
      <point x="319.667" y="493.333"/>
      <point x="301.667" y="470" type="curve" smooth="yes" name="n06"/>
      <point x="283.667" y="446.667"/>
      <point x="284.333" y="418.333"/>
      <point x="305" y="405" type="curve" smooth="yes"/>
      <point x="326" y="391.667"/>
      <point x="355" y="396.667"/>
    </contour>
    <contour>
      <point x="250.667" y="143.333" type="curve" name="n12"/>
      <point x="272.35" y="137.712"/>
      <point x="286.911" y="123.967"/>
      <point x="298.667" y="125.667" type="curve"/>
      <point x="290" y="41"/>
      <point x="166.333" y="45.3333"/>
      <point x="153" y="-65" type="curve"/>
      <point x="138.5" y="-133.602"/>
      <point x="175.715" y="-171.146"/>
      <point x="270" y="-165" type="curve"/>
      <point x="312.632" y="-165"/>
      <point x="344.411" y="-157"/>
      <point x="367.333" y="-147" type="curve"/>
      <point x="377.667" y="-144.667"/>
      <point x="385.667" y="-141"/>
      <point x="390.667" y="-136" type="curve"/>
      <point x="380.4" y="-134.834"/>
      <point x="356.993" y="-111.65"/>
      <point x="338" y="-103.333" type="curve" name="n30"/>
      <point x="309.669" y="-103.333"/>
      <point x="294.744" y="-90.3333"/>
      <point x="296.667" y="-73.3333" type="curve"/>
      <point x="297.333" y="-36"/>
      <point x="350" y="-41"/>
      <point x="349.333" y="11.3333" type="curve"/>
      <point x="331.552" y="5.31318"/>
      <point x="308.662" y="4.63978"/>
      <point x="279" y="6.66667" type="curve"/>
      <point x="212.41" y="6.66667"/>
      <point x="158.122" y="40"/>
      <point x="158.333" y="80" type="curve"/>
      <point x="174.068" y="171.742"/>
      <point x="297.655" y="165.263"/>
      <point x="316" y="276.667" type="curve"/>
      <point x="309.933" y="243.427"/>
      <point x="248.347" y="261.365"/>
      <point x="238.667" y="206.667" type="curve"/>
      <point x="222.378" y="170"/>
      <point x="208.917" y="143.333"/>
    </contour>
  </outline>
</glyph>
<glyph name="Agrave" format="2">
  <advance width="580"/>
  <unicode hex="00C0"/>
  <outline>
    <contour>
      <point x="368" y="750" type="line"/>
      <point x="438" y="750" type="line" name="n01"/>
      <point x="420" y="900" type="line" name="n02"/>
      <point x="301.667" y="900" type="line"/>
    </contour>
    <contour>
      <point x="-10" y="0" type="line" name="n04"/>
      <point x="103.333" y="0" type="line"/>
      <point x="185" y="173.333" type="line"/>
      <point x="405" y="173.333" type="line" name="n07"/>
      <point x="426.667" y="0" type="line"/>
      <point x="540" y="0" type="line" name="n09"/>
      <point x="458" y="700" type="line" name="n10"/>
      <point x="318" y="700" type="line" name="n11"/>
    </contour>
    <contour>
      <point x="220.667" y="250" type="line"/>
      <point x="338.333" y="503.333" type="line" smooth="yes"/>
      <point x="345.333" y="519"/>
      <point x="351.333" y="535"/>
      <point x="356.333" y="550.333" type="curve"/>
      <point x="358.789" y="557.147"/>
      <point x="361.894" y="568.238"/>
      <point x="363.667" y="575" type="curve" name="n19"/>
      <point x="367.667" y="575" type="line"/>
      <point x="366.667" y="567.333"/>
      <point x="366.333" y="559.333"/>
      <point x="366.333" y="551" type="curve"/>
      <point x="366" y="536"/>
      <point x="365.333" y="518.667"/>
      <point x="368.333" y="503.333" type="curve"/>
      <point x="397.333" y="250" type="line" name="n27"/>
    </contour>
  </outline>
</glyph>
<glyph name="Aacute" format="2">
  <advance width="580"/>
  <unicode hex="00C1"/>
  <outline>
    <contour>
      <point x="343" y="750" type="line"/>
      <point x="413" y="750" type="line" name="n01"/>
      <point x="533.333" y="900" type="line"/>
      <point x="415" y="900" type="line" name="n03"/>
    </contour>
    <contour>
      <point x="-10" y="0" type="line" name="n04"/>
      <point x="103.333" y="0" type="line"/>
      <point x="185" y="173.333" type="line"/>
      <point x="405" y="173.333" type="line" name="n07"/>
      <point x="426.667" y="0" type="line"/>
      <point x="540" y="0" type="line" name="n09"/>
      <point x="458" y="700" type="line" name="n10"/>
      <point x="318" y="700" type="line" name="n11"/>
    </contour>
    <contour>
      <point x="220.667" y="250" type="line"/>
      <point x="338.333" y="503.333" type="line" smooth="yes"/>
      <point x="345.333" y="519"/>
      <point x="351.333" y="535"/>
      <point x="356.333" y="550.333" type="curve"/>
      <point x="358.789" y="557.147"/>
      <point x="361.894" y="568.238"/>
      <point x="363.667" y="575" type="curve" name="n19"/>
      <point x="367.667" y="575" type="line"/>
      <point x="366.667" y="567.333"/>
      <point x="366.333" y="559.333"/>
      <point x="366.333" y="551" type="curve"/>
      <point x="366" y="536"/>
      <point x="365.333" y="518.667"/>
      <point x="368.333" y="503.333" type="curve"/>
      <point x="397.333" y="250" type="line" name="n27"/>
    </contour>
  </outline>
</glyph>
<glyph name="Acircumflex" format="2">
  <advance width="580"/>
  <unicode hex="00C2"/>
  <outline>
    <contour>
      <point x="249.333" y="750" type="line"/>
      <point x="324.333" y="750" type="line"/>
      <point x="408.333" y="816.667" type="line"/>
      <point x="467.667" y="750" type="line" name="n03"/>
      <point x="542.667" y="750" type="line" name="n04"/>
      <point x="459.333" y="881.333" type="line" name="n05"/>
      <point x="379.333" y="881.333" type="line"/>
    </contour>
    <contour>
      <point x="-10" y="0" type="line" name="n07"/>
      <point x="103.333" y="0" type="line"/>
      <point x="185" y="173.333" type="line"/>
      <point x="405" y="173.333" type="line" name="n10"/>
      <point x="426.667" y="0" type="line"/>
      <point x="540" y="0" type="line"/>
      <point x="458" y="700" type="line" name="n13"/>
      <point x="318" y="700" type="line" name="n14"/>
    </contour>
    <contour>
      <point x="220.667" y="250" type="line"/>
      <point x="338.333" y="503.333" type="line" smooth="yes"/>
      <point x="345.333" y="519"/>
      <point x="351.333" y="535"/>
      <point x="356.333" y="550.333" type="curve"/>
      <point x="358.789" y="557.147"/>
      <point x="361.894" y="568.238"/>
      <point x="363.667" y="575" type="curve" name="n22"/>
      <point x="367.667" y="575" type="line"/>
      <point x="366.667" y="567.333"/>
      <point x="366.333" y="559.333"/>
      <point x="366.333" y="551" type="curve"/>
      <point x="366" y="536"/>
      <point x="365.333" y="518.667"/>
      <point x="368.333" y="503.333" type="curve"/>
      <point x="397.333" y="250" type="line" name="n30"/>
    </contour>
  </outline>
</glyph>
<glyph name="Atilde" format="2">
  <advance width="580"/>
  <unicode hex="00C3"/>
  <outline>
    <contour>
      <point x="392.333" y="753.333" type="curve"/>
      <point x="426.333" y="753.667"/>
      <point x="454.667" y="793"/>
      <point x="478" y="823.333" type="curve" name="n03"/>
      <point x="486.291" y="825.678" name="hr01"/>
      <point x="474.735" y="821.249"/>
      <point x="488" y="825" type="curve" name="n06"/>
      <point x="503.42" y="825"/>
      <point x="515.981" y="841.333"/>
      <point x="519.333" y="858.333" type="curve" name="n09"/>
      <point x="519.217" y="857.736"/>
      <point x="490.818" y="838.909"/>
      <point x="467.333" y="841.667" type="curve"/>
      <point x="446.245" y="841.667"/>
      <point x="444.36" y="871.667"/>
      <point x="409.667" y="871.667" type="curve"/>
      <point x="376" y="871.333"/>
      <point x="347.667" y="831.333"/>
      <point x="324" y="801.667" type="curve" name="n18"/>
      <point x="315.704" y="799.326" name="hr02"/>
      <point x="326.704" y="803.678"/>
      <point x="313.667" y="800" type="curve" name="n21"/>
      <point x="297.616" y="800"/>
      <point x="285.687" y="783.667"/>
      <point x="282.333" y="766.667" type="curve"/>
      <point x="282.452" y="765.93"/>
      <point x="311.112" y="784.758"/>
      <point x="334.667" y="783.333" type="curve"/>
      <point x="355.755" y="783.333"/>
      <point x="357.64" y="753.333"/>
    </contour>
    <contour>
      <point x="99.3333" y="233.333" type="line" name="n30"/>
      <point x="56.6667" y="0" type="line" name="n31"/>
      <point x="160.667" y="120" type="line"/>
      <point x="338.333" y="173.333" type="line"/>
      <point x="421" y="53.3333" type="line" name="n34"/>
      <point x="493.333" y="0" type="line" name="hr03"/>
      <point x="485.333" y="466.667" type="line"/>
      <point x="371.333" y="700" type="line"/>
    </contour>
    <contour>
      <point x="220.667" y="250" type="line"/>
      <point x="338.333" y="503.333" type="line" smooth="yes" name="hr05"/>
      <point x="345.333" y="519"/>
      <point x="351.333" y="535"/>
      <point x="356.333" y="550.333" type="curve"/>
      <point x="358.789" y="557.147"/>
      <point x="361.894" y="568.238"/>
      <point x="363.667" y="575" type="curve" name="n45"/>
      <point x="367.667" y="575" type="line" name="hr06"/>
      <point x="366.667" y="567.333"/>
      <point x="366.333" y="559.333"/>
      <point x="366.333" y="551" type="curve"/>
      <point x="366" y="536"/>
      <point x="365.333" y="518.667"/>
      <point x="368.333" y="503.333" type="curve"/>
      <point x="397.333" y="250" type="line" name="n53"/>
    </contour>
  </outline>
</glyph>
<glyph name="Adieresis" format="2">
  <advance width="580"/>
  <unicode hex="00C4"/>
  <outline>
    <contour>
      <point x="304" y="756.667" type="curve" smooth="yes" name="n00"/>
      <point x="337.333" y="756.667"/>
      <point x="368.333" y="783"/>
      <point x="374.667" y="816.667" type="curve" smooth="yes"/>
      <point x="380.333" y="850.333"/>
      <point x="359.333" y="876.667"/>
      <point x="325.667" y="876.667" type="curve" smooth="yes" name="n06"/>
      <point x="292" y="876.667"/>
      <point x="260.667" y="850.333"/>
      <point x="254.667" y="816.667" type="curve"/>
      <point x="247.667" y="783"/>
      <point x="270.333" y="756.667"/>
    </contour>
    <contour>
      <point x="485.667" y="756.667" type="curve" smooth="yes"/>
      <point x="519" y="756.667"/>
      <point x="550" y="783"/>
      <point x="556.333" y="816.667" type="curve" smooth="yes"/>
      <point x="562" y="850.333"/>
      <point x="541" y="876.667"/>
      <point x="507.333" y="876.667" type="curve" smooth="yes"/>
      <point x="473.667" y="876.667"/>
      <point x="442.333" y="850.333"/>
      <point x="436.333" y="816.667" type="curve"/>
      <point x="429.333" y="783"/>
      <point x="452" y="756.667"/>
    </contour>
    <contour>
      <point x="-10" y="0" type="line" name="n24"/>
      <point x="103.333" y="0" type="line"/>
      <point x="185" y="173.333" type="line"/>
      <point x="405" y="173.333" type="line" name="n27"/>
      <point x="426.667" y="0" type="line"/>
      <point x="540" y="0" type="line"/>
      <point x="458" y="700" type="line" name="n30"/>
      <point x="318" y="700" type="line" name="n31"/>
    </contour>
    <contour>
      <point x="220.667" y="250" type="line"/>
      <point x="338.333" y="503.333" type="line" smooth="yes"/>
      <point x="345.333" y="519"/>
      <point x="351.333" y="535"/>
      <point x="356.333" y="550.333" type="curve"/>
      <point x="358.789" y="557.147"/>
      <point x="361.894" y="568.238"/>
      <point x="363.667" y="575" type="curve" name="n39"/>
      <point x="367.667" y="575" type="line"/>
      <point x="366.667" y="567.333"/>
      <point x="366.333" y="559.333"/>
      <point x="366.333" y="551" type="curve"/>
      <point x="366" y="536"/>
      <point x="365.333" y="518.667"/>
      <point x="368.333" y="503.333" type="curve"/>
      <point x="397.333" y="250" type="line" name="n47"/>
    </contour>
  </outline>
</glyph>
<glyph name="Aring" format="2">
  <advance width="580"/>
  <unicode hex="00C5"/>
  <outline>
    <contour>
      <point x="395.333" y="741.667" type="curve" smooth="yes" name="n00"/>
      <point x="457" y="741.667"/>
      <point x="505.667" y="782.667"/>
      <point x="515.333" y="840" type="curve"/>
      <point x="526.333" y="897.333"/>
      <point x="491.333" y="938.333"/>
      <point x="429.667" y="938.333" type="curve" smooth="yes" name="n06"/>
      <point x="368" y="938.333"/>
      <point x="319.667" y="897.333"/>
      <point x="308.667" y="840" type="curve"/>
      <point x="299" y="782.667"/>
      <point x="333.667" y="741.667"/>
    </contour>
    <contour>
      <point x="405" y="796.667" type="curve" smooth="yes" name="n12"/>
      <point x="385" y="796.667"/>
      <point x="369" y="811"/>
      <point x="373.667" y="840" type="curve"/>
      <point x="380" y="869"/>
      <point x="399.667" y="883.333"/>
      <point x="419.667" y="883.333" type="curve" smooth="yes" name="n18"/>
      <point x="439.667" y="883.333"/>
      <point x="456.667" y="869"/>
      <point x="450.333" y="840" type="curve"/>
      <point x="445.667" y="811"/>
      <point x="425" y="796.667"/>
    </contour>
    <contour>
      <point x="-10" y="0" type="line" name="n24"/>
      <point x="103.333" y="0" type="line"/>
      <point x="185" y="173.333" type="line"/>
      <point x="405" y="173.333" type="line" name="n27"/>
      <point x="426.667" y="0" type="line"/>
      <point x="540" y="0" type="line" name="n29"/>
      <point x="458" y="700" type="line" name="n30"/>
      <point x="318" y="700" type="line" name="n31"/>
    </contour>
    <contour>
      <point x="220.667" y="250" type="line"/>
      <point x="338.333" y="503.333" type="line" smooth="yes"/>
      <point x="345.333" y="519"/>
      <point x="351.333" y="535"/>
      <point x="356.333" y="550.333" type="curve"/>
      <point x="358.789" y="557.147"/>
      <point x="361.894" y="568.238"/>
      <point x="363.667" y="575" type="curve" name="n39"/>
      <point x="367.667" y="575" type="line"/>
      <point x="366.667" y="567.333"/>
      <point x="366.333" y="559.333"/>
      <point x="366.333" y="551" type="curve"/>
      <point x="366" y="536"/>
      <point x="365.333" y="518.667"/>
      <point x="368.333" y="503.333" type="curve"/>
      <point x="397.333" y="250" type="line" name="n47"/>
    </contour>
  </outline>
</glyph>
<glyph name="AE" format="2">
  <advance width="825"/>
  <unicode hex="00C6"/>
  <outline>
    <contour>
      <point x="-46.6667" y="0" type="line" name="n00"/>
      <point x="66.6667" y="0" type="line"/>
      <point x="184.333" y="196.667" type="line"/>
      <point x="406" y="196.667" type="line" name="n03"/>
      <point x="371.667" y="0" type="line"/>
      <point x="771.667" y="0" type="line" name="n05"/>
      <point x="784.667" y="76.6667" type="line" name="n06"/>
      <point x="498" y="76.6667" type="line"/>
      <point x="542.333" y="326.667" type="line" name="n08"/>
      <point x="769" y="326.667" type="line"/>
      <point x="782.333" y="403.333" type="line"/>
      <point x="555.667" y="403.333" type="line" name="n11"/>
      <point x="594.667" y="623.333" type="line"/>
      <point x="881.333" y="623.333" type="line" name="n13"/>
      <point x="894.667" y="700" type="line" name="n14"/>
      <point x="371.333" y="700" type="line"/>
    </contour>
    <contour>
      <point x="231" y="273.333" type="line"/>
      <point x="438" y="623.333" type="line"/>
      <point x="481.333" y="623.333" type="line"/>
      <point x="419.333" y="273.333" type="line" name="n19"/>
    </contour>
  </outline>
</glyph>
<glyph name="Ccedilla" format="2">
  <advance width="522"/>
  <unicode hex="00C7"/>
  <outline>
    <contour>
      <point x="536.333" y="682" type="curve"/>
      <point x="508" y="697"/>
      <point x="466.333" y="710"/>
      <point x="410" y="710" type="curve" smooth="yes" name="n03"/>
      <point x="255" y="710"/>
      <point x="134.333" y="607.667"/>
      <point x="89.3333" y="350" type="curve" smooth="yes"/>
      <point x="50.3333" y="126.333"/>
      <point x="107" y="20.3333"/>
      <point x="230.667" y="-4.66667" type="curve" name="n09"/>
      <point x="217.333" y="-76.6667" type="line"/>
      <point x="260.667" y="-76.6667" type="line" smooth="yes" name="n11"/>
      <point x="288" y="-76.6667"/>
      <point x="300.667" y="-90"/>
      <point x="296.667" y="-110" type="curve" name="n14"/>
      <point x="293.667" y="-130"/>
      <point x="276" y="-143.333"/>
      <point x="252.667" y="-143.333" type="curve" smooth="yes" name="n17"/>
      <point x="227.667" y="-143.333"/>
      <point x="209.333" y="-128.333"/>
      <point x="210.333" y="-128.333" type="curve"/>
      <point x="201.333" y="-128.333" type="line"/>
      <point x="177.333" y="-171.667" type="line"/>
      <point x="182.667" y="-175.667"/>
      <point x="189.667" y="-178.667"/>
      <point x="197" y="-181.667" type="curve" smooth="yes"/>
      <point x="210" y="-186.667"/>
      <point x="229" y="-191.667"/>
      <point x="254" y="-191.667" type="curve" smooth="yes" name="n28"/>
      <point x="317.667" y="-191.667"/>
      <point x="360.333" y="-155"/>
      <point x="368.333" y="-110" type="curve" smooth="yes" name="n31"/>
      <point x="376.333" y="-65"/>
      <point x="347" y="-28.3333"/>
      <point x="291" y="-28.3333" type="curve" name="n34"/>
      <point x="294.667" y="-10" type="line" name="n35"/>
      <point x="350.333" y="-9.66667"/>
      <point x="395.667" y="2"/>
      <point x="428.333" y="17" type="curve"/>
      <point x="447.667" y="25"/>
      <point x="465" y="34"/>
      <point x="480.333" y="45" type="curve"/>
      <point x="454.333" y="111.667" type="line"/>
      <point x="444.333" y="111.667" type="line"/>
      <point x="432.667" y="102.667"/>
      <point x="420" y="95.6667"/>
      <point x="407" y="88.6667" type="curve"/>
      <point x="384" y="77.6667"/>
      <point x="352" y="66.6667"/>
      <point x="316.333" y="66.6667" type="curve" smooth="yes" name="n49"/>
      <point x="219.667" y="66.6667"/>
      <point x="163.667" y="133"/>
      <point x="202.667" y="350" type="curve" smooth="yes"/>
      <point x="241.667" y="567"/>
      <point x="318.667" y="633.333"/>
      <point x="406" y="633.333" type="curve" smooth="yes" name="n55"/>
      <point x="441.667" y="633.333"/>
      <point x="469.667" y="621.333"/>
      <point x="488.667" y="610.333" type="curve"/>
      <point x="499.667" y="603.333"/>
      <point x="509.667" y="596.333"/>
      <point x="518" y="588.333" type="curve"/>
      <point x="528" y="588.333" type="line"/>
      <point x="578.333" y="655" type="line"/>
      <point x="567" y="665"/>
      <point x="552.667" y="674"/>
    </contour>
  </outline>
</glyph>
<glyph name="Egrave" format="2">
  <advance width="517"/>
  <unicode hex="00C8"/>
  <outline>
    <contour>
      <point x="381" y="750" type="line"/>
      <point x="451" y="750" type="line" name="n01"/>
      <point x="433" y="900" type="line" name="n02"/>
      <point x="314.667" y="900" type="line"/>
    </contour>
    <contour>
      <point x="63.3333" y="0" type="line" name="n04"/>
      <point x="463.333" y="0" type="line" name="n05"/>
      <point x="476.333" y="76.6667" type="line" name="n06"/>
      <point x="189.667" y="76.6667" type="line"/>
      <point x="234" y="326.667" type="line" name="n08"/>
      <point x="460.667" y="326.667" type="line"/>
      <point x="474" y="403.333" type="line"/>
      <point x="247.333" y="403.333" type="line" name="n11"/>
      <point x="286.333" y="623.333" type="line"/>
      <point x="573" y="623.333" type="line" name="n13"/>
      <point x="586.333" y="700" type="line" name="n14"/>
      <point x="186.333" y="700" type="line"/>
    </contour>
  </outline>
</glyph>
<glyph name="Eacute" format="2">
  <advance width="517"/>
  <unicode hex="00C9"/>
  <outline>
    <contour>
      <point x="336" y="750" type="line"/>
      <point x="406" y="750" type="line" name="n01"/>
      <point x="526.333" y="900" type="line"/>
      <point x="408" y="900" type="line" name="n03"/>
    </contour>
    <contour>
      <point x="63.3333" y="0" type="line" name="n04"/>
      <point x="463.333" y="0" type="line" name="n05"/>
      <point x="476.333" y="76.6667" type="line" name="n06"/>
      <point x="189.667" y="76.6667" type="line"/>
      <point x="234" y="326.667" type="line" name="n08"/>
      <point x="460.667" y="326.667" type="line"/>
      <point x="474" y="403.333" type="line"/>
      <point x="247.333" y="403.333" type="line" name="n11"/>
      <point x="286.333" y="623.333" type="line"/>
      <point x="573" y="623.333" type="line" name="n13"/>
      <point x="586.333" y="700" type="line" name="n14"/>
      <point x="186.333" y="700" type="line"/>
    </contour>
  </outline>
</glyph>
<glyph name="Ecircumflex" format="2">
  <advance width="517"/>
  <unicode hex="00CA"/>
  <outline>
    <contour>
      <point x="253.333" y="760" type="line"/>
      <point x="328.333" y="760" type="line"/>
      <point x="412.333" y="826.667" type="line"/>
      <point x="471.667" y="760" type="line" name="n03"/>
      <point x="546.667" y="760" type="line"/>
      <point x="463.333" y="891.333" type="line" name="n05"/>
      <point x="383.333" y="891.333" type="line"/>
    </contour>
    <contour>
      <point x="63.3333" y="0" type="line" name="n07"/>
      <point x="463.333" y="0" type="line" name="n08"/>
      <point x="476.333" y="76.6667" type="line" name="n09"/>
      <point x="189.667" y="76.6667" type="line"/>
      <point x="234" y="326.667" type="line" name="n11"/>
      <point x="460.667" y="326.667" type="line"/>
      <point x="474" y="403.333" type="line"/>
      <point x="247.333" y="403.333" type="line" name="n14"/>
      <point x="286.333" y="623.333" type="line"/>
      <point x="573" y="623.333" type="line" name="n16"/>
      <point x="586.333" y="700" type="line" name="n17"/>
      <point x="186.333" y="700" type="line"/>
    </contour>
  </outline>
</glyph>
<glyph name="Edieresis" format="2">
  <advance width="517"/>
  <unicode hex="00CB"/>
  <outline>
    <contour>
      <point x="308" y="766.667" type="curve" smooth="yes" name="n00"/>
      <point x="341.333" y="766.667"/>
      <point x="372.333" y="793"/>
      <point x="378.667" y="826.667" type="curve" smooth="yes"/>
      <point x="384.333" y="860.333"/>
      <point x="363.333" y="886.667"/>
      <point x="329.667" y="886.667" type="curve" smooth="yes" name="n06"/>
      <point x="296" y="886.667"/>
      <point x="264.667" y="860.333"/>
      <point x="258.667" y="826.667" type="curve"/>
      <point x="251.667" y="793"/>
      <point x="274.333" y="766.667"/>
    </contour>
    <contour>
      <point x="489.667" y="766.667" type="curve" smooth="yes"/>
      <point x="523" y="766.667"/>
      <point x="554" y="793"/>
      <point x="560.333" y="826.667" type="curve" smooth="yes"/>
      <point x="566" y="860.333"/>
      <point x="545" y="886.667"/>
      <point x="511.333" y="886.667" type="curve" smooth="yes"/>
      <point x="477.667" y="886.667"/>
      <point x="446.333" y="860.333"/>
      <point x="440.333" y="826.667" type="curve"/>
      <point x="433.333" y="793"/>
      <point x="456" y="766.667"/>
    </contour>
    <contour>
      <point x="63.3333" y="0" type="line" name="n24"/>
      <point x="463.333" y="0" type="line" name="n25"/>
      <point x="476.333" y="76.6667" type="line" name="n26"/>
      <point x="189.667" y="76.6667" type="line"/>
      <point x="234" y="326.667" type="line" name="n28"/>
      <point x="460.667" y="326.667" type="line"/>
      <point x="474" y="403.333" type="line"/>
      <point x="247.333" y="403.333" type="line" name="n31"/>
      <point x="286.333" y="623.333" type="line"/>
      <point x="573" y="623.333" type="line" name="n33"/>
      <point x="586.333" y="700" type="line" name="n34"/>
      <point x="186.333" y="700" type="line"/>
    </contour>
  </outline>
</glyph>
<glyph name="Igrave" format="2">
  <advance width="281"/>
  <unicode hex="00CC"/>
  <anchor x="176.667" y="0" name="b.uni0328_1"/>
  <anchor x="245" y="700" name="m.gravecomb_2"/>
  <anchor x="119.333" y="0" name="m.uni0326"/>
  <outline>
    <contour>
      <point x="217.667" y="750" type="line"/>
      <point x="287.667" y="750" type="line" name="n01"/>
      <point x="269.667" y="900" type="line" name="n02"/>
      <point x="151.333" y="900" type="line"/>
    </contour>
    <contour>
      <point x="63.3333" y="0" type="line" name="n04"/>
      <point x="176.667" y="0" type="line"/>
      <point x="299.667" y="700" type="line" name="n06"/>
      <point x="186.333" y="700" type="line"/>
    </contour>
  </outline>
</glyph>
<glyph name="Icircumflex" format="2">
  <advance width="277"/>
  <unicode hex="00CE"/>
  <anchor x="176.667" y="0" name="b.uni0328_1"/>
  <anchor x="245" y="700" name="m.gravecomb_2"/>
  <anchor x="119.333" y="0" name="m.uni0326"/>
  <outline>
    <contour>
      <point x="99.6667" y="760" type="line"/>
      <point x="174.667" y="760" type="line"/>
      <point x="258.667" y="826.667" type="line"/>
      <point x="318" y="760" type="line" name="n03"/>
      <point x="393" y="760" type="line" name="n04"/>
      <point x="309.667" y="891.333" type="line" name="n05"/>
      <point x="229.667" y="891.333" type="line"/>
    </contour>
    <contour>
      <point x="63.3333" y="0" type="line" name="n07"/>
      <point x="176.667" y="0" type="line"/>
      <point x="299.667" y="700" type="line" name="n09"/>
      <point x="186.333" y="700" type="line"/>
    </contour>
  </outline>
</glyph>
<glyph name="Idieresis" format="2">
  <advance width="277"/>
  <unicode hex="00CF"/>
  <anchor x="176.667" y="0" name="b.uni0328_1"/>
  <anchor x="245" y="700" name="m.gravecomb_2"/>
  <anchor x="119.333" y="0" name="m.uni0326"/>
  <outline>
    <contour>
      <point x="154.333" y="766.667" type="curve" smooth="yes" name="n00"/>
      <point x="187.667" y="766.667"/>
      <point x="218.667" y="793"/>
      <point x="225" y="826.667" type="curve" smooth="yes"/>
      <point x="230.667" y="860.333"/>
      <point x="209.667" y="886.667"/>
      <point x="176" y="886.667" type="curve" smooth="yes" name="n06"/>
      <point x="142.333" y="886.667"/>
      <point x="111" y="860.333"/>
      <point x="105" y="826.667" type="curve"/>
      <point x="98" y="793"/>
      <point x="120.667" y="766.667"/>
    </contour>
    <contour>
      <point x="336" y="766.667" type="curve" smooth="yes"/>
      <point x="369.333" y="766.667"/>
      <point x="400.333" y="793"/>
      <point x="406.667" y="826.667" type="curve" smooth="yes"/>
      <point x="412.333" y="860.333"/>
      <point x="391.333" y="886.667"/>
      <point x="357.667" y="886.667" type="curve" smooth="yes"/>
      <point x="324" y="886.667"/>
      <point x="292.667" y="860.333"/>
      <point x="286.667" y="826.667" type="curve"/>
      <point x="279.667" y="793"/>
      <point x="302.333" y="766.667"/>
    </contour>
    <contour>
      <point x="63.3333" y="0" type="line" name="n24"/>
      <point x="176.667" y="0" type="line"/>
      <point x="299.667" y="700" type="line" name="n26"/>
      <point x="186.333" y="700" type="line"/>
    </contour>
  </outline>
</glyph>
<glyph name="Eth" format="2">
  <advance width="597"/>
  <unicode hex="00D0"/>
  <outline>
    <contour>
      <point x="65" y="0" type="line"/>
      <point x="221.667" y="0" type="line" smooth="yes" name="n01"/>
      <point x="415" y="0"/>
      <point x="535" y="102.667"/>
      <point x="579.333" y="350" type="curve"/>
      <point x="622.333" y="597.333"/>
      <point x="538.667" y="700"/>
      <point x="344.667" y="700" type="curve" smooth="yes" name="n07"/>
      <point x="188" y="700" type="line"/>
      <point x="135.667" y="403.333" type="line"/>
      <point x="80.6667" y="403.333" type="line" name="n10"/>
      <point x="65.3333" y="316.667" type="line" name="n11"/>
      <point x="120.333" y="316.667" type="line"/>
    </contour>
    <contour>
      <point x="191.333" y="76.6667" type="line" name="n13"/>
      <point x="233.667" y="316.667" type="line"/>
      <point x="342" y="316.667" type="line"/>
      <point x="357.333" y="403.333" type="line"/>
      <point x="249" y="403.333" type="line"/>
      <point x="288" y="623.333" type="line"/>
      <point x="331.333" y="623.333" type="line" smooth="yes" name="n19"/>
      <point x="447.333" y="623.333"/>
      <point x="502.333" y="557.333"/>
      <point x="466" y="350" type="curve" smooth="yes"/>
      <point x="429.667" y="142.667"/>
      <point x="351.667" y="76.6667"/>
      <point x="234.667" y="76.6667" type="curve" smooth="yes"/>
    </contour>
  </outline>
</glyph>
<glyph name="Oacute" format="2">
  <advance width="610"/>
  <unicode hex="00D3"/>
  <outline>
    <contour>
      <point x="358" y="750" type="line"/>
      <point x="428" y="750" type="line" name="n01"/>
      <point x="548.333" y="900" type="line"/>
      <point x="430" y="900" type="line" name="n03"/>
    </contour>
    <contour>
      <point x="278" y="-10" type="curve" smooth="yes" name="n04"/>
      <point x="427.333" y="-10"/>
      <point x="547.667" y="91.6667"/>
      <point x="592.667" y="350" type="curve" smooth="yes"/>
      <point x="637.667" y="608.333"/>
      <point x="554.667" y="710"/>
      <point x="405" y="710" type="curve" smooth="yes" name="n10"/>
      <point x="255" y="710"/>
      <point x="134.333" y="608.333"/>
      <point x="89.3333" y="350" type="curve" smooth="yes"/>
      <point x="44.3333" y="91.6667"/>
      <point x="128" y="-10"/>
    </contour>
    <contour>
      <point x="291.333" y="66.6667" type="curve" smooth="yes" name="n16"/>
      <point x="220" y="66.6667"/>
      <point x="163.667" y="133"/>
      <point x="202.667" y="350" type="curve" smooth="yes"/>
      <point x="241.667" y="567"/>
      <point x="318.667" y="633.333"/>
      <point x="391" y="633.333" type="curve" smooth="yes" name="n22"/>
      <point x="461.333" y="633.333"/>
      <point x="518.333" y="567"/>
      <point x="479.333" y="350" type="curve" smooth="yes"/>
      <point x="440.333" y="133"/>
      <point x="363" y="66.6667"/>
    </contour>
  </outline>
</glyph>
<glyph name="Ocircumflex" format="2">
  <advance width="610"/>
  <unicode hex="00D4"/>
  <outline>
    <contour>
      <point x="266.333" y="760" type="line"/>
      <point x="341.333" y="760" type="line"/>
      <point x="425.333" y="826.667" type="line"/>
      <point x="484.667" y="760" type="line" name="n03"/>
      <point x="559.667" y="760" type="line"/>
      <point x="476.333" y="891.333" type="line" name="n05"/>
      <point x="396.333" y="891.333" type="line"/>
    </contour>
    <contour>
      <point x="278" y="-10" type="curve" smooth="yes" name="n07"/>
      <point x="427.333" y="-10"/>
      <point x="547.667" y="91.6667"/>
      <point x="592.667" y="350" type="curve" smooth="yes"/>
      <point x="637.667" y="608.333"/>
      <point x="554.667" y="710"/>
      <point x="405" y="710" type="curve" smooth="yes" name="n13"/>
      <point x="255" y="710"/>
      <point x="134.333" y="608.333"/>
      <point x="89.3333" y="350" type="curve" smooth="yes"/>
      <point x="44.3333" y="91.6667"/>
      <point x="128" y="-10"/>
    </contour>
    <contour>
      <point x="291.333" y="66.6667" type="curve" smooth="yes" name="n19"/>
      <point x="220" y="66.6667"/>
      <point x="163.667" y="133"/>
      <point x="202.667" y="350" type="curve" smooth="yes"/>
      <point x="241.667" y="567"/>
      <point x="318.667" y="633.333"/>
      <point x="391" y="633.333" type="curve" smooth="yes" name="n25"/>
      <point x="461.333" y="633.333"/>
      <point x="518.333" y="567"/>
      <point x="479.333" y="350" type="curve" smooth="yes"/>
      <point x="440.333" y="133"/>
      <point x="363" y="66.6667"/>
    </contour>
  </outline>
</glyph>
<glyph name="Otilde" format="2">
  <advance width="610"/>
  <unicode hex="00D5"/>
  <outline>
    <contour>
      <point x="409.333" y="763.333" type="curve"/>
      <point x="443.333" y="763.667"/>
      <point x="471.667" y="803"/>
      <point x="495" y="833.333" type="curve" name="n03"/>
      <point x="503.291" y="835.678" name="hr01"/>
      <point x="491.735" y="831.249"/>
      <point x="505" y="835" type="curve" name="n06"/>
      <point x="520.42" y="835"/>
      <point x="532.981" y="851.333"/>
      <point x="536.333" y="868.333" type="curve"/>
      <point x="536.217" y="867.736"/>
      <point x="507.818" y="848.909"/>
      <point x="484.333" y="851.667" type="curve"/>
      <point x="463.245" y="851.667"/>
      <point x="461.36" y="881.667"/>
      <point x="426.667" y="881.667" type="curve"/>
      <point x="393" y="881.333"/>
      <point x="364.667" y="841.333"/>
      <point x="341" y="811.667" type="curve" name="n18"/>
      <point x="332.704" y="809.326" name="hr02"/>
      <point x="343.704" y="813.678"/>
      <point x="330.667" y="810" type="curve" name="n21"/>
      <point x="314.616" y="810"/>
      <point x="302.687" y="793.667"/>
      <point x="299.333" y="776.667" type="curve"/>
      <point x="299.452" y="775.93"/>
      <point x="328.112" y="794.758"/>
      <point x="351.667" y="793.333" type="curve"/>
      <point x="372.755" y="793.333"/>
      <point x="374.64" y="763.333"/>
    </contour>
    <contour>
      <point x="320.333" y="230" type="curve" smooth="yes" name="n30"/>
      <point x="363" y="230"/>
      <point x="401" y="261.667"/>
      <point x="416" y="350" type="curve" smooth="yes"/>
      <point x="431" y="438.333"/>
      <point x="406" y="470"/>
      <point x="362.667" y="470" type="curve" smooth="yes" name="n36"/>
      <point x="319.333" y="470"/>
      <point x="281" y="438.333"/>
      <point x="266" y="350" type="curve" smooth="yes"/>
      <point x="251" y="261.667"/>
      <point x="276.667" y="230"/>
    </contour>
    <contour>
      <point x="348.667" y="156.667" type="curve" smooth="yes" name="hr04"/>
      <point x="286.333" y="86.3333"/>
      <point x="223.667" y="113.333"/>
      <point x="228.667" y="260" type="curve" smooth="yes" name="n45"/>
      <point x="234" y="406.667"/>
      <point x="270.333" y="473" name="hr05"/>
      <point x="333.333" y="543.333" type="curve"/>
      <point x="394.333" y="613.667"/>
      <point x="458.667" y="586.667"/>
      <point x="453.667" y="440" type="curve" smooth="yes" name="n51"/>
      <point x="448.667" y="293.333"/>
      <point x="411" y="227" name="hr06"/>
    </contour>
  </outline>
</glyph>
<glyph name="Odieresis" format="2">
  <advance width="610"/>
  <unicode hex="00D6"/>
  <outline>
    <contour>
      <point x="321" y="766.667" type="curve" smooth="yes" name="n00"/>
      <point x="354.333" y="766.667"/>
      <point x="385.333" y="793"/>
      <point x="391.667" y="826.667" type="curve" smooth="yes"/>
      <point x="397.333" y="860.333"/>
      <point x="376.333" y="886.667"/>
      <point x="342.667" y="886.667" type="curve" smooth="yes" name="n06"/>
      <point x="309" y="886.667"/>
      <point x="277.667" y="860.333"/>
      <point x="271.667" y="826.667" type="curve"/>
      <point x="264.667" y="793"/>
      <point x="287.333" y="766.667"/>
    </contour>
    <contour>
      <point x="502.667" y="766.667" type="curve" smooth="yes"/>
      <point x="536" y="766.667"/>
      <point x="567" y="793"/>
      <point x="573.333" y="826.667" type="curve" smooth="yes"/>
      <point x="579" y="860.333"/>
      <point x="558" y="886.667"/>
      <point x="524.333" y="886.667" type="curve" smooth="yes"/>
      <point x="490.667" y="886.667"/>
      <point x="459.333" y="860.333"/>
      <point x="453.333" y="826.667" type="curve"/>
      <point x="446.333" y="793"/>
      <point x="469" y="766.667"/>
    </contour>
    <contour>
      <point x="278" y="-10" type="curve" smooth="yes" name="n24"/>
      <point x="427.333" y="-10"/>
      <point x="547.667" y="91.6667"/>
      <point x="592.667" y="350" type="curve" smooth="yes"/>
      <point x="637.667" y="608.333"/>
      <point x="554.667" y="710"/>
      <point x="405" y="710" type="curve" smooth="yes" name="n30"/>
      <point x="255" y="710"/>
      <point x="134.333" y="608.333"/>
      <point x="89.3333" y="350" type="curve" smooth="yes"/>
      <point x="44.3333" y="91.6667"/>
      <point x="128" y="-10"/>
    </contour>
    <contour>
      <point x="291.333" y="66.6667" type="curve" smooth="yes" name="n36"/>
      <point x="220" y="66.6667"/>
      <point x="163.667" y="133"/>
      <point x="202.667" y="350" type="curve" smooth="yes"/>
      <point x="241.667" y="567"/>
      <point x="318.667" y="633.333"/>
      <point x="391" y="633.333" type="curve" smooth="yes" name="n42"/>
      <point x="461.333" y="633.333"/>
      <point x="518.333" y="567"/>
      <point x="479.333" y="350" type="curve" smooth="yes"/>
      <point x="440.333" y="133"/>
      <point x="363" y="66.6667"/>
    </contour>
  </outline>
</glyph>
<glyph name="multiply" format="2">
  <advance width="438"/>
  <unicode hex="00D7"/>
  <outline>
    <contour>
      <point x="104.333" y="153" type="line" name="n00"/>
      <point x="241.333" y="268.667" type="line"/>
      <point x="336.333" y="153" type="line"/>
      <point x="408.333" y="213.667" type="line"/>
      <point x="313" y="330" type="line"/>
      <point x="449.333" y="446.333" type="line" name="n05"/>
      <point x="398.667" y="507" type="line"/>
      <point x="263" y="391.333" type="line"/>
      <point x="166.667" y="507" type="line" name="n08"/>
      <point x="94.6667" y="446.333" type="line"/>
      <point x="191" y="330" type="line"/>
      <point x="53.6667" y="213.667" type="line" name="n11"/>
    </contour>
  </outline>
</glyph>
<glyph name="Oslash" format="2">
  <advance width="610"/>
  <unicode hex="00D8"/>
  <outline>
    <contour>
      <point x="278" y="-10" type="curve" smooth="yes" name="n00"/>
      <point x="427.333" y="-10"/>
      <point x="547.667" y="91.6667" name="hr01"/>
      <point x="592.667" y="350" type="curve" smooth="yes"/>
      <point x="613.333" y="465.667"/>
      <point x="609" y="550.333"/>
      <point x="582" y="608" type="curve" name="n06"/>
      <point x="651.333" y="700" type="line"/>
      <point x="559.667" y="700" type="line" name="n08"/>
      <point x="536" y="668.667" type="line"/>
      <point x="503" y="696.333"/>
      <point x="459.333" y="710" name="hr02"/>
      <point x="405" y="710" type="curve" smooth="yes" name="n12"/>
      <point x="255" y="710"/>
      <point x="134.333" y="608.333" name="hr03"/>
      <point x="89.3333" y="350" type="curve" smooth="yes"/>
      <point x="68.6667" y="233"/>
      <point x="73" y="150.333"/>
      <point x="100" y="91.3333" type="curve" name="n18"/>
      <point x="31.6667" y="0" type="line"/>
      <point x="123.333" y="0" type="line" name="n20"/>
      <point x="146.667" y="31.3333" type="line"/>
      <point x="179.667" y="3"/>
      <point x="224" y="-10" name="hr04"/>
    </contour>
    <contour>
      <point x="191.333" y="211.333" type="line"/>
      <point x="189.667" y="248.333"/>
      <point x="193" y="294"/>
      <point x="202.667" y="350" type="curve" smooth="yes"/>
      <point x="241.667" y="567"/>
      <point x="318.667" y="633.333"/>
      <point x="391" y="633.333" type="curve" smooth="yes" name="n30"/>
      <point x="423.667" y="633.333"/>
      <point x="453.333" y="619.667"/>
      <point x="471.333" y="583.333" type="curve"/>
    </contour>
    <contour>
      <point x="291.333" y="66.6667" type="curve" smooth="yes" name="n34"/>
      <point x="258.333" y="66.6667"/>
      <point x="229.333" y="79.6667"/>
      <point x="210.333" y="116" type="curve"/>
      <point x="491.333" y="487.667" type="line"/>
      <point x="493" y="451"/>
      <point x="489" y="405.667"/>
      <point x="479.333" y="350" type="curve" smooth="yes"/>
      <point x="440.333" y="133"/>
      <point x="363" y="66.6667"/>
    </contour>
  </outline>
</glyph>
<glyph name="Ugrave" format="2">
  <advance width="627"/>
  <unicode hex="00D9"/>
  <outline>
    <contour>
      <point x="397.333" y="730" type="line"/>
      <point x="467.333" y="730" type="line" name="n01"/>
      <point x="449.333" y="880" type="line" name="n02"/>
      <point x="331" y="880" type="line"/>
    </contour>
    <contour>
      <point x="286.333" y="-10" type="curve" smooth="yes" name="n04"/>
      <point x="435" y="-10"/>
      <point x="531.667" y="72.3333"/>
      <point x="558.667" y="223.333" type="curve" smooth="yes"/>
      <point x="643" y="700" type="line" name="n08"/>
      <point x="529.667" y="700" type="line"/>
      <point x="445.333" y="223.333" type="line" smooth="yes"/>
      <point x="426.333" y="114.333"/>
      <point x="370.333" y="66.6667"/>
      <point x="299.667" y="66.6667" type="curve" smooth="yes" name="n13"/>
      <point x="229" y="66.6667"/>
      <point x="189.667" y="114.333"/>
      <point x="208.667" y="223.333" type="curve" smooth="yes"/>
      <point x="293" y="700" type="line"/>
      <point x="179.667" y="700" type="line"/>
      <point x="95.3333" y="223.333" type="line" smooth="yes"/>
      <point x="68.3333" y="72.3333"/>
      <point x="137.667" y="-10"/>
    </contour>
  </outline>
</glyph>
<glyph name="Uacute" format="2">
  <advance width="627"/>
  <unicode hex="00DA"/>
  <outline>
    <contour>
      <point x="372.333" y="730" type="line"/>
      <point x="442.333" y="730" type="line" name="n01"/>
      <point x="562.667" y="880" type="line"/>
      <point x="444.333" y="880" type="line" name="n03"/>
    </contour>
    <contour>
      <point x="286.333" y="-10" type="curve" smooth="yes" name="n04"/>
      <point x="435" y="-10"/>
      <point x="531.667" y="72.3333"/>
      <point x="558.667" y="223.333" type="curve" smooth="yes"/>
      <point x="643" y="700" type="line" name="n08"/>
      <point x="529.667" y="700" type="line"/>
      <point x="445.333" y="223.333" type="line" smooth="yes"/>
      <point x="426.333" y="114.333"/>
      <point x="370.333" y="66.6667"/>
      <point x="299.667" y="66.6667" type="curve" smooth="yes" name="n13"/>
      <point x="229" y="66.6667"/>
      <point x="189.667" y="114.333"/>
      <point x="208.667" y="223.333" type="curve" smooth="yes"/>
      <point x="293" y="700" type="line"/>
      <point x="179.667" y="700" type="line"/>
      <point x="95.3333" y="223.333" type="line" smooth="yes"/>
      <point x="68.3333" y="72.3333"/>
      <point x="137.667" y="-10"/>
    </contour>
  </outline>
</glyph>
<glyph name="Ucircumflex" format="2">
  <advance width="627"/>
  <unicode hex="00DB"/>
  <outline>
    <contour>
      <point x="274.667" y="760" type="line"/>
      <point x="349.667" y="760" type="line"/>
      <point x="433.667" y="826.667" type="line"/>
      <point x="493" y="760" type="line" name="n03"/>
      <point x="568" y="760" type="line"/>
      <point x="484.667" y="891.333" type="line" name="n05"/>
      <point x="404.667" y="891.333" type="line"/>
    </contour>
    <contour>
      <point x="286.333" y="-10" type="curve" smooth="yes" name="n07"/>
      <point x="435" y="-10"/>
      <point x="531.667" y="72.3333"/>
      <point x="558.667" y="223.333" type="curve" smooth="yes"/>
      <point x="643" y="700" type="line" name="n11"/>
      <point x="529.667" y="700" type="line"/>
      <point x="445.333" y="223.333" type="line" smooth="yes"/>
      <point x="426.333" y="114.333"/>
      <point x="370.333" y="66.6667"/>
      <point x="299.667" y="66.6667" type="curve" smooth="yes" name="n16"/>
      <point x="229" y="66.6667"/>
      <point x="189.667" y="114.333"/>
      <point x="208.667" y="223.333" type="curve" smooth="yes"/>
      <point x="293" y="700" type="line"/>
      <point x="179.667" y="700" type="line"/>
      <point x="95.3333" y="223.333" type="line" smooth="yes"/>
      <point x="68.3333" y="72.3333"/>
      <point x="137.667" y="-10"/>
    </contour>
  </outline>
</glyph>
<glyph name="Udieresis" format="2">
  <advance width="627"/>
  <unicode hex="00DC"/>
  <outline>
    <contour>
      <point x="329.333" y="766.667" type="curve" smooth="yes" name="n00"/>
      <point x="362.667" y="766.667"/>
      <point x="393.667" y="793"/>
      <point x="400" y="826.667" type="curve" smooth="yes"/>
      <point x="405.667" y="860.333"/>
      <point x="384.667" y="886.667"/>
      <point x="351" y="886.667" type="curve" smooth="yes" name="n06"/>
      <point x="317.333" y="886.667"/>
      <point x="286" y="860.333"/>
      <point x="280" y="826.667" type="curve"/>
      <point x="273" y="793"/>
      <point x="295.667" y="766.667"/>
    </contour>
    <contour>
      <point x="511" y="766.667" type="curve" smooth="yes"/>
      <point x="544.333" y="766.667"/>
      <point x="575.333" y="793"/>
      <point x="581.667" y="826.667" type="curve" smooth="yes"/>
      <point x="587.333" y="860.333"/>
      <point x="566.333" y="886.667"/>
      <point x="532.667" y="886.667" type="curve" smooth="yes"/>
      <point x="499" y="886.667"/>
      <point x="467.667" y="860.333"/>
      <point x="461.667" y="826.667" type="curve"/>
      <point x="454.667" y="793"/>
      <point x="477.333" y="766.667"/>
    </contour>
    <contour>
      <point x="286.333" y="-10" type="curve" smooth="yes" name="n24"/>
      <point x="435" y="-10"/>
      <point x="531.667" y="72.3333"/>
      <point x="558.667" y="223.333" type="curve" smooth="yes"/>
      <point x="643" y="700" type="line" name="n28"/>
      <point x="529.667" y="700" type="line"/>
      <point x="445.333" y="223.333" type="line" smooth="yes"/>
      <point x="426.333" y="114.333"/>
      <point x="370.333" y="66.6667"/>
      <point x="299.667" y="66.6667" type="curve" smooth="yes" name="n33"/>
      <point x="229" y="66.6667"/>
      <point x="189.667" y="114.333"/>
      <point x="208.667" y="223.333" type="curve" smooth="yes"/>
      <point x="293" y="700" type="line"/>
      <point x="179.667" y="700" type="line"/>
      <point x="95.3333" y="223.333" type="line" smooth="yes"/>
      <point x="68.3333" y="72.3333"/>
      <point x="137.667" y="-10"/>
    </contour>
  </outline>
</glyph>
<glyph name="Yacute" format="2">
  <advance width="543"/>
  <unicode hex="00DD"/>
  <outline>
    <contour>
      <point x="330.667" y="730" type="line"/>
      <point x="400.667" y="730" type="line" name="n01"/>
      <point x="521" y="880" type="line"/>
      <point x="402.667" y="880" type="line" name="n03"/>
    </contour>
    <contour>
      <point x="190" y="0" type="line" name="n04"/>
      <point x="303.333" y="0" type="line"/>
      <point x="343.333" y="230" type="line"/>
      <point x="641.333" y="700" type="line" name="n07"/>
      <point x="523" y="700" type="line"/>
      <point x="334.667" y="398.333" type="line" smooth="yes"/>
      <point x="327" y="386"/>
      <point x="321" y="374"/>
      <point x="316.333" y="362.333" type="curve"/>
      <point x="314.376" y="358.153"/>
      <point x="310.171" y="347.198"/>
      <point x="309" y="343.333" type="curve"/>
      <point x="305" y="343.333" type="line"/>
      <point x="305" y="349.667"/>
      <point x="305" y="356"/>
      <point x="304" y="362.333" type="curve"/>
      <point x="303" y="373.333"/>
      <point x="301" y="386"/>
      <point x="298" y="398.333" type="curve" smooth="yes"/>
      <point x="216.333" y="700" type="line"/>
      <point x="98" y="700" type="line" name="n24"/>
      <point x="230" y="230" type="line"/>
    </contour>
  </outline>
</glyph>
<glyph name="Thorn" format="2">
  <advance width="625"/>
  <unicode hex="00DE"/>
  <outline>
    <contour>
      <point x="59.3333" y="-20" type="line"/>
      <point x="172.667" y="-20" type="line"/>
      <point x="186" y="56.6667" type="line" name="n02"/>
      <point x="269.333" y="56.6667" type="line" smooth="yes"/>
      <point x="459" y="56.6667"/>
      <point x="585.667" y="164"/>
      <point x="617.667" y="350" type="curve" smooth="yes"/>
      <point x="650.333" y="536"/>
      <point x="562.667" y="643.333"/>
      <point x="372.667" y="643.333" type="curve" smooth="yes"/>
      <point x="289.333" y="643.333" type="line" name="n10"/>
      <point x="302.667" y="720" type="line"/>
      <point x="189.333" y="720" type="line"/>
    </contour>
    <contour>
      <point x="199.333" y="133.333" type="line" name="n13"/>
      <point x="276" y="566.667" type="line" name="n14"/>
      <point x="359.333" y="566.667" type="line" smooth="yes"/>
      <point x="468.333" y="566.667"/>
      <point x="530.333" y="493.333"/>
      <point x="504.333" y="350" type="curve"/>
      <point x="479.667" y="206.667"/>
      <point x="393.333" y="133.333"/>
      <point x="282.667" y="133.333" type="curve" smooth="yes"/>
    </contour>
  </outline>
</glyph>
